<svg xmlns="http://www.w3.org/2000/svg" viewBox="0 0 205.98 37.08">
    <defs>
        <style>.cls-1{fill:#f2644d;stroke-width:0}</style>
    </defs>
    <g>
        <path d="M168.7 31.13c-3.41 0-6.19-2.78-6.19-6.19s2.78-6.19 6.19-6.19c2.49 0 4.64 1.48 5.62 3.6l5.35-2.52c-1.93-4.13-6.12-7-10.97-7-6.67 0-12.37 5.43-12.37 12.1s5.34 12.1 12.37 12.1c4.9 0 9.14-2.94 11.03-7.14l-5.5-2.21c-1.02 2.03-3.11 3.44-5.54 3.44M193.74 12.83c-6.67 0-12.23 5.43-12.23 12.1s5.56 12.1 12.23 12.1 12.23-5.43 12.23-12.1-5.56-12.1-12.23-12.1m0 18.3c-3.41 0-6.19-2.78-6.19-6.19s2.78-6.19 6.19-6.19 6.19 2.78 6.19 6.19-2.78 6.19-6.19 6.19M153.25 13.73h-6.49c.02.47.07 2.01.08 2.4.03.8.13 4 .13 4.8 0 .8 0 1.6-.03 2.4-.06 1.65-.19 3.4-1.02 4.87-.57 1-1.46 1.7-2.55 2.07-2.19.75-4.99.17-6.66-1.5-.82-.82-1.28-1.92-1.52-3.04-.58-2.72-.5-5.67-.52-8.44v-3.55h-6.7c.02 1.56.02 3.21-.02 4.76-.07 2.66-.11 5.38-.84 7.96-.68 2.39-2.4 4.12-4.95 4.24-2.06.1-4.25-.91-4.98-2.94-1.25-3.46.8-7.69-1.82-10.73-1.47-1.7-3.87-2.47-6.07-2.32-2.43.16-4.59 1.6-6.02 3.52-1.65 2.22-1.95 5.02-3.06 7.49-.46 1.02-1.05 2.14-1.9 2.88-3.1 2.69-7.61 2.49-11.2.93-.6-.26-1.27-.63-1.73-1.1 1.08-.32 2.52-.89 3.21-1.19 2.9-1.26 5.47-3.43 6.7-6.39 1.12-2.7 1.01-5.83-.63-8.3-3.21-4.84-10.14-4.69-14.63-1.85-1.32.84-2.48 1.94-3.37 3.23-1.71 2.46-2.27 5.62-1.92 8.57.16 1.33.47 2.71.14 4.04-.13.51-.38.99-.73 1.39-1.4 1.61-3.91 1.74-5.81 1.01-2.38-.91-3.22-2.85-3.51-5.26-.13-1.07-.34-2.35-.6-3.4-.59-2.36-1.58-4.4-3.42-6.04-1.53-1.36-3.42-2.19-5.4-2.63 0 0-2.69-.6-6-.37V.44h-6.49c0 .45.03 12.82 0 12.84-1.06.62-1.8 1.3-2.21 1.67-4.65 4.17-8.04 9.81-13.57 12.96-2.17 1.24-4.6 1.91-7.1 1.96-4.29.09-8.76-2.19-10.98-5.9-2.22-3.7-1.71-8.8.91-12.2.9-1.17 2.05-2.13 3.3-2.9 3.94-2.41 8.93-2.37 12.91-.1l3.15-6.11c-.55-.33-1.12-.64-1.7-.91-.9-.43-1.84-.78-2.8-1.04-.96-.27-1.95-.46-2.95-.56-4.06-.44-8.27.39-11.89 2.28C2.49 6.33-1.38 14.72.45 22.99c2 9.04 10.76 14.39 20.06 14.01 3.74-.15 7.11-1 10.62-3.12 3.86-2.33 6.93-5.62 9.86-8.97l1.95-2.16v14.33h6.48V18.21c0-.11.97-.28 1.17-.3 2.21-.25 4.69.23 6.15 2.01 1.3 1.59 1.52 3.68 1.86 5.64.35 1.98.92 3.97 2.11 5.63 2.71 3.79 7.81 4.88 12.19 4.09 2.1-.38 4.02-1.3 5.6-2.74.27-.25.48-.48.79-.85.28.29.45.47.67.69 2.61 2.56 5.96 4.02 9.57 4.47 4.89.62 10.35-.39 13.95-3.98 1.75-1.74 2.78-3.89 3.46-6.26.28-.96.52-1.94.8-2.89.2-.68.53-1.51 1.3-1.69.46-.1.97.03 1.22.44.29.49.13 1.31.11 1.86-.04 1.45-.07 2.37.18 3.68.71 3.71 2.71 6.57 6.1 8 2.43 1.03 5.11 1.28 7.68.73 2.45-.52 4.91-1.82 6.34-3.93.15-.23.3-.49.44-.72.06-.1.1-.18.16-.28.24.34.39.54.59.8 1.44 1.95 3.49 3.2 5.8 3.88 3.85 1.12 8.17.49 11.36-2 2.06-1.6 3.34-3.86 3.91-6.39.64-2.81.62-5.78.56-8.64-.03-1.52-.2-5.18-.23-5.73m-72.6 7.94c-.54-1.21-.18-2.58.46-3.67.37-.64.85-1.22 1.39-1.73 1.42-1.31 3.56-2.29 5.46-1.62 1.71.6 2.33 2.51 1.57 4.23-.84 1.91-2.62 3.27-4.46 3.93-1.46.53-3.68.57-4.43-1.14"
              class="cls-1"/>
    </g>
</svg>