<?xml version="1.0" encoding="UTF-8"?><svg id="b" xmlns="http://www.w3.org/2000/svg" viewBox="0 0 477.21 499.55"><defs><style>.e{stroke-width:5px;}.e,.f{fill:none;stroke:#231f20;stroke-miterlimit:10;}.g{fill:#231f20;stroke-width:0px;}.f{stroke-width:6px;}</style></defs><g id="c"><path class="g" d="m409.28,224.47c-36.34,2.24-64.58-33.08-53.95-68.25,6.28-21.29,25.71-36.39,47.85-37.71,21.85-1.49,43.47,11.78,51.89,31.96,14.6,33.72-9.43,72.06-45.79,74h0Zm0,0c19.89-.95,37.98-15.22,43.39-34.34,9.44-31.79-16.13-63.56-48.91-61.56-32.81,1.74-54.59,36.26-41.54,66.77,7.57,18.36,27.19,30.47,47.05,29.13h0Z"/><path class="g" d="m427.08,327.95c-36.34,2.24-64.58-33.08-53.95-68.25,6.28-21.29,25.71-36.39,47.85-37.71,21.85-1.49,43.47,11.78,51.89,31.96,14.6,33.72-9.43,72.06-45.79,74h0Zm0,0c19.89-.95,37.98-15.22,43.39-34.34,9.44-31.79-16.13-63.56-48.91-61.56-32.81,1.74-54.59,36.26-41.54,66.77,7.57,18.36,27.19,30.47,47.05,29.13h0Z"/><path class="g" d="m376.53,419.35c-36.34,2.24-64.58-33.08-53.95-68.25,6.28-21.29,25.71-36.39,47.85-37.71,21.85-1.49,43.47,11.78,51.89,31.96,14.6,33.72-9.43,72.06-45.79,74h0Zm0,0c19.89-.95,37.98-15.22,43.39-34.34,9.44-31.79-16.13-63.56-48.91-61.56-32.81,1.74-54.59,36.26-41.54,66.77,7.57,18.36,27.19,30.47,47.05,29.13h0Z"/><path class="g" d="m138.25,86.35c.91-3.05.61-6.86-1.81-9.03,0,0-.25-.63-.25-.63-7.08-18.69-26.64-31-46.43-29.46-30.9,1.89-53.83,34.06-40.09,63.35,1.48,3.11,3.21,6.25,6.01,8.4-6.7-3.15-10.52-10.36-13.3-16.91-11.69-31.03,15.23-63.19,46.87-64.26,23.24-1.35,46.13,14.69,50.88,37.71,0,0-.32-.64-.32-.64,2.01,3.66,1.33,8.52-1.56,11.48h0Z"/><path class="g" d="m400.84,121.08c2.67-1.73,4.91-4.82,4.48-8.05,0,0,.22-.64.22-.64,6.73-18.82-.18-40.87-16.24-52.53-24.75-18.59-63.07-8.98-71.6,22.23-.89,3.33-1.61,6.84-.88,10.29-3.06-6.75-1.29-14.71.84-21.5,11.22-31.21,52.56-38.23,77.35-18.53,18.57,14.04,25.6,41.09,14.28,61.7,0,0,.17-.7.17-.7-.85,4.09-4.51,7.35-8.63,7.72h0Z"/><path class="g" d="m308.41,80.05c2.67-1.73,4.91-4.82,4.48-8.05,0,0,.22-.64.22-.64,6.73-18.82-.18-40.87-16.24-52.53-24.75-18.59-63.07-8.97-71.6,22.23-.89,3.33-1.61,6.84-.88,10.29-3.06-6.74-1.29-14.71.84-21.5,11.22-31.2,52.56-38.23,77.35-18.53,18.57,14.04,25.6,41.09,14.28,61.7,0,0,.17-.7.17-.7-.85,4.09-4.51,7.35-8.63,7.72h0Z"/><path class="g" d="m220.83,59.42c1.58-2.76,2.17-6.53.31-9.21,0,0-.1-.67-.1-.67-2.62-19.82-18.83-36.27-38.45-39.31-30.51-5.23-60.2,20.83-53.53,52.49.73,3.37,1.69,6.82,3.92,9.55-5.8-4.6-7.87-12.5-9.07-19.51C119.63,19.89,153.2-5.25,184.24.94c22.93,4,41.54,24.86,40.89,48.36,0,0-.17-.7-.17-.7,1.11,4.03-.66,8.6-4.15,10.81h0Z"/><path class="g" d="m65.43,119.55c-2.73-1.85-6.49-2.72-9.48-1.17,0,0-.64.03-.64.03-20.01.64-38.87,14.33-44.05,33.79-5.45,18.91,3.23,40.44,19.84,50.83,8.43,5.5,19.04,7.64,29.17,6.79,3.46-.38,7.03-.95,10.04-2.86-5.28,5.23-13.4,6.47-20.55,7.01-33.16,1.51-57.2-33.39-47.64-64.41,6.51-22.73,29.99-38.3,53.36-35.29,0,0-.69.09-.69.09,4.18-.66,8.63,1.5,10.64,5.19h0Z"/><path class="g" d="m70.54,216.23c-2.73-1.85-6.49-2.72-9.47-1.17,0,0-.65.03-.65.03-21.39.66-41.1,16.2-44.92,37.44-4.01,20.64,8.01,42.86,27.58,50.76,10.12,4.44,21.68,3.77,32.31.69,3.65-.98,7.27-2.14,10.83-3.54-6.58,3.89-13.71,6.94-21.3,8.83-30.06,7.69-58.14-15.74-59.68-46.05-1.46-20.98,12.02-41.77,31.59-49.15,7.59-3.05,15.88-4.02,23.76-3.12l-.69.09c4.18-.66,8.63,1.5,10.64,5.19h0Z"/><path class="g" d="m82.91,303.6c-15.66,7.63-25.83,22.84-29.21,39.28-1.19,6.33-1.4,12.75.61,18.79.46,1.37,1.03,2.85,1.58,4.18,3.25,7.94,7.83,14.72,12.63,22.21-4.59-1.28-8.71-3.76-12.3-6.87-5.43-4.73-9.63-11.26-11.58-18.28-6.27-25.08,12.46-55.68,38.26-59.32h0Z"/></g><g id="d"><path class="g" d="m338.13,246.3c1.23,4.88,1.96,9.92,2.55,14.92,2.93,26.14.47,53.9-12.61,77.17-10.82,19.11-26.27,29.82-45.88,38.73-44.61,20.07-98.63,20.59-142.51-1.73-38.63-19-56.17-57.65-58.18-99.19-1.3-20.04,3.5-39.93,5.16-59.77,0,0,4.72.58,4.72.58l-3.78,24.08-2.96-2.86c42.03-7.8,84.66-11.2,127.35-10.65,42.56.67,85.56,5.39,126.14,18.72h0Zm-.37.34c-40.94-10.89-83.53-14.65-125.8-14.52-43.48.38-87.11,4.02-129.9,11.69.24-1.72,4.25-25.12,4.63-27.55,0,0,4.72.58,4.72.58-.5,5.06-1.14,10-1.83,14.97-2.18,14.68-4.93,29.33-4.25,44.27,1.04,40.91,16.74,79.16,55.05,97.97,26.52,13.63,57.36,17.25,86.74,13.78,22-2.66,43.55-9.31,63.15-19.66,10.85-5.57,20.7-13.04,28.26-22.66,21.21-27.32,24.01-65.66,19.22-98.85h0Z"/><path class="g" d="m283.26,200.13c16.25,6.43,39.79,15.05,55.62,4.78,12.42-8.11,16.14-23.93,15.59-38.05-.17-4.33-.57-8.71-1.63-12.93-.16-.51-.27-1.07-.58-1.51-.05-.07-.13-.06-.17.02,0-.09.13-.13.19-.06,1.47,1.97,2.03,4.5,2.76,6.81,1.36,4.92,2.11,10,2.21,15.11.65,16-6.93,32.81-22.9,38.35-17.01,5.44-37.25-2.68-51.11-12.53h0Z"/><path class="g" d="m351.6,152.48c-4.57-28.73-22.65-55.01-48.04-69.24-30.35-16.67-66.95-21.73-101.13-18.01-29.47,3.19-57.64,14.47-82.46,30.55-30.88,5.17-64.46,25.09-64.99,59.69-.36,10.29.96,21.04,5.28,30.29,5.58,12.26,16.77,21.65,29.78,24.98,8.02,2.49,18.64.99,27.12-.23,0,0,29.38-4.29,29.38-4.29,9.75-1.39,34.62-4.92,44.03-6.27,3.59-.6,10.81-1.97,14.37-2.74,19.02-4.15,37.65-10.28,54.81-19.55,7.7-3.91,17.87-10.7,25.28-15.3,8.41-5.31,17.71-10.31,27.81-11.2,0,0,.15.99.15.99-9.73,2.04-17.9,7.58-25.74,13.46-15.67,12.26-32.67,23.78-51.41,31.12-13.93,5.7-28.8,9.78-43.54,12.75-8.33,1.56-21.01,3.58-29.47,4.99-14.26,2.22-29.94,4.72-44.19,6.61-3.72.49-7.7,1.1-11.52,1.24-22.91,2.18-45.59-10.58-55.17-32.85-4.7-10.98-5.83-22.81-4.85-34.47,2.58-37.6,38.5-57.01,72.08-62.28,27.2-17.25,64.96-34.63,100.29-36.89,21.35-1.62,42.94,1.95,63.06,9.11,26.38,9.04,49.47,26.87,61.29,52.5,5.1,10.99,8.45,22.86,8.77,35,0,0-1,.05-1,.05h0Z"/><path class="g" d="m133.28,283.23c6.03-13.77,23.89-19.44,36.84-11.72.25.16.76.37.51.78-.05.08-.12.14-.21.17-2.26.87-6.81,2.52-9.09,3.3-9.07,3.08-18.45,6.04-27.74,8.43-.31.09-.62-.26-.48-.55,0,0,.17-.4.17-.4h0Z"/><path class="g" d="m236.84,270.39c12.49-7.72,29.73-1.96,35.16,11.72.1.28.39.76-.06.93-.08.03-.17.04-.25.01-2.24-.6-6.7-1.88-8.91-2.57-8.77-2.73-17.71-5.74-26.25-9.15-.3-.11-.34-.56-.06-.72l.38-.23h0Z"/><path class="g" d="m217.25,316.87c.32,11.91-10.66,17.27-18.86,8.04-2.97-3.31-4.94-8.29-3.57-12.86,1.48-4.89,6.42-8.56,11.62-8.43,7.41.08,11.04,6.54,10.82,13.24h0Zm-.5,0c-.23-7.42-11-10.14-16.12-5.8-4.99,4.12-4.94,12.83,2.29,14.29,5.24.64,13.86-2.05,13.83-8.49h0Z"/><line class="f" x1="339.55" y1="207.42" x2="337.94" y2="246.47"/><path class="g" d="m102.25,340.81c-17.5,25.52-35.25,51.06-48.49,79.07-6.71,15-11.5,28.81,1.24,42.21,15.25,15.74,37.12,13.27,52.15-1.33,23.38-22.57,42.07-49.19,61.7-75.23,0,0,.43.26.43.26-5.78,11.08-12.3,21.75-19.32,32.09-5.28,7.75-10.84,15.34-16.81,22.59-6.02,7.27-12.4,14.21-19.4,20.58-4.72,4.34-9.75,8.51-15.67,11.17-15.01,7.25-33.11,3.1-44.21-9.07-4.3-4.7-7.63-10.42-8.69-16.79-1.77-14.67,6.35-32.27,13.05-45.04,9.02-16.52,19.82-31.87,31.49-46.56,3.92-4.86,7.9-9.66,12.13-14.25l.39.31h0Z"/><path class="g" d="m199.39,388.03c-10.05,17.37-19.59,34.86-26.36,53.7-3.26,9.23-6.3,18.89-5.77,28.76.58,6.48,4.15,12.51,8.87,16.92,12.32,11.79,31.05,12.34,44.58,2.38,5.36-3.71,9.68-8.64,13.9-13.61,12.75-15.4,24.11-31.99,35.63-48.34,15.32-21.96,30.28-44.21,45.55-66.3l.43.26c-6.44,11.79-13.17,23.41-20.16,34.88-17.61,28.63-35.77,57.12-57.8,82.64-4.55,5.14-9.35,10.26-15.22,13.96-11.71,7.78-27.63,8.4-39.74,1.34-8.88-5.04-16.48-13.53-18.05-23.91-2.12-17.16,3.91-34.11,11.51-49.19,6.2-12,13.5-23.47,22.21-33.79,0,0,.41.3.41.3h0Z"/><path class="e" d="m61.77,402.29s15.59,40.1,58.85,50.99"/><path class="e" d="m146.15,419.43s.34,14.54,25.71,12.02c0,0,20.23,37.97,64.47,43.66"/><path class="g" d="m337.94,402.29c-7.93,17.47-26.6,30.39-46.07,29.97-6.48-.16-12.84-1.68-18.49-4.47,6.27.67,12.37.95,18.32.32,18.29-1.83,33.81-12.68,46.24-25.81h0Z"/></g></svg>