<?xml version="1.0" encoding="UTF-8"?><svg id="b" xmlns="http://www.w3.org/2000/svg" viewBox="0 0 670.36 126.65"><defs><style>.d{fill:#231f20;stroke:#231f20;stroke-miterlimit:10;}</style></defs><g id="c"><path class="d" d="m35.2,48.36c1.21,0,2.67.54,4.39,1.62v-.86h2v.38l-.38.86c.7,0,1.37.26,2,.76v-1.15h.48c1.33.64,2,1.69,2,3.15h.38l.76-.38.86,1.24-.38.76c.25,0,1.3.83,3.15,2.48h.48c0-.82.54-1.49,1.62-2h1.15l-.38.76.86.38.38-.76c-.57,0-.86-.29-.86-.86.82-.13,1.91-.79,3.24-2h.86l-.48.86v.38c1.21-.7,2.03-1.65,2.48-2.86h-1.24v-.76h.86c1.4,1.34,2.44,2,3.14,2l-.38-.76c.25,0,.38-.16.38-.48h-.76v-.38c0-.32,1.62-.99,4.86-2,1.84,0,2.77.25,2.77.76l.86-.38c4.26,1.27,6.39,2.1,6.39,2.48l4.86,3.62c1.02,0,1.84,1.21,2.48,3.62l-.86,8.01h-.38l-1.62-6.01v-.38h-.38c0,1.02-.16,1.53-.48,1.53l.48.86c-.19,1.91-.48,2.86-.86,2.86,0,.26.13.38.38.38-.32,5.09-.7,7.63-1.14,7.63l.38.86c-.19,1.08-.45,1.62-.76,1.62,0,.26.13.38.38.38l-1.62,8.49v1.14h.38c0-.82.13-1.75.38-2.77h.86l-.38,2.77h.38c-.7,2.16-1.24,3.24-1.62,3.24h-.38v-.38l.38-.86c-1.08,0-1.62-.79-1.62-2.38l.76.38v-.76c0-.25-.13-.38-.38-.38.44-.95,1.11-3.53,2-7.72,0-.25-.13-.38-.38-.38.25-.82.38-2.32.38-4.48h-.38v-.38h.86v-.38l-.48-.76h.48l-.48-.86v-.38h.86v-3.62l-.38-2c.25,0,.38-.16.38-.48l-.86-.38.48-.76v-.86h-.48c0,.83-.13,1.24-.38,1.24l.38.76v.86l-.76,1.24.76.38-2.77,10.49.38.76v.38l-.38,2.1h1.62v.76h-.48l-.76-.38-.38.76c.25,0,.38.16.38.48-.63,0-1.05,1.05-1.24,3.15.25.57.38.99.38,1.24h-1.14v.38h.76v.48l-.76,1.15.38,2-1.24.86h-.38c.57-3.24.86-5.12.86-5.63l-.86.38.38.76c-.26.51-.38,1.05-.38,1.62h-.76c.51-5.34,1.05-8.01,1.62-8.01-.32,0-.48-.16-.48-.48h.48c0-.25-.16-.38-.48-.38l.86-5.63c-.32,0-.86,1.21-1.62,3.62h-.38v.76h.76v.48h-.76l-2-.48c0,.57-.29.86-.86.86.06.51.35.76.86.76l-.48.86v.76l.48,2c-.32,0-.48.16-.48.48.32,0,.48.13.48.38-.83,0-1.24.67-1.24,2h-1.24c0-.82-.25-1.24-.76-1.24v-.76h.76v-.38h-1.62c-.26,1.4-.38,2.19-.38,2.38h-.38l-.86-.38v1.62h1.24l-.38-.86,1.62-1.14v.38c-.32.51-.48.92-.48,1.24.19-.32,1.43-.48,3.72-.48l-.48-.76v-.38c0-.45.54-.99,1.62-1.62h.38c-.13,2.67-.51,4.01-1.15,4.01h-.38l-.86-.38c-1.08,2.16-1.62,3.5-1.62,4,.57.07.86.32.86.76-1.08.19-1.62.61-1.62,1.24-.83,0-1.24-.41-1.24-1.24l-.76.48c0-.32-.16-.48-.48-.48,0,.57-.26.86-.76.86v-.86h-.38c0,1.4-.28,2.1-.86,2.1l-.38-.86c.89-4.77,1.68-7.85,2.38-9.25l-.38-.86,3.24-15.73c-.26-.44-.38-1.11-.38-2l-.86.48-.38-.86v-.38l.76-1.24v-1.62h-1.15c0,1.27-1.49,2.35-4.48,3.24l-.76-.38h-.86v.38h1.24c-.83.7-1.24,1.24-1.24,1.62h-.38c-.51,0-1.85-.25-4.01-.76,0,.51.8.76,2.38.76l-.76,1.24v.76h.38l2.86-2h.38c.38,0,.76.41,1.15,1.24l-8.39,6.39h-.48v-.38l.86-1.24h-.38l-.86,1.24c.25.51.38.92.38,1.24-.51.06-.76.32-.76.76v.48l.76-.48h.86v.48c0,.51-.29.76-.86.76,0-.25-.13-.38-.38-.38-.83.95-1.24,1.88-1.24,2.77h-.76v-.76l-.76.38h-.48v-.76h-.38c0,.89-.13,1.56-.38,2h1.24v.76c-.32,0-1.27-.54-2.86-1.62,0,.32-.13.73-.38,1.24.95,0,1.62.67,2,2-.26,0-.38.13-.38.38.32,0,1.11.42,2.38,1.24-.95,2.35-1.62,3.69-2,4,0-.38-.41-.76-1.24-1.14,0,1.34-.54,2-1.62,2v.38h.86c0-.25.13-.38.38-.38l.38.76c0,.57-.25.86-.76.86v-.86h-.48c0,1.34-.13,2-.38,2l.38.86-.76,2c.7.83,1.24,1.24,1.62,1.24v.76h-1.24v.86h.86v.76h-1.24c0-1.59-.26-2.38-.76-2.38v2.38h.76v2c0,.57-.41.86-1.24.86v.38h.86c0-.25.13-.38.38-.38v.76c-.51,0-.76.41-.76,1.24h-1.24v-3.24c0-.57.13-1.11.38-1.62-.26-.45-.38-1.11-.38-2h-.38c0,1.53-.16,3.02-.48,4.48h-1.14v-1.62c.63,0,1.01-.54,1.14-1.62h-.38c-.83.32-1.62,1.65-2.38,4-.83,0-1.24.67-1.24,2h-2.38v-3.62c0-.26.13-.38.38-.38l-.38-.86c.25-1.4.38-2.6.38-3.62l-1.24.86.48.76-.48,2.86c.32,0,.48.13.48.38h-.48l.48.86v.38h-.86v-4.48h-.76v.86c-.57,0-1.11-.67-1.62-2h-.48v-.86c.13-.51.41-.76.86-.76v.76h.38v-.76c-.38,0-.8-.41-1.24-1.24,1.08,0,1.62-.67,1.62-2l-.76-.38h-.38v.38c.25.51.38.89.38,1.14h-1.24c0-3.24.95-5.37,2.86-6.39h-.38c-.57.25-.99.38-1.24.38v-.38c.95-5.4,1.75-8.1,2.38-8.1l-.38-.76v-.86c.82,0,1.24.42,1.24,1.24h.38v-.76c-.51-.32-.92-.48-1.24-.48v-.76h.86l-.38-.86h.38c0-.25-.13-.38-.38-.38,1.59-8.2,2.38-13.57,2.38-16.11-.26-.82-.54-1.24-.86-1.24-1.91.76-3.37,1.59-4.39,2.48h-.86c1.4-1.65,2.77-2.48,4.1-2.48v-.38h-1.24l-3.24,2c-.51-.25-.89-.38-1.14-.38.51.89.76,1.69.76,2.38l-2,1.24v-.76h-.38v.76h.38c-.13.89-1.33,2.1-3.62,3.62,0,.64-.95,1.97-2.86,4.01v.86h.86l.76-.38v.38c-.45,1.91-1.4,3.53-2.86,4.86-1.34,3.5-2,5.5-2,6.01h.86v1.62c0,.26-.13.38-.38.38l.38.86c-.26.45-.38.99-.38,1.62h-.48l-.76-.48v.48c1.08,1.4,1.62,2.32,1.62,2.77h-.86v-.76h-.76v1.14c0,.64-.13,1.18-.38,1.62,0,.32.13.48.38.48l-.38,1.53.38,2.48c0,.76-.41,2.77-1.24,6.01h-.76c0-1.46-.67-2.67-2-3.62v.38c.32,1.4.7,2.1,1.14,2.1-.25.45-.38,1.11-.38,2h-.38c-.57,0-.86-.42-.86-1.24h-.38l-.76.38c-.64-1.84-1.3-2.77-2-2.77,0,.26-.16.38-.48.38-.25-.45-.38-1.11-.38-2h-.38c0,.38-.29,1.3-.86,2.76h-.38v-1.62l.38-.76c-.51-.95-.76-2.03-.76-3.24,0-.38.54-.8,1.62-1.24-.26-.44-.38-1.11-.38-2h-1.62l.76,1.24v.38l-.76-.38h-.86l.38.76-.38,2.86h-.38l-.76-.38v.38c-1.27,0-2.23-1.62-2.86-4.86h-.38v-.38h.76v-.38c0-.57-.41-.86-1.24-.86v-2.76c.63,0,1.05-.54,1.24-1.62h.86v-.86c-.64,0-1.59-.51-2.86-1.53v-.48c.25,0,.67-.13,1.24-.38.51.26.89.38,1.14.38v.48h-.76v.76l.76-.38c0,.26.16.38.48.38,0-.7.25-1.37.76-2-1.08-.45-1.62-.86-1.62-1.24.25,0,.38-.13.38-.38h-.38c-.26.51-.38.92-.38,1.24h-.86l.48-.86c0-.7-.29-1.49-.86-2.38,1.08-.25,1.62-1.08,1.62-2.48l-.76-1.15c.19-1.97.57-3.34,1.14-4.1-.26,0-.38-.13-.38-.38.57,0,1.24-2.96,2-8.87.76-2.16,1.3-3.24,1.62-3.24-.26-.51-.38-.89-.38-1.15.82-2.29,1.91-4.2,3.24-5.72h.76l-.38.86v.38h.38l1.24-.76h.38c0,.83.54,1.37,1.62,1.62v1.53c.57,0,.99-.8,1.24-2.38h.38v1.24h.38l1.24-.86c.25.51.38.92.38,1.24l2-.38c1.08,1.53,1.62,2.61,1.62,3.24-.25,0-.38.13-.38.38h.76v-1.24c.25,0,1.34.42,3.24,1.24l-.38.76c.25,0,.38.16.38.48,2.1-1.02,3.85-2.26,5.24-3.72h-.76c-1.65,1.08-2.73,1.62-3.24,1.62v-1.14c.06-.57.32-.86.76-.86,0,.26.16.38.48.38,0-.76.25-1.15.76-1.15v.38c1.08-.25,1.62-.92,1.62-2h.86v.76h.38c0-1.08.25-1.62.76-1.62h.38v.86c1.46-1.34,2.83-2,4.1-2ZM1.74,76.58v.38h.76v-.38h-.76Zm.38-3.62h.76c.57,0,.86-.28.86-.86h-.86c-.51.13-.76.41-.76.86Zm.38,12.49v.76h.38v-.76h-.38Zm.38-15.35v.86h.48v-.86h-.48Zm0,3.62v.86h.48v-.86h-.48Zm.48-4.86v.86c.51,0,.76-.29.76-.86h-.76Zm.38,6.86l-.38,1.62c.51,0,.76-.38.76-1.15v-.48h-.38Zm-.38,8.49v.38h.76v-.38h-.76Zm0,3.24v.76c.51,0,.76-.25.76-.76h-.76Zm.38-12.87v.76h.38v-.76h-.38Zm.38-8.87c.06.51.35.76.86.76v-.76h-.86Zm0,6.39v.86h.38v-.86h-.38Zm.38-8.87v.86h.48v-.86h-.48Zm0,3.62v.86h.48v-.86h-.48Zm.86,13.73l-.38,1.62h.76v-1.62h-.38Zm-.38,7.63v.86c.57,0,1.08.13,1.53.38v-1.24c-.26,0-.38.16-.38.48l-.76-.48h-.38Zm0,2.86v.38h.76v-.38h-.76Zm1.53-17.35c0,1.72-.38,2.67-1.15,2.86l.38.76-.38.86.76.38.86-2-.48-.86c.32-.51.48-.89.48-1.14v-.86h-.48Zm-1.15,9.72v1.15h.38v-1.15h-.38Zm0,1.62v1.14c.63-.51,1.17-.76,1.62-.76v-.38h-1.62Zm0,7.63v.76h.38v-.76h-.38Zm.38,2.38h.76v2h-.76v-.38c0-.25.13-.38.38-.38l-.38-.76v-.48Zm.76,2.86l.48.76v.48h-.48c-.51,0-.76-.28-.76-.86l.76-.38Zm0-24.6h.86v-.86c-.57.13-.86.42-.86.86Zm2.1,9.25l-.48,1.62h-.76v-.76c-.57.07-.86.32-.86.76l2.1.38.38-.76v-1.24h-.38Zm-1.62-11.63v.76h.76v-.76h-.76Zm.76-3.24v.76h.38v-.76h-.38Zm.86,25.36v2.48h.76c-.26-.45-.38-1.27-.38-2.48h-.38Zm.38-41.95v.86h.38v-.86h-.38Zm.38,6.48v.76h.86c0-.51-.28-.76-.86-.76Zm0,26.6v.86h.38v-.86h-.38Zm.38,4.48v2.38l.86-.38c-.26-.45-.38-1.11-.38-2h-.48Zm.48-10.11v1.24h.38v-1.24h-.38Zm0,8.87v.76h.38v-.76h-.38Zm0,4v1.62h.38c0-.57.13-1.11.38-1.62h-.76Zm0,6.87h.38v.86h-.38v-.86Zm.38-21.36v.76h.38v-.76h-.38Zm0,8.1v.76h.38v-.76h-.38Zm.76-5.24l-.38.76v.38c.51-.25.92-.38,1.24-.38,0-.51-.29-.76-.86-.76Zm0-1.24v.38h.86v-.38h-.86Zm.86-1.24v.86h.38v-.86h-.38Zm1.62,5.24v.86h.38v-.86h-.38Zm.38-2.77v.76h.38v-.76h-.38Zm0,15.25v.86h.38v-.86h-.38Zm1.62-21.36v.86h.38v-.86h-.38Zm.38-20.59v.86h.38v-.86h-.38Zm0,43.95v1.62h.38v-1.62h-.38Zm1.24-18.88v1.15h.38v-1.15h-.38Zm.76,4.39l-.38,1.62h.76v-1.62h-.38Zm3.62-12.49v1.24h.38v-1.24h-.38Zm2-8.1l-.38,1.62c.38,0,.8-.38,1.24-1.15l-.86-.48Zm-.38,2.1v.76c.57,0,.86-.25.86-.76h-.86Zm.38-8.87h.86v.38h-.86v-.38Zm.48,4.39v.86h.38c.38,0,.76-.41,1.14-1.24h-.38c-.51.25-.89.38-1.14.38Zm.38-1.62v.38l3.62-2.38v-.38h-.38c-2.04.95-3.12,1.75-3.24,2.38Zm2.77.86c0,.45-.8,1.11-2.38,2v1.14c1.59-1.59,2.67-2.38,3.24-2.38v-.76h-.86Zm-2,4h.86c0-.82.38-1.24,1.15-1.24v-.76c-.32,0-.99.67-2,2Zm2-5.24v.38c.82,0,1.24.41,1.24,1.24h.86c-.45-1.08-.86-1.62-1.24-1.62h-.86Zm1.62-1.62v.86h.48v-.86h-.48Zm.48-4.39v.76c.51,0,.76-.25.76-.76h-.76Zm0,10.87h.76v.38h-.76v-.38Zm.76,29.36h.38v.86h-.38v-.86Zm1.24-39.47v.76h.38v-.76h-.38Zm2,45.19v3.24h-.38l-.86-.48.38-.76v-.38l-.76.38-.38-.86c0-.44.67-.82,2-1.14Zm-1.62-9.34v.48c.06.51.32.76.76.76v-.38c-.26,0-.38-.13-.38-.38h.86v-1.24h-.48c-.51.06-.76.32-.76.76Zm1.62-41.09c.25,0,.38.13.38.38l.86-.38h.38v.76h-2.48c.13-.51.41-.76.86-.76Zm-.86,3.24v.38h.86v-.38h-.86Zm3.62,37.09l-.76,3.62v2h-.38c-.89-.51-1.56-.76-2-.76h-.48v.38c1.65,0,2.48.67,2.48,2h.76c0-.51.13-.76.38-.76l-.38-.86v-1.62l.38-.76.86.38h.38v-1.24h-.76c.06-.51.32-.76.76-.76l-.38-.86.38-.76h-1.24Zm-2.38-6.01c0,.64-.26,1.3-.76,2v.76h.76c0-1.08.29-2,.86-2.77h-.86Zm-.76,7.63v1.24c.51,0,.76-.29.76-.86v-.38h-.76Zm.76-8.49v.38h.86v-.38h-.86Zm.38,10.11v.38h.86v-.38h-.86Zm.48-13.35v.86h.38v-.86h-.38Zm0,5.24v.38h1.14v-.38h-1.14Zm.76,3.62v.86h.38v-.86h-.38Zm.76,11.73c0,1.02-.26,1.81-.76,2.38,1.08,0,1.62.41,1.62,1.24h.38v-.76c-.51,0-.76-.95-.76-2.86h-.48Zm-.38-20.59c.25.51.38.92.38,1.24h.48v-1.24h-.86Zm0,24.21v1.24h.86v-.48c0-.51-.28-.76-.86-.76Zm.38-33.84v.38h.86v-.38h-.86Zm2.86,7.63c0,1.46-.41,2.42-1.24,2.86l.48,2c0,2.16-.7,3.24-2.1,3.24v.38c.45,0,.99.26,1.62.76.7-4.58,1.53-6.87,2.48-6.87.51-.25.89-.38,1.14-.38v-.38c-1.34,0-2-.54-2-1.62h-.38Zm-2.38,18.97l-.48.76v.48h.48c0-.57.25-.86.76-.86v-.38h-.76Zm-.48,2v.38h.86v-.38h-.86Zm.48-11.25v2c.63-.57,1.17-.86,1.62-.86,0-.38-.54-.76-1.62-1.14Zm.38-5.24v.38h.76v-.38h-.76Zm.38-14.11v.76h.38v-.76h-.38Zm.86,30.22c0,.25-.16.63-.48,1.14v.48h.48c0-.32.13-.73.38-1.24v-.38h-.38Zm-.48,2.76v1.62h.48v-1.62h-.48Zm.48-26.22v2.1h.38v-2.1h-.38Zm0,18.97c.06.57.32.86.76.86v-.86h-.76Zm0,3.24v.86h.38v-.86h-.38Zm.76,7.63v.86h-.76c.06-.57.32-.86.76-.86Zm.38-29.36v1.15h.48v-1.15h-.48Zm0,8.87c0,.26.16.38.48.38-.32.51-.48.92-.48,1.24v.38h.48c0-.44.25-.99.76-1.62l-.76-.38h-.48Zm0,5.63v.38h.86v-.38h-.86Zm0,5.63c.13.57.41.86.86.86.51,0,.76-.28.76-.86h-1.62Zm0,2.86v.76h.48v-.76h-.48Zm1.24-17.73c0,.51-.26.76-.76.76.06.57.32.86.76.86,0-.32.13-.73.38-1.24v-.38h-.38Zm-.76,2.38v.38h.76v-.38h-.76Zm.38-14.49v.76h.38v-.76h-.38Zm0,24.98c.06.51.32.76.76.76v-.76h-.76Zm.38-15.35c.06.57.32.86.76.86h.48c0-.57-.28-.86-.86-.86h-.38Zm0,12.49v.86h.38v-.86h-.38Zm0,6.1v.76h.38v-.76h-.38Zm0,7.25h.76v.38h-.76v-.38Zm.38-19.73v.76h.38v-.76h-.38Zm.38-29.84v.76h.86c0-.51-.29-.76-.86-.76Zm0,36.7v.76h.48v-.76h-.48Zm.48,1.15v.86h.38v-.86h-.38Zm.76-10.87v.86h.38v-.86h-.38Zm.38,20.97v.86h.48v-.86h-.48Zm.48-16.49v.76h.38v-.76h-.38Zm.38-5.72v.48h.76v-.48h-.76Zm0,2.1c.25.51.38.89.38,1.14.51,0,.76-.25.76-.76v-1.24c-.76.26-1.15.54-1.15.86Zm.76,6.39v.48h.86v-1.24c-.57.06-.86.32-.86.76Zm.38-4.77v.76h.48v-.76h-.48Zm0,1.15v1.24c.57,0,.86-.28.86-.86l-.86-.38Zm0,16.97h.48v1.24h-.48v-1.24Zm.48-20.97v.38h.76v-.38h-.76Zm.76,18.11h.38c.57.13.86.42.86.86v.76h-.86v.86h.86c0,.38-.41.76-1.24,1.15,0-.57-.13-1.11-.38-1.62.25-.44.38-1.11.38-2Zm0-19.73v1.24h.38v-1.24h-.38Zm.38,6.48l-.38,2v.38h.38v-.76c.57,0,.86.38.86,1.14h.38v-1.14c-.38-1.08-.8-1.62-1.24-1.62Zm0,6.87h.86v.76h-.86v-.76Zm.48-31.08v.38c.06.57.32.86.76.86v-.48c0-.51-.26-.76-.76-.76Zm.38,34.7h.76l-.38,2c-.51,0-.76-.29-.76-.86.25-.51.38-.89.38-1.15Zm0-16.97v.76h.38v-.76h-.38Zm1.24-20.12v2h.76c0-.32.13-.73.38-1.24l-1.14-.76Zm2.38,25.74l.38,1.62c-.38,0-.8.54-1.24,1.62.32.45.48.99.48,1.62-.89,0-1.56.13-2,.38v-1.62h.38l.76.48c.19-2.73.6-4.1,1.24-4.1Zm-.38-2h.76v1.62h-.76v-1.62Zm1.14-3.24h.48v1.24c0,.51-.28.76-.86.76l-.38-.76v-.38c.06-.57.32-.86.76-.86Zm.48-20.97v.48h.76v-.48h-.76Zm0,1.62v.86h.76v-.86h-.76Zm3.15,59.68h.48l-.48-.76c.13-.57.41-.86.86-.86l-.38-.76c.38-1.08.76-1.62,1.14-1.62l-.38-.86c0-1.59.67-2.38,2-2.38v-.38c-.76,0-1.15-.28-1.15-.86l.76-.38-.38-.76v-.48h.76c.82.32,1.24,1.14,1.24,2.48,1.08-.89,1.62-1.43,1.62-1.62.44.25,1.11.38,2,.38v.86h-.76l.38.76-.38,2c-.57,0-.86-.54-.86-1.62h-.38c-2.04,0-3.24.54-3.62,1.62h.38l-.76,1.62h.38l-1.24,2v.86l.38.76m-2.77-60.82l-.38.76h1.14c0-.51-.26-.76-.76-.76Zm-.38,12.87h.38c.51-.25.89-.38,1.15-.38v-.86h-.38c-.38,0-.76.41-1.14,1.24Zm0,5.24h.76v.38h-.76v-.38Zm.76-14.97h.38l2-.38c0,.26.16.38.48.38,0-1.01,1.05-1.81,3.15-2.38v-.76h-.76c-3.5,1.84-5.24,2.89-5.24,3.14Zm0,7.25v.48h.76v-.48h-.76Zm1.62-10.01v.76h.38v-.76h-.38Zm0,7.25v.38h1.24v-.38h-1.24Zm.38-1.24v.38h1.62v-.38h-1.62Zm1.24,58.44h.38v.86h-.38v-.86Zm2-20.5h.38c.57.06.86.32.86.76-.57.13-.86.41-.86.86v.38h.86v.38c-1.02,1.65-1.69,2.48-2,2.48l.38.76v.38h-.38c-.57,0-.86-.26-.86-.76.57-1.15,1.11-2.89,1.62-5.24Zm-1.62,8.01v.48h1.24v-.48h-1.24Zm.38,9.34c.57.06.86.32.86.76,0,.38-.41.79-1.24,1.24v-.38c.25-.51.38-1.05.38-1.62Zm0-56.54v.48h.48c.51-.32.89-.48,1.14-.48v-.38h-.38c-.51.25-.92.38-1.24.38Zm0,1.24v.38h.86v-.38h-.86Zm.48,7.72h.76c0,.51-.26.76-.76.76v-.76Zm0,45.95h.76v1.14h-.76v-1.14Zm.38-62.54v.86c.51,0,.76-.28.76-.86h-.76Zm0,14.97h.76v.38h-.76v-.38Zm1.62,25.36c.25,0,.79.54,1.62,1.62l.76-.38,1.24.76v-.76c-.25-.51-.38-.92-.38-1.24.44.26,1.11.38,2,.38v.86h-.86l.38.76v.38c-.76,0-1.15.29-1.15.86h1.15v1.24h-1.15c-.57,0-.86-.28-.86-.86.32,0,.48-.13.48-.38-.32,0-.48-.13-.48-.38.32,0,.48-.16.48-.48h-1.24l.38.86v.38l-.76-.38h-.86c-.51.06-.76.32-.76.76v1.24h-1.24c.82-2.86,1.24-4.61,1.24-5.24Zm0,17.35h.76l.38,1.62h-.38l-.76-.38c0,1.08-.29,1.62-.86,1.62l-.38-.86v-.38c.82,0,1.24-.54,1.24-1.62Zm-1.24,11.25h.38c.38,0,.79.41,1.24,1.24m.76-6.01h.86l-1.24,1.62v.76l1.62-1.24v.48c-.19,1.02-.45,1.53-.76,1.53l-.86-.38c-.51.25-.92.38-1.24.38.57-2.1,1.11-3.15,1.62-3.15Zm-.38-52.05h.38c0,.51-.26.76-.76.76h-.38c.06-.51.32-.76.76-.76Zm2,35.08h.48v1.62h-3.24v-1.24l2,.38c.06-.51.32-.76.76-.76Zm-2.38-5.24v.76h.38v-.76h-.38Zm.76,9.73h.86c0,.51-.29.76-.86.76v-.76Zm.48-40.33h.38v.76h-.38v-.76Zm0,28.98h.38v.86h-.38v-.86Zm0,8.87h.38c.38,0,.79.54,1.24,1.62h-.48c-.38,0-.76-.41-1.15-1.24v-.38Zm0,11.73h.76v.76h-.76v-.76Zm.38-25.84v1.62c.51,0,.76-.25.76-.76,0-.57-.26-.86-.76-.86Zm5.24,18.11h.38v1.62l-.38.86c.25.51.38.92.38,1.24l-.76-.48c0,.82-.16,1.24-.48,1.24l.48.76c-.83.89-1.24,1.59-1.24,2.1h-.38c0-.32-.16-.73-.48-1.24.57,0,.86-.29.86-.86h-.38l-2,3.24-.48-.76.86-1.24-.86-.38v.76h-.76v-.38c.25-.51.38-.92.38-1.24h.38l.86.48c0-.83.54-1.49,1.62-2,.06.51.32.76.76.76,0-.32.41-1.81,1.24-4.48Zm-5.24,16.59c.25-.51.38-.92.38-1.24m1.24-30.22c1.08.26,1.62.92,1.62,2h-.48c-.45-.25-.95-.38-1.53-.38,0,.26-.16.38-.48.38l-.38-.76c0-.38.41-.79,1.24-1.24Zm-.86-32.22v.38h1.24v-.38h-1.24Zm.48,22.98l-.48,1.62h.86v-1.62h-.38Zm-.48,16.49h.86v1.24h-.86v-1.24Zm1.24,8.87c0,.25.13.38.38.38-.26,1.91-.64,2.86-1.14,2.86h-.48c0-.76.28-1.56.86-2.38-.25,0-.38-.16-.38-.48l.76-.38Zm.38,6.86h.86v.76c-.83,3.49-1.65,5.24-2.48,5.24v-.38c1.08-2.42,1.62-4.29,1.62-5.63Zm-1.14-27.84v.38h2c0-.51-.29-.76-.86-.76-.51.26-.89.38-1.14.38Zm1.53-7.25c0,1.08-.38,1.62-1.15,1.62v.76l.76-.38c0,.25.13.38.38.38,0-.89.16-1.56.48-2v-.38h-.48Zm-.76-1.24v1.24h.38v-1.24h-.38Zm0,10.96v.38h.76v-.38h-.76Zm.76,14.11h.86v.38c0,.51-.29.76-.86.76v-1.15Zm.48-28.22v.76h.76c0-.51-.25-.76-.76-.76Zm0,25.74h.76v1.24h-.76v-1.24Zm.76,19.35h.86m-1.24-43.09v.76h.38v-.76h-.38Zm.38,19.74h.86v.38l-.48,2h-.38c0-.26-.13-.64-.38-1.15.25-.57.38-.98.38-1.24Zm1.62-2.38v.76c0,.51-.26.76-.76.76h-.48v-.38c0-.38.41-.76,1.24-1.14Zm-.76,23.36h.76v.76h-.76v-.76Zm.38-47.19v.76h.38v-.76h-.38Zm.76,20.59h.48l-.48,2h-.76v-.38l.38-.86c-.26,0-.38-.13-.38-.38l.76-.38Zm1.24-4.1v.86l-.38,2h-.38c-.57,0-.86-.25-.86-.76l.86-.48-.48-.76v-.38c.32,0,.73-.16,1.24-.48Zm-.76,14.59h.76c0,.44-.26,1.24-.76,2.38.25.51.38.92.38,1.24-.51-.26-.92-.38-1.24-.38.57-2.04.86-3.12.86-3.24Zm-.86,4h.38v.76h-.38v-.76Zm.86,9.25v1.24h-.86v-.38c.06-.57.35-.86.86-.86Zm-.48-39.85v.76h.86v-.76h-.86Zm0,22.12c.57.06.86.35.86.86v.38h-.86v-1.24Zm0,16.59h.48v.76h-.48v-.76Zm4.1-6.1h.38v.86c-.26.83-.38,1.75-.38,2.77h.76v.86l-2-.86c0,.7-.13,1.78-.38,3.24h-.48c0-1.08-.38-1.62-1.15-1.62v-1.62c.06-.51.32-.76.76-.76.25.51.38.89.38,1.14h.48c0-1.4.54-2.73,1.62-4Zm-2.86-29.46h1.24v3.24h-1.24l.38-2c-.26-.51-.38-.92-.38-1.24Zm.38,17.73h.86c-.26,2.48-.67,3.72-1.24,3.72v-.86l.38-2.86Zm0-26.12h.86v-.86c-.57.07-.86.35-.86.86Zm1.24,17.73v1.62h-.86v-.86c.13-.51.41-.76.86-.76Zm-.86,6.87h.86v.76h-.86v-.76Zm2.1,9.63h.76v.38c-.51,1.91-1.3,2.86-2.38,2.86v-.86c1.08-1.21,1.62-2,1.62-2.38Zm0-22.21c0,.32-.16.73-.48,1.24h.86v-1.24h-.38Zm-.48,14.59h.86c0,.45.25,1.24.76,2.38-.51,1.4-.76,2.48-.76,3.24h-.86c.32-2.42.6-3.91.86-4.48-.57,0-.86-.25-.86-.76v-.38Zm.48-25.45v.86h.38v-.86h-.38Zm.38-3.62v.86h.38v-.86h-.38Zm1.14,3.62c-.51,2.42-.76,4.16-.76,5.24v2l-.38.86h.76c0-.63.28-3.21.86-7.72v-.38h-.48Zm-1.14,8.48v.86h.76c0-.57-.26-.86-.76-.86Zm.76,22.21h.38v.38c-.51.63-.76,1.17-.76,1.62h-.38v-1.24c.06-.51.32-.76.76-.76Zm.38-10.11h.86v.38l-.38,2.86h-.86v-.38l.38-2.86Zm.48-22.6c0,.64-.16,1.18-.48,1.62h.86v-1.62h-.38Zm0-1.24c.06.57.32.86.76.86v-1.62c-.51.07-.76.32-.76.76Zm.38-2.38v.38h.76v-.38h-.76Zm0,22.98h.76v.86h-.76v-.86Zm1.24-2.77v1.15h.76c-.25-.51-.38-.89-.38-1.15h-.38Zm2-6.86c.51.06.76.32.76.76,0,.57-.26.86-.76.86v-1.62Zm1.62,4h.76v2.86h-.76v-1.24c0-.25.13-.38.38-.38l-.38-.86v-.38Z"/><path class="d" d="m106.04,40.54c.45,1.59,1.15,2.61,2.1,3.05.06-1.08.41-1.62,1.05-1.62h.38l-.67,1.91c.51,0,.76.38.76,1.14l1.14-.86h1.15v.38l-1.05,1.91v.38h.76c.06-1.27.41-1.94,1.05-2h.38l.09.38-.38.76h.38c.45-.25.95-.41,1.53-.48,0,.38-.54,2.32-1.62,5.82.51,1.14.79,2.29.86,3.43h-.38l.48.76-2.1,5.43.76.29v.57c0,1.14-.32,1.75-.95,1.81l.38.76v.86c0,.19-.09.29-.29.29l.38.76v.29c0,1.08-.35,1.62-1.05,1.62l.38.76.09.76c0,.51-.26.76-.76.76,0-.19-.09-.28-.28-.28h-.09c0,.45-.22,1.08-.67,1.91h.38l.76-.48v.76c-.51,3.88-.92,5.82-1.24,5.82l.38.76-.67,1.14h.76l-.38.76c0,.26.13.38.38.38-.38.89-.57,1.69-.57,2.38v.28h.38l-.38.76.19,4.58h-.38c-.51,0-.8-.86-.86-2.58h-.38l.19,3.81.76-.38.38-.09v.38l.57,3.81-.86-.38.09.38c.06.57.86,1.43,2.38,2.57.57,1.27.86,2.16.86,2.67-.45,0-.67.19-.67.57v.19c-1.85-.07-2.77-.26-2.77-.57l-.76.38c-1.78-1.14-3.14-1.71-4.1-1.71h-.1c0,.51-.25.76-.76.76h-.38c-1.02,0-1.53-.22-1.53-.67-1.02.26-1.53.54-1.53.86-.38,0-1.56-.95-3.53-2.86l-.76.38h-.38c-.07-.51-.92-1.97-2.58-4.39l.38-2h-.09c-.7,0-1.11-.86-1.24-2.57l-.09-1.53.29-2.29-.38-.76.29-2.29-.1-1.91h.76v-.76h-.76l-.09-1.15h.76v.76l.38-.09v-1.53l-.76.1c.44-.7.95-3.27,1.53-7.72,3.43-17.99,6.71-27.04,9.82-27.17l.76.29,1.81-1.24Zm-12.87,51v.38h.76v-.38h-.76Zm2.86,3.34v.76h.38v-.76h-.38Zm7.91-25.17l.76-.1v-.76c-.51.13-.76.41-.76.86Zm2.29-8.49l.09.76.38-.09-.1-.76-.38.09Zm.38-.86h.38l.29-1.91c-.45,0-.67.32-.67.95v.95Zm.57-3.05l.09.76h.38l-.1-.76h-.38Zm1.33-4.29v.19c0,.64-.32,1.62-.95,2.96v.38h.38l1.05-3.15-.09-.38h-.38ZM114.91.5l2.19,2.19.1-.48h.57c3.81,2.73,5.72,5.24,5.72,7.53,0,.19-.03.38-.09.57.13.06.19.29.19.67v.48l-.09.29c-1.46,4.13-2.23,6.48-2.29,7.06.13,0,.19.06.19.19v.1c-.38,0-.57.16-.57.48.06.25.09.48.09.67v.19c-.45,0-1.27,2.07-2.48,6.2-.63.76-1.59,1.46-2.86,2.1v-.19c0-.25-.16-.38-.48-.38-.13.83-.32,1.24-.57,1.24h-.38c-.45-.06-.67-.48-.67-1.24v-.29l-.57.19v-2.48l-.48-.09.19.57-.29,1.72c0,.32-.13.48-.38.48h-.19l-.28-.09c-.45,0-.76-1.05-.95-3.15l-.57-.38-.09,1.05h-.28c-.57-.13-.86-.73-.86-1.81,0-.38.03-.83.09-1.34l-.57.19-.38-.95c0-.13.06-.19.19-.19h.1l-.19-.67.38-2.96.09-2.86.57.09.19-1.43.28.1-.09-1.43c.89-3.56,1.59-5.34,2.1-5.34l-.19-.57v-.29h.57l.19-1.62c.06-.19.19-.29.38-.29,0-.13-.1-.22-.29-.29.76-2.29,1.3-3.43,1.62-3.43l.48.38c.13-.32.32-.48.57-.48h.09Zm-6.48,81.61v1.14h.38v-1.14h-.38Zm1.43-32.89l.09.38.76-.09-.09-1.14c-.51.13-.76.41-.76.86Zm0,23.26v1.15h.38v-1.15h-.38Zm.57-49.19l-.09.48.57.1.1-.57h-.57Zm.19-1.72c.13.38.19.67.19.86l.29.09.09-.86-.57-.1Zm0,25.64v.76h.38v-.76h-.38Zm.09-26.22v.29l.57.09v-.29l-.57-.09Zm.09,23.55l.09.76h.38l-.09-.76h-.38Zm1.24,9.53l.76-.09-.09-.76c-.45.13-.67.41-.67.86Zm1.34-3.15h.38l.1.76h-.38l-.09-.76Zm.67-1.91l.38-.09.09.76-.38.09-.09-.76Z"/><path class="d" d="m150.56,41.88l4.58,3.34-.38.86v.38c.76,0,1.46,1.24,2.1,3.72.95,0,1.49.99,1.62,2.96-.51.06-.76.35-.76.86l1.62.76-.38.86.86,1.24v1.71c-1.78,1.08-3.75,1.62-5.91,1.62h-2.86c-.32,0-.48-.13-.48-.38-1.15.57-5.31,1.53-12.49,2.86,9.28,4.96,16.24,8.87,20.88,11.73,5.15,5.02,7.91,8.77,8.3,11.25.44,0,1.43,2.23,2.96,6.67h-.48c.32.51.48.92.48,1.24-.32.83-.61,1.24-.86,1.24l.38,2.1v.76c0,1.27-.67,2.54-2,3.81h-1.34v.38h-1.24v-.86h-.76l.38.86v.38c0,.57-.29.86-.86.86h-.86l-.76-.38c0,1.27-1.81,2.38-5.43,3.34,3.05-2.54,4.58-4.36,4.58-5.44l-1.62,1.24h-.86v-1.24c.63,0,1.88-.7,3.72-2.1v-.38h-.38l-2.96,1.62h-.38v-.86h-.48c0,.89-.41,1.34-1.24,1.34,0-.32-.13-.48-.38-.48l-.38.86c.25,0,.67.13,1.24.38,0-.26.13-.38.38-.38v.38c0,1.15-1.24,1.72-3.72,1.72v.38h1.24v.86c-2.67,1.4-4.48,2.1-5.43,2.1v-.48h-.86v.86h-.38v-1.24c.57,0,.86-.29.86-.86h-.48c0,.45-.54,1.02-1.62,1.72v-.86h-.48v.38c.57.95.86,1.65.86,2.1h-.86l-.76-.38v.86h-.48v-1.34c.57,0,.86-.25.86-.76v-.48h-.38c-1.4.95-2.1,1.65-2.1,2.1l-.86-.38c-.26.51-.38.92-.38,1.24h-.48v-.86h-.76c0,.82-.57,1.53-1.72,2.1l-2.48-.38c-.19,1.08-.48,1.62-.86,1.62h-1.24c0,.25-.13.38-.38.38l-2.96-.38c-1.08.45-1.62.86-1.62,1.24h.86v.48l-1.34,1.62-.76-.38-1.24.76h-.86v-.38l.86-1.24v-.86h-.48l-1.62,1.24-.86-.38c0,.57-.29.86-.86.86l-1.62-.48c-.89.57-1.59.86-2.1.86l.86,1.24c.82,0,1.24-.42,1.24-1.24h.38c.32,0,.48.13.48.38l.76-.38c.32,0,.48.13.48.38l.76-.38.86.38c0-.26.13-.38.38-.38l.48.86c-.38,0-.95.7-1.72,2.1h-.38v-.86h-1.62l-2.1.38c-.83-.89-1.24-1.71-1.24-2.48h-.48c0,.32-.13.73-.38,1.24h.86v.48c0,.51-.57.76-1.71.76v.48c.06.51.35.76.86.76.07-.51.35-.76.86-.76.51.25.92.38,1.24.38v.86c-.32,0-.73.13-1.24.38l-.86-.38c-1.4.32-2.1.73-2.1,1.24h.38c.57-.32.99-.48,1.24-.48v.48c1.84-.83,4.07-1.24,6.67-1.24l-.76,1.24.76.38c.76-1.65,1.34-2.48,1.72-2.48l.38.86c-.57.06-.86.32-.86.76h.86l.86-.38c.51.25.92.38,1.24.38v.86l-2.1.48v-.48l-2.86,1.24-.48-.76-4.1,1.62v.38h.76v.86l-2.1.48-2.48-.48c-.25,0-.38.16-.38.48l-2.1-.48h-2.1v-.38l.48-.86c-1.4,0-2.1-.29-2.1-.86.26,0,.38-.13.38-.38l.86.38c.57,0,.86-.26.86-.76v-.86l-1.72-.48-.38.86c-1.14-.25-1.71-.8-1.71-1.62l-.76.38h-.48c0-.57-.54-.86-1.62-.86.06-.51.32-.76.76-.76,0,.25.16.38.48.38l.38-.86c0-.38-1.24-1.33-3.72-2.86-.32-.57-.48-.99-.48-1.24l.48-.86v-.48h-.48v.86h-.76v-.86l.38-.76c-.38,0-.79-.41-1.24-1.24l.38-.86c2.48.25,4,.67,4.58,1.24h3.81l2.48-.38.86.38,17.07-4.96h1.24c0-.38,4.45-2.48,13.35-6.29,6.23-3.43,10.93-7.18,14.11-11.25v-.38c-2.16-1.34-4.64-2.61-7.44-3.81l-.86.48c-12.71-5.09-20.34-9.25-22.88-12.49.25,0,.38-.16.38-.48-1.59,0-2.7-1.24-3.34-3.72-.83,0-1.37-1.53-1.62-4.58-1.14-1.21-1.71-2.45-1.71-3.72v-.48h.86v-1.24c-.89-.76-1.59-2.29-2.1-4.58.25-1.08.79-1.62,1.62-1.62-.25-.57-.38-.99-.38-1.24l.38-.86c-.25-.57-.38-.99-.38-1.24l.86.38c0-1.08,1.53-1.62,4.58-1.62v.76h.38c.57,0,.86-.25.86-.76-.83,0-1.24-.29-1.24-.86,1.59-.25,2.99-.38,4.2-.38.06.51.32.76.76.76v-.38l-.38-.86c.7,0,1.4-.29,2.1-.86h.38c.25,0,.38.16.38.48l6.29-1.24v.38c.95-.51,4.13-.92,9.53-1.24Zm-45.76,72.07v.38h.86v-.38h-.86Zm1.62-2.57h1.34v-.76h-.48c-.57.06-.86.32-.86.76Zm.48,2.57v.38h.86v-.38h-.86Zm1.24-2.96v.86c1.4,0,2.1.29,2.1.86h.76c0-.89.45-1.34,1.34-1.34v-.38c-1.97,0-2.96-.13-2.96-.38-.51.25-.92.38-1.24.38Zm.86,1.24l-.48,1.71h1.24l-.38-.86c.26,0,.38-.13.38-.38l-.76-.48Zm-.48,4.2v.86h.48v-.86h-.48Zm.48-1.24v.38h.76v-.38h-.76Zm1.24,1.24v.86h.76c0-.57-.25-.86-.76-.86Zm.76-1.24v.86c1.14,0,1.71.25,1.71.76h.86l.76-.38c-.25-.57-.38-.99-.38-1.24l-2.1.38-.86-.38Zm6.29,2.1h-1.24l-5.05.38v.38c1.71,0,2.57.41,2.57,1.24,3.05-.95,4.58-1.62,4.58-2v-.48l-.86.48Zm-5.82-4.58v.38h1.24v-.38h-1.24Zm.86-2.58v.48h.76v-.48h-.76Zm.38.86v.86h.38v-.86h-.38Zm.38,8.77v.86h.48v-.86h-.48Zm1.24-9.15c0,1.15-.13,2.26-.38,3.34h.38c1.4,0,2.1-.41,2.1-1.24h.48v1.24c2.23-.95,3.34-1.65,3.34-2.1-.57,0-.86-.16-.86-.48l-.86.48h-2.1v-.48h.86v-.38h-1.24c0,.25-.13.38-.38.38l.38.86c0,.57-.28.86-.86.86,0-.19-.13-1.02-.38-2.48h-.48Zm-.38,10.01v.38c.32,0,.73.13,1.24.38h.48v-.38c-.32,0-.76-.13-1.34-.38h-.38Zm.38,3.72h.48v.86h-.48v-.86Zm1.34-14.21v.48h.76v-.48h-.76Zm.38,4.58v.48c.26.51.38.92.38,1.24h.48v-1.72h-.86Zm.38,10.01h1.24v.86h-.38c-.57,0-.86-.29-.86-.86Zm.48-14.97v.86h.38v-.86h-.38Zm.38,5.82h.86v-.86c-.57.13-.86.41-.86.86Zm2.96-7.06c0,.57-.57.86-1.71.86v.76c.19,0,1.02.16,2.48.48,0-.57-.26-.86-.76-.86l.38-.86v-.38h-.38Zm-1.71,6.67v.86h.38v-.86h-.38Zm2.1-2.48v.76h.38v-.76h-.38Zm5.43-4.58v.76h-.48c-.25,0-.38-.13-.38-.38-1.97.38-2.96.79-2.96,1.24v.38l2.58-.76.38.76v.48c-.57,0-.86.13-.86.38-.26,0-.38-.13-.38-.38l-2.48.38.38.86,1.71-.86.38.86c-.45.25-1.27.38-2.48.38v.86l6.2-1.24v-.86l-2.1.38v-.76h1.24v-.48h-.76c0-.57.13-1.11.38-1.62v-.38h-.38Zm-4.58.38v.86h.38v-.86h-.38Zm.38-55.39v.86h.86v-.86h-.86Zm0,69.12h2.1v.38l-2.1.48v-.86Zm.86-2.96v.48h.86v-.48h-.86Zm.38-3.24h.86v-.86c-.57.06-.86.35-.86.86Zm.48-8.39v.48h.76v-.48h-.76Zm.76,7.53v.86c.51-.32,1.08-.48,1.71-.48v-.38h-1.71Zm1.71-8.39v.48h.76v-.48h-.76Zm26.22-7.05l-.86-.38c-1.08,1.01-3.31,2.25-6.67,3.72.32.57.48.98.48,1.24h-.48l-2.1-.86c-.51,1.15-1.34,1.72-2.48,1.72l.48.86-.86.38h-.38v-.86h-.48c0,1.14-1.94,2.25-5.82,3.34-1.4,0-2.1-.26-2.1-.76-.51.25-.92.38-1.24.38h-.38v-.38c1.91-.7,2.86-1.27,2.86-1.71l-4.58,1.24v.48l.86,1.24c-.26,0-.38.13-.38.38l.76.38v-.76h.48c.25,0,.38.13.38.38l.86-.38c1.4.06,2.1.32,2.1.76,1.59,0,4.07-.95,7.44-2.86,0,.25.16.38.48.38,0-.45.95-.99,2.86-1.62.57.25.99.38,1.24.38l-.38-.86c1.46-.51,2.7-1.21,3.72-2.1,0,.32.16.48.48.48,0-.38,2.48-1.91,7.44-4.58.76-1.4,1.34-2.1,1.72-2.1,0,.26.13.38.38.38l.38-.76-.76-.48h-.48c-3.31.57-4.96,1.68-4.96,3.34Zm-24.12,11.63h.76c.57,0,.86-.26.86-.76v-.48c-1.08.45-1.62.86-1.62,1.24Zm.76.86v.48h.86v-.48h-.86Zm.86,2.96c.57.06.86.35.86.86h-.86v-.86Zm0,3.72h1.24v.38h-1.24v-.38Zm.38-13.35v.48h.86v-.48h-.86Zm0,4.58v.86h.48v-.86h-.48Zm2.57-4.1v.38h1.24l.38-.86h-.38c-.57.32-.99.48-1.24.48Zm1.62-2.1v.38h2.1v-.86l-2.1.48Zm5.43,6.67v.38c0,.63-.99,1.05-2.96,1.24.44-1.08,1.43-1.62,2.96-1.62Zm-2.48-7.15v1.34h.38c.57,0,.86-.28.86-.86-.32,0-.73-.16-1.24-.48Zm2.86-.38v.86h.48c.51,0,.76-.28.76-.86v-.38c-.51.25-.92.38-1.24.38Zm.48,7.05h1.24c0,.57-.29.86-.86.86h-.38v-.86Zm1.24-.38h.76v.38h-.76v-.38Zm1.62-9.53c.13.51.41.76.86.76l-.38.86v.38h.76v-2h-1.24Zm.86,8.29h.86c0,.57-.29.86-.86.86v-.86Zm2.48.86h.38c1.4.63,2.1,1.05,2.1,1.24l2.58-1.24c1.91,0,2.86.25,2.86.76-.26.57-.38.99-.38,1.24l-.86-.38c0,.25-.13.38-.38.38l-.48-1.62c-.76.63-2.13,1.17-4.1,1.62v.48h1.24c.51-.32.92-.48,1.24-.48v.86l-1.72.48c0-.32-.13-.48-.38-.48,0,1.65-.41,2.48-1.24,2.48v-.38c.25-.51.38-1.05.38-1.62l-1.24.76h-1.24v.48h-.38l-.86-.48c.25-.45.38-.99.38-1.62l1.24.86c.57-.32.99-.48,1.24-.48v-.38l-.38-.86c.57,0,.86-.28.86-.86h-.86v-.76Zm-1.24-9.15l-.38.76.76.48.48-.86-.86-.38Zm1.24-.48v1.24h.38v-1.24h-.38Zm2.1,8.39h.38c0,.51-.26.76-.76.76h-.48c.13-.51.41-.76.86-.76Zm1.62-4.67v.48h1.34l.38-.86h-.38c-.57.25-1.02.38-1.34.38Zm0,1.34v.38h.86v-.38h-.86Zm1.71-.86v.86h.38v-.86h-.38Zm.86,4.58h.76v.38h-.76v-.38Zm.38-5.43v.86h.38v-.86h-.38Zm.38,5.05h.86v.38h-.86v-.38Zm1.24-7.15v.48h1.34v-.48h-1.34Zm.86,8.39h.48c0,.51-.28.76-.86.76h-.48c.13-.51.41-.76.86-.76Zm1.24-5.91h.48c0,.57-.29.86-.86.86h-.38c.06-.57.32-.86.76-.86Zm-.38,5.05h.86v.38h-.86v-.38Zm1.62-12.97v.48h.86v-.48h-.86Zm.48-1.24v.48h.86v-.48h-.86Zm1.24.48v.76h.38v-.76h-.38Zm1.62,5.44v.38h.48c.57-.13,1.11-.83,1.62-2.1h-.38c-.45,0-1.02.57-1.72,1.72Zm.86,3.72h.86v.86h-.86v-.86Zm2.1-5.43v.86h.38v-.86h-.38Zm1.24,4.2h.38v.76h-.38v-.76Z"/><path class="d" d="m198.42,11.56h.38v.38l-.86,1.14-.09.38,1.14.1c.32-1.21.73-1.81,1.24-1.81h.09v.38l-.57,1.81.76.1c.06-.57.25-1.05.57-1.43.44.25.79.41,1.05.48-.07.45-.29.67-.67.67h-.19c.32,1.08.67,1.62,1.05,1.62.25-.95.54-1.43.86-1.43.51.32.89.48,1.14.48l-.09.76-.86,1.05-.09,1.14,1.62-.95.67.48.09-.76,1.15.1.76.48c0-.25.13-.38.38-.38l-.19,2.29h.38c.06-.7.32-1.05.76-1.05h.09l.29.76c-.57,0-1.02.6-1.34,1.81h.09c.45,0,.73-.48.86-1.43h.38l.67.48c-.89,1.34-1.37,2.32-1.43,2.96.45.13.67.38.67.76v.09c-1.02.26-1.56.57-1.62.95l.29.76c-1.65,4.45-2.64,6.67-2.96,6.67v.38c1.4.45,2.38.92,2.96,1.43.13-.44.35-.67.67-.67h.09l1.15.86c.06-.63,1.36-1.02,3.91-1.14,0-.25.13-.38.38-.38,0,.26.13.38.38.38,0-.19.09-.29.28-.29h.09c0,.25.13.38.38.38.13-.44.38-.67.76-.67h.09l1.53.19-.09.76h.38l1.24-.67v.09c0,.19.1.32.29.38.13-1.34,1.11-2,2.96-2,.32,0,.67.03,1.05.1.06-.19.35-.29.86-.29h.38c.76.06,2.57,1.02,5.43,2.86,1.02.06,2.8,1.49,5.34,4.29l.76.09-.09.38-.57,1.91c1.01.06,1.53.35,1.53.86-.38.13-.8.19-1.24.19h-.38l-.1,1.53.76.1c-.06.38-.64.73-1.72,1.05l.1-.76-.38-.09-2.48,1.72-.38-.1.48-.67.09-.38c-1.34.83-2.13,1.24-2.38,1.24h-.09l.09-.76.48-.67-.38-.09c-.26,0-1.21.57-2.86,1.72-.45-.06-.67-.41-.67-1.05v-.19l-1.91.19v-.38l-.76.29h-.38l-1.81-1.33c-.32.13-.7.19-1.15.19h-.38c-.06-1.02-.41-1.56-1.05-1.62l.48-.67v-.1c0-.38-.35-.79-1.05-1.24v.38l.29.86h-.1c-.38,0-.89.32-1.53.95-.19,0-.28-.09-.28-.29v-.09c-3.69.64-5.82,1.3-6.39,2v-.19c0-.38-.22-.57-.67-.57-.07.45-.19.67-.38.67h-.09c-.45-.32-.8-.48-1.05-.48-.45.89-1.08,1.33-1.91,1.33h-.19l.29.76c-2.04.32-3.12,1.11-3.24,2.38-.26,0-.41.38-.48,1.14l-.38-.09v-.76h-.38c-.51,0-.76.22-.76.67h.38c-.7,1.46-1.27,2.19-1.72,2.19h-.09v-.09c0-.19-.09-.32-.29-.38l-1.24,4.86,1.43.57c-.57.95-.89,1.69-.95,2.19l.19,1.91c-.32,1.46-.64,2.19-.95,2.19v.09c0,.19.09.32.29.38-.13,1.72-.54,2.57-1.24,2.57h-.09l-.09.29c.7.13,1.05.41,1.05.86v.09h-.09c-.19,0-.29.09-.29.29l1.14.09-.19,1.53h-.76l.19-1.14-.38-.1c-.13.76-.35,1.65-.67,2.67h.38l-.48.76-.09.76,1.15.09v.38l-1.91.19-.1.76c.25,0,.38-.13.38-.38.95.51,1.43.92,1.43,1.24v.09l-.38-.09-.76-.48-.09,1.53.38.09.76-.28v.38l-1.34,1.33-.19,2.29.38.09c.13-1.21.41-1.81.86-1.81h.1l-.1.67-.48.76c.25,0,.38.13.38.38-.26,0-.41.13-.48.38.25,0,.38.13.38.38-.51.06-.8.32-.86.76v.38h.38l.09-.76c.45.13.67.38.67.76v.1h-.1c-.32,0-.73.57-1.24,1.71l.19,6.2c-.51,0-.8.22-.86.67.25,0,.38.13.38.38h-.09c-.7,0-1.14.73-1.34,2.19l.76.09-.09,1.15-.76-.48v.38c0,.51.22.8.67.86l-.48.67v.76c.57.07,1.15.64,1.72,1.72l-.48.76c0,.32.41,1.24,1.24,2.77v.38l-1.53.29c0-.26-.13-.41-.38-.48l-.86,1.05-.76-.38c-.38.13-.7.19-.95.19h-.19l-.29-.76.48-.67-.76-.48v.38c.19,0,.28.09.28.29v.09l-1.62,1.05c-.57-.57-1.05-.89-1.43-.95l.09-1.14.76.09v-.09c0-.57-.86-2.03-2.58-4.39h.19c.38,0,.57-.22.57-.67l.09-.38h-.09c-.45,0-.7.35-.76,1.05-.38-.06-.83-.89-1.34-2.48l.1-1.05.76.38c-.76-4.13-1.14-7.56-1.14-10.3,0-.89.03-1.68.09-2.38l-.76-.09v4.2l-.76-.09-.09.38c1.14,1.84,1.71,3.72,1.71,5.62,0,.32-.03.67-.09,1.05v.38h-.38v-.09c0-.63-.92-1.59-2.77-2.86l.48-.76-1.14-.1v-.38c.13,0,.63-.06,1.53-.19l.09-.38v-.19c0-.38-.22-.6-.67-.67,0-.25.13-.38.38-.38-.07-.38-.09-.89-.09-1.53s.03-1.4.09-2.29h.09c.19,0,.44-.35.76-1.05l-1.15-.1.29-2.29c0-.51-.26-.8-.76-.86.38-1.08,1.4-2.13,3.05-3.15h.38l-.09.76.38.09.19-2.29-2.38,1.34-.67-1.24.76-.28c0,.26.13.38.38.38.06-.38.38-.86.95-1.43l-.38-.1-.86.38c-.38-.89-.57-1.56-.57-2l.57-1.91h-.38c.82-2.22,1.34-3.34,1.53-3.34l-.19-2.29c.13-1.08.48-2.19,1.05-3.34-.19,0-.29-.09-.29-.28v-.1h.76c.44.32.79.51,1.05.57l-.28-.86.86-.29-.38-.76.09-.38.48-.76-.76-.48-.48.76.19,1.91-1.53-.09.1-.38c.06-.76.41-1.75,1.05-2.96-.26-.06-.38-.22-.38-.48l2-.57v-.38c-.7-.06-1.05-.41-1.05-1.05v-.19c-1.53.13-2.32.45-2.38.95v.38l.29.76-.76.29h-.38l.09-1.14-1.24.67c.19.38.28.7.28.95v.19l.38.1.09-.76c.38.26.99.41,1.81.48v.76h-.38l-.76-.48-.09,1.14.76.09-.09.38c-.06,1.27-.64,1.97-1.72,2.1v-.09c0-.19-.09-.28-.28-.28l.38-.76.19-1.14h-.76l-.19,1.53-1.14-.19c0-.19.09-.28.28-.28h.09l-.28-.86.19-1.43.86-1.14h-.76l.86-1.15.09-1.14-.28-.76c-.45.19-1.97.29-4.58.29l-.38-.76-1.91.19-.76-.1-5.15-1.62c-.06.19-.19.29-.38.29h-.09l.09-.38.86-1.05c-1.02-.06-1.53-.22-1.53-.48l-.76.29h-.38c.38-1.08.61-1.97.67-2.67l-1.34-2.38c.38-.19.7-.29.95-.29h.19l-.28-.86c1.91-.7,3.37-1.05,4.39-1.05h.29v.38l2.38-.86c.57.06,1.08.22,1.53.48,1.27-.19,1.94-.63,2-1.34l.76.48,1.53.19c1.01-.63,1.87-.95,2.57-.95h.19c.38.32.86.51,1.43.57,1.91-.83,2.86-1.37,2.86-1.62.06-.89.25-1.53.57-1.91-.26,0-.38-.13-.38-.38h.19c.38,0,.6-.22.67-.67l-1.15-.19c.13-.44.41-.67.86-.67l.67.48.19-1.14-.86.29h-.38l.19-1.53h.38c.76,0,1.17-.32,1.24-.95-.26-.06-.38-.22-.38-.48.51,0,2.23-4.29,5.15-12.87.57-.95.99-1.43,1.24-1.43l.38.09v.67l.38.09v-.76c-.19,0-.28-.09-.28-.29v-.09h.76l-.28-.76c0-.25.67-.82,2-1.72Zm-29.65,33.08v.38l.76.09v-.38l-.76-.09Zm2.1,1.72c.07.57.29.86.67.86l.09-.76-.76-.09Zm7.34-8.01l-.1.76h.38l.09-.76h-.38Zm.86,41.47h.76l.29,1.62-.86.29-.29-.76.09-1.14Zm.95-5.72l1.43,1.71-.19,1.91-1.14-.19.57-1.81-.86.29-.57-1.24c.13-.44.38-.67.76-.67Zm-.57,9.53c.63.06,1.05,1.27,1.24,3.62l-.76-.09c-.32-1.97-.48-3.14-.48-3.53Zm3.62-24.88v.28c0,.76.19,1.43.57,2l-1.24.67v.19c0,.64.35.99,1.05,1.05l-.1.38-.67-.09-.19,1.53c0,.26.13.42.38.48-.89,3.43-1.59,5.15-2.1,5.15l-.29-.86c.32-.38.51-.86.57-1.43l-1.15-.09v-.38l.76.09.09-.76-1.14-.19c1.65-1.01,2.48-1.81,2.48-2.38l-1.91-.19c.06-.44.41-.67,1.05-.67h.19l.1-.38c-.7-.06-1.05-.41-1.05-1.05v-.19c.32-.44.48-.79.48-1.05h.38l-.19,1.91.76.09v-.38l-.19-2,.86-.28-.38-.76c.19-.44.44-.67.76-.67h.09Zm-3.43,23.74l.76.1-.09.76c-.45-.06-.67-.28-.67-.67v-.19Zm2.29-.09l-.09.76c-.32.45-.48.8-.48,1.05-.45-.06-.67-.29-.67-.67v-.19l.09-.76h.19c.25,0,.57-.06.95-.19Zm-.76-15.44l-.09.76h.38l.1-.76h-.38Zm0-8.01h.76v.38h-.76v-.38Zm.09,14.11l.76.09v.38l-.76-.1v-.38Zm.48,14.68l1.14.1c.51,2.23.76,3.72.76,4.48v.19l-.09.76c-.57-.06-1.18-1.91-1.81-5.53Zm1.05-2.57v.38h.76v-.38h-.76Zm.38-27.17h.76c0,.32.09.73.28,1.24l-.38-.1c-.45,0-.67-.19-.67-.57v-.57Zm.29-3.05l-.1,1.14h.38l.09-1.14h-.38Zm.48,30.32l-.1,1.15h.38l.09-1.15h-.38Zm0,4.2c.38.06,1.08,1.78,2.1,5.15-.19,0-.32.13-.38.38.25,0,.38.13.38.38h-.76l.1-1.14-.76-.09-.09.76-.67-.48c.32-.7.6-1.05.86-1.05-.51-1.65-.76-2.86-.76-3.62v-.29Zm.67-14.87l-.19,1.91h.38l.57-1.81-.76-.09Zm.09-8.39c0,.51.22.76.67.76l.09-.76h-.76Zm.19-2.29v.38h.76v-.38h-.76Zm.48-4.58l.67,1.24c-.57,0-.86.22-.86.67l-.09.38h.48c.44,0,.7-.35.76-1.05-.13-.38-.19-.7-.19-.95v-.19l-.76-.09Zm.19,9.25c0,.26-.16.61-.48,1.05v.38l.38.09c0-.32.16-.7.48-1.14v-.38h-.38Zm-.38,4.48l-.09.76.38.09.09-.76-.38-.09Zm.38-24.03v.76h.38v-.76h-.38Zm.19,26.03l-.09.76h.38l.09-.76h-.38Zm.57-10.3l-.48.76-.1,1.14h.38c.06-.7.41-1.05,1.05-1.05h.19l.09-.38c-.32,0-.7-.16-1.14-.48Zm-.29-.76v.38l.76.1v-.38l-.76-.09Zm.09,18.4l-.09.76h.38l.09-.76h-.38Zm-.09,1.53c.19.57.51,2.51.95,5.82l.76.09v-.38c-.51-.7-.76-1.72-.76-3.05,0-.51.03-1.05.09-1.62v-.38c.06-.44.41-.67,1.05-.67h.19l.09-.76c-.89.64-1.62.95-2.19.95h-.19Zm0,6.87v.76l.38.1v-.76l-.38-.09Zm.29-33.27l-.19,1.14h.38l.19-1.14h-.38Zm-.19,24.5l.76.1c.13-1.27.32-1.91.57-1.91l-.29-.76c.32-.44.48-.82.48-1.14-.57,0-1.08,1.24-1.53,3.72Zm1.05-21.74l-.67,2.57-.09.76.38.09c.06-.7.54-1.43,1.43-2.19-.45-.06-.67-.41-.67-1.05v-.19h-.38Zm-.57,13.35l-.09,1.53,1.05.09c-.13-.32-.19-.7-.19-1.14v-.38l-.76-.09Zm.19-1.53l-.1.76.76.09.09-.76-.76-.09Zm0,3.81l-.1.76.76.09v-.19c0-.38-.22-.6-.67-.67Zm.38-23.74v.38l.76.09v-.38l-.76-.09Zm.29,5.05l-.19,2.29h.38c.06-1.14.25-1.87.57-2.19l-.76-.1Zm-.09,13.06l-.09.67.38.09.1-.76h-.38Zm.09-1.15l-.09.76h.38l.09-.76h-.38Zm-.09,16.02v.38l.76.09v-.38l-.76-.09Zm.19-17.54l-.09,1.15h.38l.09-1.15h-.38Zm.76-19.54l-.48,1.53.76.1c.06-.57.22-1.08.48-1.53l-.76-.09Zm.86,11.63l.28.76c-.51.07-.8.29-.86.67v.38l.76-.28.76.09c-.07.38-.48.73-1.24,1.05,0-.25-.13-.41-.38-.48-.19,2.04-.41,3.05-.67,3.05.19.51.28.89.28,1.14l.38.09c0-.44.29-.95.86-1.53l.09-.38-.28-.76.76-.29c0,.26.13.38.38.38,0-.19.09-.29.29-.29h.09c0,.26.13.38.38.38v-.76l-1.43-.48c.57-.57.86-1.08.86-1.53-.19-.51-.28-.89-.28-1.14l-1.05-.09Zm-1.05,30.13l-.19,1.14.38.09.09-1.14-.29-.09Zm0-35.56l-.09,1.05.76.1c-.19-.51-.29-.89-.29-1.15h-.38Zm-.09,24.5v.38c0,.51.22.76.67.76v-.57c0-.38-.22-.57-.67-.57Zm.19,13.44h.76l.09-.76c-.51.07-.8.32-.86.76Zm.09-39.85v.38h.76v-.38h-.76Zm.19,6.1l-.09.76h.38l.09-.67-.38-.09Zm.19-2.67v.76l.38.09v-.76l-.38-.1Zm.19,37.94l-.09.76.38.09.09-.76-.38-.09Zm1.72-61.11c-.07.7-.42,1.05-1.05,1.05h-.19v.76l1.81.57v-.38c-.13-.32-.19-.76-.19-1.34v-.67h-.38Zm-1.15,62.73l-.09.76c.06.51.29.8.67.86h.38l.09-.38c0-.38-.35-.79-1.05-1.24Zm.09-59.01l-.09.76,1.15.1v-.38c-.26,0-.61-.16-1.05-.48Zm.1,41.38l-.1.76.38.09.09-.76-.38-.1Zm0,15.73l-.1.38.76.09.09-.38-.76-.1Zm.48-36.32c0,.26-.16.61-.48,1.05.7.07,1.05.42,1.05,1.05v.19l.38.09c0-.19.19-.95.57-2.29-.26,0-.38.13-.38.38l-.76-.48h-.38Zm-.29,6.87v.38l.76.1v-.38l-.76-.09Zm.29,36.04l.76.09c.45.25.82.41,1.15.48l-.1,1.15c-.76-.83-1.37-1.27-1.81-1.34v-.38Zm.38-31.37v.76h.38l.57-1.81h-.09c-.45,0-.73.35-.86,1.05Zm.1-16.49v.38l.76-.29c0,.26.13.38.38.38l.09-1.15h-.38c-.51,0-.8.22-.86.67Zm.19,2.29l-.19,1.53.38.09.19-1.53-.38-.09Zm2.38-31.94l.29.76c-.19,1.91-.67,2.89-1.43,2.96l.28.86v.29l-1.14-.1v.1c0,.45.44.99,1.34,1.62.32-2.67.92-4,1.81-4h.1l.09-.38c-.51-.06-.76-.22-.76-.48.32-.44.48-.82.48-1.14l-.67-.38-.38-.1Zm-1.81,7.15l-.09.38c.06.51.29.76.67.76l.38.09.09-.38c0-.51-.25-.79-.76-.86h-.29Zm-.09,35.18v.38l.76.09v-.38l-.76-.1Zm.09-1.14v.76l.38.09v-.76l-.38-.09Zm.57,14.68l-.09.76c.51,0,.76-.25.76-.76h-.67Zm.1,2.67l-.1.38.76.09.09-.38-.76-.1Zm.19-5.72l-.09.76h.38l.09-.76h-.38Zm.09-16.87l-.09,1.14c.51-.19.89-.28,1.14-.28l.1-.38c-.32,0-.7-.16-1.15-.48Zm-.09,4.58v.38l.76.1v-.38l-.76-.09Zm.19-29.08v.38l.76.09.09-1.14c-.51,0-.8.22-.86.67Zm.67-17.92h.76l-.19,1.14h-.76l.19-1.14Zm-.09,55.49l-.1.76.38.09.09-.76-.38-.1Zm.09-24.5l-.09.76.38.09.1-.76-.38-.09Zm.28,8.1l.76.09.09-.76c-.51,0-.8.22-.86.67Zm.1,30.7l-.1.76h.38l.09-.76h-.38Zm1.33-71.98l-.09.38c-.26.51-.41.89-.48,1.14l-.76-.09.09-.38c0-.38.41-.73,1.24-1.05Zm-.86,31.75l-.1.76h.38l.09-.76h-.38Zm.28,5.43c0,.51.22.76.67.76l.09-.76h-.76Zm.38,22.6v.76l.38.1v-.76l-.38-.09Zm.29-45.57v.38l.76.09v-.38l-.76-.1Zm0,70.17v.76h.28l.09-.76h-.38Zm.28-49l-.09.67.38.09.09-.76h-.38Zm.67,12.3h.57c.38,0,.6-.22.67-.67h-.38c-.51,0-.8.22-.86.67Zm.67-2.67l.76.09v-.76c-.51.07-.76.29-.76.67Zm1.14-4.1l-.09.76.38.09.09-.76-.38-.09Zm.29,8.49l.76.09v.38c-.32.45-.48.8-.48,1.05h-.38l.09-1.53Zm.09-31.75l-.09.76h.38l.09-.76h-.38Zm1.24,18.88l.76.09-.76,3.72-.76-.09.19-1.91.57-1.81Zm-.48,8.39c.44.13.67.35.67.67v.09h-.76l.09-.76Zm.28-30.6l-.09,1.43.38.09c.06-.44.38-1.17.95-2.19l-.38-.09c-.51.06-.8.32-.86.76Zm.19,29.84l.38.09-.1.76-.38-.09.09-.76Zm1.14-27.46c-.63,1.59-.99,2.45-1.05,2.57v.76h.38c.06-1.08.41-2.07,1.05-2.96v-.38h-.38Zm-.76-3.53l.76.09.09-1.14.57-1.91h-.1c-.57,0-1.02.99-1.33,2.96Zm.57,17.64l-.09.76.38.1v-.76l-.28-.09Zm.76-15.64l-.09.38.38.09.57-1.53c-.51,0-.8.35-.86,1.05Zm.86,14.68l1.81.57.48-.76-.76-.38c0,.45-.19.67-.57.67h-.19v-.76c-.51,0-.76.22-.76.67Zm1.53-23.64c-.63,1.08-.95,1.72-.95,1.91v.38h.38c0-.44.32-1.05.95-1.81v-.38l-.38-.09Zm-.28-5.34v.76h.38v-.76h-.38Zm1.24,3.15c0,.45-.32,1.08-.95,1.91h.76l.57-1.43v-.38l-.38-.09Zm-.76,4.58l.76.09v-.76c-.51,0-.76.22-.76.67Zm1.24,10.49l-.09.38h.76l.09-.38h-.76Zm.1,2.29h.38c2.35-.25,3.66-.38,3.91-.38v-.38c-1.21-.13-1.81-.32-1.81-.57-1.59.38-2.42.83-2.48,1.33Zm.57-16.78c-.07.26-.22.61-.48,1.05l.76.1.1-1.14h-.38Zm.19,21.45l-.09.76h.38l.09-.76h-.38Zm.67-22.98v.76l.38.09v-.76l-.38-.09Zm0,19.54v.38l.76.1v-.38l-.76-.09Zm3.34-2.29l-.1.38h.76l.09-.38h-.76Zm.09,6.86l-.09.38.76.1.09-.38-.76-.09Zm.86-4.86l-.1.38h.76l.09-.29-.76-.1Zm1.43-2.57l-.1.76h.38v-.76h-.28Zm.57,1.62v.38h.28c.57-.19.99-.29,1.24-.29v-.38h-.38c-.51.19-.89.29-1.14.29Zm1.24-1.43c.06.51.32.8.76.86h.38c0-.51-.26-.79-.76-.86h-.38Zm0,4.2v.38l.76.09v-.38l-.76-.09Zm.19,1.91v.38l.76.09v-.38l-.76-.09Zm1.24-4.48l-.09.38c.63.06,1.24.38,1.81.95l.09-.38c-.19-.44-.28-.95-.28-1.53-.57.38-1.02.57-1.34.57h-.19Zm.57-1.81l-.1.76h.38l.09-.76h-.38Zm2.57-2.86l.38.09-.09,1.14-.38-.1.09-1.14Z"/><path class="d" d="m208.24,73.15h.76v.76h-.76v-.76Zm.38-1.15h.76v.38h-.76v-.38Zm35.46-32.8v.38l.76-.38h1.14c.25,0,1.27,1.14,3.05,3.43.25,0,.38.25.38.76h.76l.76-.38c.82,1.21,2.35,2.23,4.58,3.05,0,.57.89,1.59,2.67,3.05v.76h-.38c.25.38.38,1.14.38,2.29h.38v-.76h.76v1.15c-.76,0-1.14.13-1.14.38.25.51.38.89.38,1.15-.51,0-.76.38-.76,1.14l-.76-.38h-.38c0,.51-.26.76-.76.76v.76l.76-.38.76,1.14v.38c-.51.45-.76,1.72-.76,3.81l-.76-.38h-.38v.76h.76v.38c-.76.83-1.15,1.46-1.15,1.91.51.83.76,1.46.76,1.91l-.76.38c-.25,0-.38-.13-.38-.38-1.08.25-1.85.89-2.29,1.91l.38.76-.76.38-.76-.38h-.38v.38h.76c-.06.32-1.71,1.72-4.96,4.2l.38.76c-.51,0-2.04,1.15-4.58,3.43h-1.53v.38c0,.26.13.38.38.38,0,.64-1.15,1.53-3.43,2.67l-.38.76-.76-.38h-.38c0,.76-.26,1.14-.76,1.14h-.38c-.26,0-.38-.13-.38-.38l-.76.38c-.25,0-.38-.13-.38-.38-1.91.76-3.31,1.15-4.2,1.15-1.53-.51-2.67-1.02-3.43-1.53,0,.51-.38.76-1.15.76,0,.26.13.64.38,1.14l-.38,1.91c.76,2.35,1.15,3.75,1.15,4.2h1.91c1.4,0,4.83-1.01,10.3-3.05l-1.53,1.53h.38c.13,0,.63-.13,1.53-.38.51.26.89.38,1.14.38.06-.51.32-.76.76-.76h.76v.76c3.62-1.53,5.66-2.29,6.1-2.29-.76,1.27-1.65,1.91-2.67,1.91.25.51.38.89.38,1.15h.38c0-1.02.76-1.53,2.29-1.53l1.91,1.15c1.72,0,5.53-1.78,11.44-5.34h.76v1.14l-3.05,1.53v.76h.76l1.53-1.15c0,.51.38.76,1.15.76v1.14h-.38c-.26,0-.38-.13-.38-.38-.51.25-.89.38-1.14.38v2.67h-.76v-.76h-.38l-.76.38-.38-.76c0-.76.38-1.15,1.14-1.15v-.38h-.38l-1.53.76v-.76h-.38l-1.14.76.38.76c0,.45-1.02,1.08-3.05,1.91v.38h1.15l1.14-.76h.38v.38c-.26.51-.38.89-.38,1.14l-.76-.38c-1.27.64-1.91,1.15-1.91,1.53v.38h.38c.51-.25.89-.38,1.15-.38v.76h-1.15v.38h1.91c0,.38-1.4,1.4-4.19,3.05,0,.51-.26.76-.76.76h-.38l-.76-.38c0,1.78-1.15,2.67-3.43,2.67,0-.26-.13-.38-.38-.38v.38l-.76-.38-1.14.76c0-.25-.13-.38-.38-.38,0,.7-1.02,1.21-3.05,1.53v-.76h-.76c-1.08,0-2.1.25-3.05.76,0-.51-.25-.76-.76-.76v.76h-.76v-.76h-.38v.76c.25,0,.38.13.38.38l-.76.38c-1.27-.38-1.91-.89-1.91-1.53l-1.91.38h-.38c0-.26-.13-.64-.38-1.14l-.76.38c-3.56-2.41-5.34-3.94-5.34-4.58l-.76.38c-1.34-1.84-3.37-3.24-6.1-4.2v-.38c1.01,0,1.53-.38,1.53-1.14-1.78-1.02-3.05-1.53-3.81-1.53v-1.53l.38-.76h-.38c-.51.25-.89.38-1.14.38-.26-.95-.89-1.71-1.91-2.29l.38-1.91v-2.67h.76l.76,2.29h.38v-.38c-.25-1.72-.38-3.11-.38-4.2h.38c-.76-2.22-1.14-3.5-1.14-3.81l-.76.38h-.76v-1.91c0-.25.13-.38.38-.38,0-.76-.51-1.14-1.53-1.14l.76-1.15c-.57,0-.95-.63-1.14-1.91h.38c.51,0,.76.38.76,1.15.51,0,.76-.25.76-.76h-.76l.38-.76,1.91,1.14h1.14l1.15-.76-.38-.76c.25-.51.38-.89.38-1.15h.76v3.05h.38c1.53-4.77,2.92-7.56,4.2-8.39h.76c-1.78,2.35-3.18,5.15-4.19,8.39.25,0,.38.13.38.38.83,0,1.46-1.15,1.91-3.43h.38v1.15c-.26.76-.38,1.53-.38,2.29.83-.32,1.59-.83,2.29-1.53-.26-.51-.38-.89-.38-1.14.25,0,1.27-1.14,3.05-3.43h-.76v-.76l.76.38c3.05-5.66,5.21-8.71,6.48-9.15l-.38-.76v-.38c.32,0,1.21-1.01,2.67-3.05l3.81-2.29c.19-1.01.45-1.53.76-1.53l-.38-.76v-.38l1.91-.38v-.76h-.76c-.19.06-1.08.83-2.67,2.29-1.02-.25-1.53-.89-1.53-1.91h.76v.76c.57-.7,1.59-1.46,3.05-2.29,0-.7.76-1.72,2.29-3.05.51.25.89.38,1.15.38.51-.25.89-.38,1.14-.38v.38c.82-.51,1.46-.76,1.91-.76Zm-33.56,36.99h.76v1.53h-.76v-1.53Zm1.53,7.25v.76h.38c.51-.25.89-.38,1.14-.38v-.38h-1.53Zm1.53-5.72v1.91h.38v-1.91h-.38Zm.38,2.29v1.91h.38v-1.91h-.38Zm.76,9.53c.51.07.76.32.76.76v.38h-.76v-1.15Zm1.91-26.69h.76v.76h-.76v-.76Zm1.14-1.53h.38v.76h-.38v-.76Zm.38-1.53h.76v.38c0,.51-.25.76-.76.76v-1.14Zm0,32.41v.38h.76v-.38h-.76Zm4.58-38.52v.38c0,.38-.38.76-1.14,1.14v-.38c0-.38.38-.76,1.14-1.14Zm1.15,1.91c.51.06.76.32.76.76l-2.29,1.91v-.38c.51-1.53,1.01-2.29,1.53-2.29Zm-1.53,4.58h.76v.76h-.76v-.76Zm1.53-1.15h.76v.38h-.76v-.38Zm.38-5.34h1.53v.76c0,.51-.26.76-.76.76h-.76v-1.53Zm.38,3.81c.51.06.76.32.76.76,0,.51-.26.76-.76.76,0-.25-.13-.38-.38-.38.25-.51.38-.89.38-1.14Zm2.29-1.53h.38c0,.51-.76,1.02-2.29,1.53v-1.14h.38l.76.38c.06-.51.32-.76.76-.76Zm-.38-1.91l1.53.38c.51-.25.89-.38,1.14-.38,0,.38-.38.76-1.14,1.14-.45-.25-.95-.38-1.53-.38v-.76Zm1.15-3.43v.76h-.76c.06-.51.32-.76.76-.76Zm5.34-5.34h.38c1.27.64,1.91,1.14,1.91,1.53-.89,0-2.16.63-3.81,1.91l-.76-.38c-.26.45-.38.95-.38,1.53l-1.14-.76c0-.44,1.27-1.59,3.81-3.43v-.38Zm12.58,4.58h-1.14c0,.7-1.27,1.21-3.81,1.53v.76l.76-.38h.38c0,.19-.63.83-1.91,1.91h.76v.38c-1.27,0-1.91.38-1.91,1.14h-1.14l-.76-.38-.38.76.76.38c0-.25.13-.38.38-.38v.38c-.32,0-1.85,1.65-4.58,4.96-.64.76-1.27,1.15-1.91,1.15,0-.25-.13-.38-.38-.38v.38l.76,1.14-1.53,1.14.38.76v.38c-.76,0-1.14.38-1.14,1.14l.76.38c0-.44,1.14-.82,3.43-1.14,2.6-3.31,4.64-4.96,6.1-4.96v.38c0,.51-.38.76-1.15.76v.76c3.5-3.05,5.4-4.58,5.72-4.58v1.14h.38v-.76c-.26-.51-.38-.89-.38-1.14.63-.51,1.15-.76,1.53-.76l-.38-.76c.51-.76.89-1.65,1.14-2.67v-.38h-.38v.76h-.38v-1.14c0-.89,1.02-1.65,3.05-2.29v-.38h-1.53v-.76h-.38l-1.15.76Zm-16.4,8.77c.38,0,.89-.63,1.53-1.91v-.38c-1.02.25-1.53,1.02-1.53,2.29Zm.38-8.77h.38v.76h-.38v-.76Zm.76,9.53h.76v-.76c-.51.07-.76.32-.76.76Zm.38-4.2v.76h.38c.51,0,.76-.25.76-.76v-.38c-.51.26-.89.38-1.15.38Zm1.15-1.14v.38h.76v-.38h-.76Zm.38.76v.76h.38v-.76h-.38Zm8.39-8.39l-.76-.38h-.76c0,.83-.64,1.46-1.91,1.91v1.14l-.76-.38c-.06.7-.57,1.33-1.53,1.91-.89,1.53-1.65,2.29-2.29,2.29v.76h2.29c0-1.27.89-2.29,2.67-3.05,0,1.02.38,1.53,1.14,1.53v.38l-.38.76h.38c0-2.03,2.67-3.68,8.01-4.96v-1.15l-1.91.38c0-.76-.13-1.14-.38-1.14h-1.14v-.76c-1.78.07-2.67.32-2.67.76Zm-4.2,17.92c0,.57-.63.95-1.91,1.15v.38h.38c1.14-.51,1.78-1.02,1.91-1.53h-.38Zm-1.91,30.51v1.15h.76v-1.15h-.76Zm.38-39.66v.38h.76v-.38h-.76Zm.38,24.03c.06.51.32.76.76.76l.38-.76h-1.14Zm.38-26.69v.38h.76v-.38h-.76Zm0,3.43v.38h.76v-.38h-.76Zm1.14-3.43v.76c.51,0,.76-.25.76-.76h-.76Zm3.05,49.19c0,.38-.51.89-1.53,1.53h-.76v-1.14c.19,0,.95-.13,2.29-.38Zm-1.53-15.64h.76v.38h-.76v-.38Zm.38,13.35v.76h.38v-.76h-.38Zm.38-56.06v.76h.38v-.76h-.38Zm0,43.85h.76v.38h-.76v-.38Zm.76,6.48v.38h.76v-.38h-.76Zm2.67-32.41c0,.38-.26.89-.76,1.53h.38c.38,0,.76-.38,1.15-1.14v-.38h-.76Zm0,25.17h.38c-.26.51-.38.89-.38,1.14h-.76v-.38c.06-.51.32-.76.76-.76Zm1.14-30.51v.38c0,.51-.25.76-.76.76h-.38c0-.38.38-.76,1.14-1.14Zm1.91-2.29v.38c0,.51-.25.76-.76.76v-.38c.06-.51.32-.76.76-.76Zm-.38-14.11v.38h.76v-.38h-.76Zm0,6.1v.38h.76v-.38h-.76Zm.38,12.97v.76h.38v-.76h-.38Zm.76-4.58v1.14h.38v-1.14h-.38Zm0,2.67c.06.51.32.76.76.76v-.76h-.76Zm1.14-2.29c0,.76-.13,1.14-.38,1.14.25.51.38.89.38,1.14h.38c0-.7.38-1.46,1.15-2.29h-1.53Zm1.91,30.13c0,.38-.38.76-1.14,1.14h-.76c0-.57.63-.95,1.91-1.14Zm-.76-32.03l-.38,1.53c.51,0,.76-.38.76-1.15v-.38h-.38Zm7.25,28.6v.38l-1.14,1.91c.25,0,.38.13.38.38-1.33,0-3.11,1.02-5.34,3.05-.51-.25-.89-.38-1.14-.38v-.76c.89,0,2.54-.89,4.96-2.67h.38v-.38l-.38-.76c.25,0,.38-.13.38-.38l.76.38,1.14-.76Zm-6.48-32.41v.38h.76v-.38h-.76Zm.76,22.88h.38v.76h-.38v-.76Zm.38-19.07c.25,0,.63.13,1.14.38v-1.14h-.38c-.51.06-.76.32-.76.76Zm1.14,10.3c0,.76-.38,1.15-1.14,1.15v.76h.38c.38,0,.89-.63,1.53-1.91h-.76Zm.76,7.25h.38v.76c-.38,0-.89.26-1.53.76h-.38v-.76c.38,0,.89-.25,1.53-.76Zm0-22.12v.38l.38,2.29.76-.38h.38v1.14h.76c0-.51-.64-1.65-1.91-3.43h-.38Zm.38,4.96l.38.76c-.51,1.78-.76,2.8-.76,3.05,1.53-2.03,2.29-3.43,2.29-4.19v-.38h-.76l-1.14.76Zm-.38,36.99v.76c.51,0,.76-.25.76-.76h-.76Zm.38-38.52v.76h.38v-.76h-.38Zm2.29,6.48c0,.57-.76,1.84-2.29,3.81v1.14h.38c0-.32.89-1.59,2.67-3.81-.26-.51-.38-.89-.38-1.14h-.38Zm-2.29,5.72v.76h.38v-.76h-.38Zm2.67-12.2c.51,1.27.76,2.29.76,3.05.51,0,.76-.25.76-.76v-.38l-.76-1.14v-.38l.38-.76h-.38l-.76.38Zm0,3.05v.76h.38v-.76h-.38Zm0,9.53h.76v.38h-.76v-.38Zm.38,18.3h.76v.76h-.76v-.76Zm3.05-23.26h.38c-.95,1.78-1.59,2.67-1.91,2.67v-.76c.51-1.14,1.02-1.78,1.53-1.91Zm0-4.96h.76v1.14h-.76v-1.14Zm4.58,30.89v.38c0,.51-.26.76-.76.76v-.38c.06-.51.32-.76.76-.76Z"/><path class="d" d="m296.42,44.26c-.57,1.02-1.21,1.53-1.91,1.53l-.09.76c1.4-.95,2.42-1.43,3.05-1.43h.09c-.06.7-.41,1.05-1.05,1.05h-.19v.38l1.53.09c.06-.76.73-1.24,2-1.43l1.91.38,1.53.09-.09.76-.38.76c.25,0,.38.13.38.38l.76-.38h.38c.51.13.76.42.76.86h-.09c-.19,0-.29.09-.29.29,1.21.06,1.81.67,1.81,1.81v.19l.76-.38v.76h-.76l-.09.76,1.14.1v.76l-.76-.09v.76l.76.09v.38c-5.15,4.7-8.58,8.14-10.3,10.3-1.65,2.16-2.93,3.24-3.81,3.24h-.09v-.76c.95-.44,2.41-2.16,4.39-5.15v-.38h-.38c-1.84,2.54-2.8,3.91-2.86,4.1h-.76l2.1-3.05c-.38,0-1.18.86-2.38,2.57-1.59,1.72-2.42,2.99-2.48,3.81l-.38-.09-1.43-1.14-1.24,2.19v.38l.38.09c0-.76.25-1.14.76-1.14l.76.38-.86,1.53c.25.51.38.89.38,1.14h-.38l-.76-.48c0,.51-.13.76-.38.76l.38.76-.09.38c-2.54.89-3.88,3.4-4.01,7.53-1.14,6.04-1.78,9.06-1.91,9.06l.38.86c-.06,1.34-.8,4.1-2.19,8.29h-.38l-.76-.48c-.06,1.27-.61,1.91-1.62,1.91v-.38c-1.15-1.02-1.72-2-1.72-2.96v-.19h-.38l-.09.38c.25.51.38.89.38,1.14h-1.15c-.32-.06-.8-1.11-1.43-3.14l.38-.76.09-.38c-.76,0-1.14-.25-1.14-.76h.38l.76.38v-1.14c-1.08,0-1.75,1.4-2,4.2l-.76-.09c0-.32-.22-1.72-.67-4.2h-.38v.76h-.38c-1.4-.06-2.23-5.18-2.48-15.35.25-.51.38-.89.38-1.14-.51,0-.76-.25-.76-.76.51,0,.79-.25.86-.76v-.38c0-.25-.13-.38-.38-.38l.38-.76v-.86c0-.19-.09-.29-.28-.29.51-1.27.79-2.29.86-3.05h-.38c.51-1.15.79-2.29.86-3.43l-.38-.76c.82-1.78,1.97-4.93,3.43-9.44,1.21-1.97,2.13-3.21,2.77-3.72.51.64.76,1.18.76,1.62h.38c.13-1.02.51-1.53,1.15-1.53l1.14.1-.09,2.67h.38c.13-1.27.54-1.91,1.24-1.91,0,.26.6.92,1.81,2,.51-.25.89-.38,1.14-.38.06.51.32.76.76.76l1.91-.28v.76c0,.26-.13.38-.38.38.19.45.29.95.29,1.53h.38c.06-.7.32-1.05.76-1.05h.38v.38c-.26.45-.38.83-.38,1.14.51.26.89.38,1.15.38l-.1,1.14-.38.76h.38c.51,0,.8-.63.86-1.91.25,0,.38.13.38.38.51-.19.89-.29,1.14-.29v-.38h-.76c0,.19-.09.29-.29.29h-.09c0-.25-.13-.38-.38-.38,0,.26-.13.38-.38.38v-.38c.19-1.21,2.45-4.04,6.77-8.49v-.38h-.1c-1.14,0-2.29,1.08-3.43,3.24l-2,1.53-.38-.1.09-.38c2.35-2.35,3.53-3.69,3.53-4.01h-.38c-.51.07-.76.29-.76.67-.51-.25-.89-.38-1.14-.38v-.38c.13-.51.38-.76.76-.76l-.29-.76v-.38h.38l.76.38c.7-1.21,1.21-1.81,1.53-1.81.51,0,.76.38.76,1.14h.38v-.76c-.45,0-.67-.19-.67-.57v-.19c1.08-.95,2.1-1.43,3.05-1.43Zm-27.17,45.28v.76h.38v-.76h-.38Zm4.77-36.51l-.09.76h.38l.09-.76h-.38Zm.19,36.23v.76l.38.09v-.76l-.38-.09Zm0,1.91c.19.51.29.92.29,1.24h.38l.48-1.91c-.76.19-1.15.42-1.15.67Zm.29,2v.76c.51,0,.76-.25.76-.76h-.76Zm1.05,2.67v.38h1.15v-.38h-1.15Zm10.68-43.47h1.14c-.7,1.59-1.37,2.45-2,2.58h-.38v-.38c.82-.82,1.24-1.56,1.24-2.19Zm-.76,20.88v.38l.38.09.48-1.53c-.51,0-.8.35-.86,1.05Zm3.91-22.69l-.09.76c-.38,0-1.02.35-1.91,1.05v-.38c.13-.51.79-.98,2-1.43Zm-1.71,3.72h.76v.38c0,.51-.26.76-.76.76v-1.15Zm.86,18.78h.76c0,1.33-.38,2.07-1.14,2.19h-.38v-.38c.51-.76.76-1.36.76-1.81Zm-.38-10.77v.76l.38.09v-.76l-.38-.09Zm2.38-2.96c-.38,1.02-.76,1.53-1.15,1.53l-.76-.38v.76h.76c.89-.95,1.49-1.43,1.81-1.43h.09v-.38l-.76-.09Zm-1.81-1.91h1.53c.06-.76.6-1.62,1.62-2.58v-.38c-2.1,1.59-3.14,2.57-3.14,2.96Zm.28-8.77h.76v.38h-.76v-.38Zm3.53,20.69c-1.21,1.97-2.13,3.08-2.77,3.34h-.38v-.76c.32,0,1.11-.86,2.38-2.57h.76Zm-2.96-3.15v.38h.76v-.38h-.76Zm1.62-1.81v.38c.44,0,.7-.25.76-.76v-.38c-.51.06-.76.32-.76.76Zm1.34-16.78h.76v-.76c-.51.06-.76.32-.76.76Zm0,20.21h.76v.76h-.76v-.76Zm.09-1.91h.76v.38h-.76v-.38Zm.57-4.58l-.09.76h.38l.09-.76h-.38Zm1.24-12.87h.38c.44-.25.95-.38,1.53-.38l-.38-.76c-1.02.38-1.53.76-1.53,1.14Zm1.71-5.34l1.53.09-.1.38c0,.45-.19.67-.57.67h-.19c-.51,0-.76-.25-.76-.76l.09-.38Zm2,17.26v.38c.51,0,.76-.25.76-.76v-.38c-.51.07-.76.32-.76.76Zm1.71-16.3h1.91v.76h-1.91v-.76Zm.67,13.35c0,.26-.13.63-.38,1.14h.38l.38-.76v-.38h-.38Zm4.39-4.01v.38h1.14l.38-.76h-.38c-.51.25-.89.38-1.14.38Zm.76-1.53v.76h.38v-.76h-.38Z"/><path class="d" d="m382.32,48.36c1.21,0,2.67.54,4.39,1.62v-.86h2v.38l-.38.86c.7,0,1.37.26,2,.76v-1.15h.48c1.33.64,2,1.69,2,3.15h.38l.76-.38.86,1.24-.38.76c.25,0,1.3.83,3.15,2.48h.48c0-.82.54-1.49,1.62-2h1.15l-.38.76.86.38.38-.76c-.57,0-.86-.29-.86-.86.82-.13,1.91-.79,3.24-2h.86l-.48.86v.38c1.21-.7,2.03-1.65,2.48-2.86h-1.24v-.76h.86c1.4,1.34,2.44,2,3.14,2l-.38-.76c.25,0,.38-.16.38-.48h-.76v-.38c0-.32,1.62-.99,4.86-2,1.84,0,2.77.25,2.77.76l.86-.38c4.26,1.27,6.39,2.1,6.39,2.48l4.86,3.62c1.02,0,1.84,1.21,2.48,3.62l-.86,8.01h-.38l-1.62-6.01v-.38h-.38c0,1.02-.16,1.53-.48,1.53l.48.86c-.19,1.91-.48,2.86-.86,2.86,0,.26.13.38.38.38-.32,5.09-.7,7.63-1.14,7.63l.38.86c-.19,1.08-.45,1.62-.76,1.62,0,.26.13.38.38.38l-1.62,8.49v1.14h.38c0-.82.13-1.75.38-2.77h.86l-.38,2.77h.38c-.7,2.16-1.24,3.24-1.62,3.24h-.38v-.38l.38-.86c-1.08,0-1.62-.79-1.62-2.38l.76.38v-.76c0-.25-.13-.38-.38-.38.44-.95,1.11-3.53,2-7.72,0-.25-.13-.38-.38-.38.25-.82.38-2.32.38-4.48h-.38v-.38h.86v-.38l-.48-.76h.48l-.48-.86v-.38h.86v-3.62l-.38-2c.25,0,.38-.16.38-.48l-.86-.38.48-.76v-.86h-.48c0,.83-.13,1.24-.38,1.24l.38.76v.86l-.76,1.24.76.38-2.77,10.49.38.76v.38l-.38,2.1h1.62v.76h-.48l-.76-.38-.38.76c.25,0,.38.16.38.48-.63,0-1.05,1.05-1.24,3.15.25.57.38.99.38,1.24h-1.14v.38h.76v.48l-.76,1.15.38,2-1.24.86h-.38c.57-3.24.86-5.12.86-5.63l-.86.38.38.76c-.26.51-.38,1.05-.38,1.62h-.76c.51-5.34,1.05-8.01,1.62-8.01-.32,0-.48-.16-.48-.48h.48c0-.25-.16-.38-.48-.38l.86-5.63c-.32,0-.86,1.21-1.62,3.62h-.38v.76h.76v.48h-.76l-2-.48c0,.57-.29.86-.86.86.06.51.35.76.86.76l-.48.86v.76l.48,2c-.32,0-.48.16-.48.48.32,0,.48.13.48.38-.83,0-1.24.67-1.24,2h-1.24c0-.82-.25-1.24-.76-1.24v-.76h.76v-.38h-1.62c-.26,1.4-.38,2.19-.38,2.38h-.38l-.86-.38v1.62h1.24l-.38-.86,1.62-1.14v.38c-.32.51-.48.92-.48,1.24.19-.32,1.43-.48,3.72-.48l-.48-.76v-.38c0-.45.54-.99,1.62-1.62h.38c-.13,2.67-.51,4.01-1.15,4.01h-.38l-.86-.38c-1.08,2.16-1.62,3.5-1.62,4,.57.07.86.32.86.76-1.08.19-1.62.61-1.62,1.24-.83,0-1.24-.41-1.24-1.24l-.76.48c0-.32-.16-.48-.48-.48,0,.57-.26.86-.76.86v-.86h-.38c0,1.4-.28,2.1-.86,2.1l-.38-.86c.89-4.77,1.68-7.85,2.38-9.25l-.38-.86,3.24-15.73c-.26-.44-.38-1.11-.38-2l-.86.48-.38-.86v-.38l.76-1.24v-1.62h-1.15c0,1.27-1.49,2.35-4.48,3.24l-.76-.38h-.86v.38h1.24c-.83.7-1.24,1.24-1.24,1.62h-.38c-.51,0-1.85-.25-4.01-.76,0,.51.8.76,2.38.76l-.76,1.24v.76h.38l2.86-2h.38c.38,0,.76.41,1.15,1.24l-8.39,6.39h-.48v-.38l.86-1.24h-.38l-.86,1.24c.25.51.38.92.38,1.24-.51.06-.76.32-.76.76v.48l.76-.48h.86v.48c0,.51-.29.76-.86.76,0-.25-.13-.38-.38-.38-.83.95-1.24,1.88-1.24,2.77h-.76v-.76l-.76.38h-.48v-.76h-.38c0,.89-.13,1.56-.38,2h1.24v.76c-.32,0-1.27-.54-2.86-1.62,0,.32-.13.73-.38,1.24.95,0,1.62.67,2,2-.26,0-.38.13-.38.38.32,0,1.11.42,2.38,1.24-.95,2.35-1.62,3.69-2,4,0-.38-.41-.76-1.24-1.14,0,1.34-.54,2-1.62,2v.38h.86c0-.25.13-.38.38-.38l.38.76c0,.57-.25.86-.76.86v-.86h-.48c0,1.34-.13,2-.38,2l.38.86-.76,2c.7.83,1.24,1.24,1.62,1.24v.76h-1.24v.86h.86v.76h-1.24c0-1.59-.26-2.38-.76-2.38v2.38h.76v2c0,.57-.41.86-1.24.86v.38h.86c0-.25.13-.38.38-.38v.76c-.51,0-.76.41-.76,1.24h-1.24v-3.24c0-.57.13-1.11.38-1.62-.26-.45-.38-1.11-.38-2h-.38c0,1.53-.16,3.02-.48,4.48h-1.14v-1.62c.63,0,1.01-.54,1.14-1.62h-.38c-.83.32-1.62,1.65-2.38,4-.83,0-1.24.67-1.24,2h-2.38v-3.62c0-.26.13-.38.38-.38l-.38-.86c.25-1.4.38-2.6.38-3.62l-1.24.86.48.76-.48,2.86c.32,0,.48.13.48.38h-.48l.48.86v.38h-.86v-4.48h-.76v.86c-.57,0-1.11-.67-1.62-2h-.48v-.86c.13-.51.41-.76.86-.76v.76h.38v-.76c-.38,0-.8-.41-1.24-1.24,1.08,0,1.62-.67,1.62-2l-.76-.38h-.38v.38c.25.51.38.89.38,1.14h-1.24c0-3.24.95-5.37,2.86-6.39h-.38c-.57.25-.99.38-1.24.38v-.38c.95-5.4,1.75-8.1,2.38-8.1l-.38-.76v-.86c.82,0,1.24.42,1.24,1.24h.38v-.76c-.51-.32-.92-.48-1.24-.48v-.76h.86l-.38-.86h.38c0-.25-.13-.38-.38-.38,1.59-8.2,2.38-13.57,2.38-16.11-.26-.82-.54-1.24-.86-1.24-1.91.76-3.37,1.59-4.39,2.48h-.86c1.4-1.65,2.77-2.48,4.1-2.48v-.38h-1.24l-3.24,2c-.51-.25-.89-.38-1.14-.38.51.89.76,1.69.76,2.38l-2,1.24v-.76h-.38v.76h.38c-.13.89-1.33,2.1-3.62,3.62,0,.64-.95,1.97-2.86,4.01v.86h.86l.76-.38v.38c-.45,1.91-1.4,3.53-2.86,4.86-1.34,3.5-2,5.5-2,6.01h.86v1.62c0,.26-.13.38-.38.38l.38.86c-.26.45-.38.99-.38,1.62h-.48l-.76-.48v.48c1.08,1.4,1.62,2.32,1.62,2.77h-.86v-.76h-.76v1.14c0,.64-.13,1.18-.38,1.62,0,.32.13.48.38.48l-.38,1.53.38,2.48c0,.76-.41,2.77-1.24,6.01h-.76c0-1.46-.67-2.67-2-3.62v.38c.32,1.4.7,2.1,1.14,2.1-.25.45-.38,1.11-.38,2h-.38c-.57,0-.86-.42-.86-1.24h-.38l-.76.38c-.64-1.84-1.3-2.77-2-2.77,0,.26-.16.38-.48.38-.25-.45-.38-1.11-.38-2h-.38c0,.38-.29,1.3-.86,2.76h-.38v-1.62l.38-.76c-.51-.95-.76-2.03-.76-3.24,0-.38.54-.8,1.62-1.24-.26-.44-.38-1.11-.38-2h-1.62l.76,1.24v.38l-.76-.38h-.86l.38.76-.38,2.86h-.38l-.76-.38v.38c-1.27,0-2.23-1.62-2.86-4.86h-.38v-.38h.76v-.38c0-.57-.41-.86-1.24-.86v-2.76c.63,0,1.05-.54,1.24-1.62h.86v-.86c-.64,0-1.59-.51-2.86-1.53v-.48c.25,0,.67-.13,1.24-.38.51.26.89.38,1.14.38v.48h-.76v.76l.76-.38c0,.26.16.38.48.38,0-.7.25-1.37.76-2-1.08-.45-1.62-.86-1.62-1.24.25,0,.38-.13.38-.38h-.38c-.26.51-.38.92-.38,1.24h-.86l.48-.86c0-.7-.29-1.49-.86-2.38,1.08-.25,1.62-1.08,1.62-2.48l-.76-1.15c.19-1.97.57-3.34,1.14-4.1-.26,0-.38-.13-.38-.38.57,0,1.24-2.96,2-8.87.76-2.16,1.3-3.24,1.62-3.24-.26-.51-.38-.89-.38-1.15.82-2.29,1.91-4.2,3.24-5.72h.76l-.38.86v.38h.38l1.24-.76h.38c0,.83.54,1.37,1.62,1.62v1.53c.57,0,.99-.8,1.24-2.38h.38v1.24h.38l1.24-.86c.25.51.38.92.38,1.24l2-.38c1.08,1.53,1.62,2.61,1.62,3.24-.25,0-.38.13-.38.38h.76v-1.24c.25,0,1.34.42,3.24,1.24l-.38.76c.25,0,.38.16.38.48,2.1-1.02,3.85-2.26,5.24-3.72h-.76c-1.65,1.08-2.73,1.62-3.24,1.62v-1.14c.06-.57.32-.86.76-.86,0,.26.16.38.48.38,0-.76.25-1.15.76-1.15v.38c1.08-.25,1.62-.92,1.62-2h.86v.76h.38c0-1.08.25-1.62.76-1.62h.38v.86c1.46-1.34,2.83-2,4.1-2Zm-33.46,28.22v.38h.76v-.38h-.76Zm.38-3.62h.76c.57,0,.86-.28.86-.86h-.86c-.51.13-.76.41-.76.86Zm.38,12.49v.76h.38v-.76h-.38Zm.38-15.35v.86h.48v-.86h-.48Zm0,3.62v.86h.48v-.86h-.48Zm.48-4.86v.86c.51,0,.76-.29.76-.86h-.76Zm.38,6.86l-.38,1.62c.51,0,.76-.38.76-1.15v-.48h-.38Zm-.38,8.49v.38h.76v-.38h-.76Zm0,3.24v.76c.51,0,.76-.25.76-.76h-.76Zm.38-12.87v.76h.38v-.76h-.38Zm.38-8.87c.06.51.35.76.86.76v-.76h-.86Zm0,6.39v.86h.38v-.86h-.38Zm.38-8.87v.86h.48v-.86h-.48Zm0,3.62v.86h.48v-.86h-.48Zm.86,13.73l-.38,1.62h.76v-1.62h-.38Zm-.38,7.63v.86c.57,0,1.08.13,1.53.38v-1.24c-.26,0-.38.16-.38.48l-.76-.48h-.38Zm0,2.86v.38h.76v-.38h-.76Zm1.53-17.35c0,1.72-.38,2.67-1.15,2.86l.38.76-.38.86.76.38.86-2-.48-.86c.32-.51.48-.89.48-1.14v-.86h-.48Zm-1.15,9.72v1.15h.38v-1.15h-.38Zm0,1.62v1.14c.63-.51,1.17-.76,1.62-.76v-.38h-1.62Zm0,7.63v.76h.38v-.76h-.38Zm.38,2.38h.76v2h-.76v-.38c0-.25.13-.38.38-.38l-.38-.76v-.48Zm.76,2.86l.48.76v.48h-.48c-.51,0-.76-.28-.76-.86l.76-.38Zm0-24.6h.86v-.86c-.57.13-.86.42-.86.86Zm2.1,9.25l-.48,1.62h-.76v-.76c-.57.07-.86.32-.86.76l2.1.38.38-.76v-1.24h-.38Zm-1.62-11.63v.76h.76v-.76h-.76Zm.76-3.24v.76h.38v-.76h-.38Zm.86,25.36v2.48h.76c-.26-.45-.38-1.27-.38-2.48h-.38Zm.38-41.95v.86h.38v-.86h-.38Zm.38,6.48v.76h.86c0-.51-.28-.76-.86-.76Zm0,26.6v.86h.38v-.86h-.38Zm.38,4.48v2.38l.86-.38c-.26-.45-.38-1.11-.38-2h-.48Zm.48-10.11v1.24h.38v-1.24h-.38Zm0,8.87v.76h.38v-.76h-.38Zm0,4v1.62h.38c0-.57.13-1.11.38-1.62h-.76Zm0,6.87h.38v.86h-.38v-.86Zm.38-21.36v.76h.38v-.76h-.38Zm0,8.1v.76h.38v-.76h-.38Zm.76-5.24l-.38.76v.38c.51-.25.92-.38,1.24-.38,0-.51-.29-.76-.86-.76Zm0-1.24v.38h.86v-.38h-.86Zm.86-1.24v.86h.38v-.86h-.38Zm1.62,5.24v.86h.38v-.86h-.38Zm.38-2.77v.76h.38v-.76h-.38Zm0,15.25v.86h.38v-.86h-.38Zm1.62-21.36v.86h.38v-.86h-.38Zm.38-20.59v.86h.38v-.86h-.38Zm0,43.95v1.62h.38v-1.62h-.38Zm1.24-18.88v1.15h.38v-1.15h-.38Zm.76,4.39l-.38,1.62h.76v-1.62h-.38Zm3.62-12.49v1.24h.38v-1.24h-.38Zm2-8.1l-.38,1.62c.38,0,.8-.38,1.24-1.15l-.86-.48Zm-.38,2.1v.76c.57,0,.86-.25.86-.76h-.86Zm.38-8.87h.86v.38h-.86v-.38Zm.48,4.39v.86h.38c.38,0,.76-.41,1.14-1.24h-.38c-.51.25-.89.38-1.14.38Zm.38-1.62v.38l3.62-2.38v-.38h-.38c-2.04.95-3.12,1.75-3.24,2.38Zm2.77.86c0,.45-.8,1.11-2.38,2v1.14c1.59-1.59,2.67-2.38,3.24-2.38v-.76h-.86Zm-2,4h.86c0-.82.38-1.24,1.15-1.24v-.76c-.32,0-.99.67-2,2Zm2-5.24v.38c.82,0,1.24.41,1.24,1.24h.86c-.45-1.08-.86-1.62-1.24-1.62h-.86Zm1.62-1.62v.86h.48v-.86h-.48Zm.48-4.39v.76c.51,0,.76-.25.76-.76h-.76Zm0,10.87h.76v.38h-.76v-.38Zm.76,29.36h.38v.86h-.38v-.86Zm1.24-39.47v.76h.38v-.76h-.38Zm2,45.19v3.24h-.38l-.86-.48.38-.76v-.38l-.76.38-.38-.86c0-.44.67-.82,2-1.14Zm-1.62-9.34v.48c.06.51.32.76.76.76v-.38c-.26,0-.38-.13-.38-.38h.86v-1.24h-.48c-.51.06-.76.32-.76.76Zm1.62-41.09c.25,0,.38.13.38.38l.86-.38h.38v.76h-2.48c.13-.51.41-.76.86-.76Zm-.86,3.24v.38h.86v-.38h-.86Zm3.62,37.09l-.76,3.62v2h-.38c-.89-.51-1.56-.76-2-.76h-.48v.38c1.65,0,2.48.67,2.48,2h.76c0-.51.13-.76.38-.76l-.38-.86v-1.62l.38-.76.86.38h.38v-1.24h-.76c.06-.51.32-.76.76-.76l-.38-.86.38-.76h-1.24Zm-2.38-6.01c0,.64-.26,1.3-.76,2v.76h.76c0-1.08.29-2,.86-2.77h-.86Zm-.76,7.63v1.24c.51,0,.76-.29.76-.86v-.38h-.76Zm.76-8.49v.38h.86v-.38h-.86Zm.38,10.11v.38h.86v-.38h-.86Zm.48-13.35v.86h.38v-.86h-.38Zm0,5.24v.38h1.14v-.38h-1.14Zm.76,3.62v.86h.38v-.86h-.38Zm.76,11.73c0,1.02-.26,1.81-.76,2.38,1.08,0,1.62.41,1.62,1.24h.38v-.76c-.51,0-.76-.95-.76-2.86h-.48Zm-.38-20.59c.25.51.38.92.38,1.24h.48v-1.24h-.86Zm0,24.21v1.24h.86v-.48c0-.51-.28-.76-.86-.76Zm.38-33.84v.38h.86v-.38h-.86Zm2.86,7.63c0,1.46-.41,2.42-1.24,2.86l.48,2c0,2.16-.7,3.24-2.1,3.24v.38c.45,0,.99.26,1.62.76.7-4.58,1.53-6.87,2.48-6.87.51-.25.89-.38,1.14-.38v-.38c-1.34,0-2-.54-2-1.62h-.38Zm-2.38,18.97l-.48.76v.48h.48c0-.57.25-.86.76-.86v-.38h-.76Zm-.48,2v.38h.86v-.38h-.86Zm.48-11.25v2c.63-.57,1.17-.86,1.62-.86,0-.38-.54-.76-1.62-1.14Zm.38-5.24v.38h.76v-.38h-.76Zm.38-14.11v.76h.38v-.76h-.38Zm.86,30.22c0,.25-.16.63-.48,1.14v.48h.48c0-.32.13-.73.38-1.24v-.38h-.38Zm-.48,2.76v1.62h.48v-1.62h-.48Zm.48-26.22v2.1h.38v-2.1h-.38Zm0,18.97c.06.57.32.86.76.86v-.86h-.76Zm0,3.24v.86h.38v-.86h-.38Zm.76,7.63v.86h-.76c.06-.57.32-.86.76-.86Zm.38-29.36v1.15h.48v-1.15h-.48Zm0,8.87c0,.26.16.38.48.38-.32.51-.48.92-.48,1.24v.38h.48c0-.44.25-.99.76-1.62l-.76-.38h-.48Zm0,5.63v.38h.86v-.38h-.86Zm0,5.63c.13.57.41.86.86.86.51,0,.76-.28.76-.86h-1.62Zm0,2.86v.76h.48v-.76h-.48Zm1.24-17.73c0,.51-.26.76-.76.76.06.57.32.86.76.86,0-.32.13-.73.38-1.24v-.38h-.38Zm-.76,2.38v.38h.76v-.38h-.76Zm.38-14.49v.76h.38v-.76h-.38Zm0,24.98c.06.51.32.76.76.76v-.76h-.76Zm.38-15.35c.06.57.32.86.76.86h.48c0-.57-.28-.86-.86-.86h-.38Zm0,12.49v.86h.38v-.86h-.38Zm0,6.1v.76h.38v-.76h-.38Zm0,7.25h.76v.38h-.76v-.38Zm.38-19.73v.76h.38v-.76h-.38Zm.38-29.84v.76h.86c0-.51-.29-.76-.86-.76Zm0,36.7v.76h.48v-.76h-.48Zm.48,1.15v.86h.38v-.86h-.38Zm.76-10.87v.86h.38v-.86h-.38Zm.38,20.97v.86h.48v-.86h-.48Zm.48-16.49v.76h.38v-.76h-.38Zm.38-5.72v.48h.76v-.48h-.76Zm0,2.1c.25.51.38.89.38,1.14.51,0,.76-.25.76-.76v-1.24c-.76.26-1.15.54-1.15.86Zm.76,6.39v.48h.86v-1.24c-.57.06-.86.32-.86.76Zm.38-4.77v.76h.48v-.76h-.48Zm0,1.15v1.24c.57,0,.86-.28.86-.86l-.86-.38Zm0,16.97h.48v1.24h-.48v-1.24Zm.48-20.97v.38h.76v-.38h-.76Zm.76,18.11h.38c.57.13.86.42.86.86v.76h-.86v.86h.86c0,.38-.41.76-1.24,1.15,0-.57-.13-1.11-.38-1.62.25-.44.38-1.11.38-2Zm0-19.73v1.24h.38v-1.24h-.38Zm.38,6.48l-.38,2v.38h.38v-.76c.57,0,.86.38.86,1.14h.38v-1.14c-.38-1.08-.8-1.62-1.24-1.62Zm0,6.87h.86v.76h-.86v-.76Zm.48-31.08v.38c.06.57.32.86.76.86v-.48c0-.51-.26-.76-.76-.76Zm.38,34.7h.76l-.38,2c-.51,0-.76-.29-.76-.86.25-.51.38-.89.38-1.15Zm0-16.97v.76h.38v-.76h-.38Zm1.24-20.12v2h.76c0-.32.13-.73.38-1.24l-1.14-.76Zm2.38,25.74l.38,1.62c-.38,0-.8.54-1.24,1.62.32.45.48.99.48,1.62-.89,0-1.56.13-2,.38v-1.62h.38l.76.48c.19-2.73.6-4.1,1.24-4.1Zm-.38-2h.76v1.62h-.76v-1.62Zm1.14-3.24h.48v1.24c0,.51-.28.76-.86.76l-.38-.76v-.38c.06-.57.32-.86.76-.86Zm.48-20.97v.48h.76v-.48h-.76Zm0,1.62v.86h.76v-.86h-.76Zm5.63,49.57h.76c.82.32,1.24,1.14,1.24,2.48,1.08-.89,1.62-1.43,1.62-1.62.44.25,1.11.38,2,.38v.86h-.76l.38.76-.38,2c-.57,0-.86-.54-.86-1.62h-.38c-2.04,0-3.24.54-3.62,1.62h.38l-.76,1.62h.38l-1.24,2v.86l.38.76c-.89,0-1.94,2.83-3.14,8.49h-.86c0-.26-.13-.67-.38-1.24.32,0,1.24-2.42,2.77-7.25h.48l-.48-.76c.13-.57.41-.86.86-.86l-.38-.76c.38-1.08.76-1.62,1.14-1.62l-.38-.86c0-1.59.67-2.38,2-2.38v-.38c-.76,0-1.15-.28-1.15-.86l.76-.38-.38-.76v-.48Zm-3.62-50.72l-.38.76h1.14c0-.51-.26-.76-.76-.76Zm-.38,12.87h.38c.51-.25.89-.38,1.15-.38v-.86h-.38c-.38,0-.76.41-1.14,1.24Zm0,5.24h.76v.38h-.76v-.38Zm.76-14.97h.38l2-.38c0,.26.16.38.48.38,0-1.01,1.05-1.81,3.15-2.38v-.76h-.76c-3.5,1.84-5.24,2.89-5.24,3.14Zm0,7.25v.48h.76v-.48h-.76Zm1.62-10.01v.76h.38v-.76h-.38Zm0,7.25v.38h1.24v-.38h-1.24Zm.38-1.24v.38h1.62v-.38h-1.62Zm1.62,61.68v.48c0,.51-.26.76-.76.76v-.38c.06-.57.32-.86.76-.86Zm-.38-3.24h.38v.86h-.38v-.86Zm2-20.5h.38c.57.06.86.32.86.76-.57.13-.86.41-.86.86v.38h.86v.38c-1.02,1.65-1.69,2.48-2,2.48l.38.76v.38h-.38c-.57,0-.86-.26-.86-.76.57-1.15,1.11-2.89,1.62-5.24Zm-1.62,8.01v.48h1.24v-.48h-1.24Zm.38,9.34c.57.06.86.32.86.76,0,.38-.41.79-1.24,1.24v-.38c.25-.51.38-1.05.38-1.62Zm0-56.54v.48h.48c.51-.32.89-.48,1.14-.48v-.38h-.38c-.51.25-.92.38-1.24.38Zm0,1.24v.38h.86v-.38h-.86Zm.48,7.72h.76c0,.51-.26.76-.76.76v-.76Zm0,45.95h.76v1.14h-.76v-1.14Zm0,9.25l.76-1.24c.51.32.92.48,1.24.48m-1.62-71.03v.86c.51,0,.76-.28.76-.86h-.76Zm0,14.97h.76v.38h-.76v-.38Zm1.62,25.36c.25,0,.79.54,1.62,1.62l.76-.38,1.24.76v-.76c-.25-.51-.38-.92-.38-1.24.44.26,1.11.38,2,.38v.86h-.86l.38.76v.38c-.76,0-1.15.29-1.15.86h1.15v1.24h-1.15c-.57,0-.86-.28-.86-.86.32,0,.48-.13.48-.38-.32,0-.48-.13-.48-.38.32,0,.48-.16.48-.48h-1.24l.38.86v.38l-.76-.38h-.86c-.51.06-.76.32-.76.76v1.24h-1.24c.82-2.86,1.24-4.61,1.24-5.24Zm0,17.35h.76l.38,1.62h-.38l-.76-.38c0,1.08-.29,1.62-.86,1.62l-.38-.86v-.38c.82,0,1.24-.54,1.24-1.62Zm-1.24,11.25h.38c.38,0,.79.41,1.24,1.24h-1.62v-1.24Zm2.38-4.77h.86l-1.24,1.62v.76l1.62-1.24v.48c-.19,1.02-.45,1.53-.76,1.53l-.86-.38c-.51.25-.92.38-1.24.38.57-2.1,1.11-3.15,1.62-3.15Zm-.38-52.05h.38c0,.51-.26.76-.76.76h-.38c.06-.51.32-.76.76-.76Zm2,35.08h.48v1.62h-3.24v-1.24l2,.38c.06-.51.32-.76.76-.76Zm-2.38-5.24v.76h.38v-.76h-.38Zm.76,9.73h.86c0,.51-.29.76-.86.76v-.76Zm.48-40.33h.38v.76h-.38v-.76Zm0,28.98h.38v.86h-.38v-.86Zm0,8.87h.38c.38,0,.79.54,1.24,1.62h-.48c-.38,0-.76-.41-1.15-1.24v-.38Zm0,11.73h.76v.76h-.76v-.76Zm.38-25.84v1.62c.51,0,.76-.25.76-.76,0-.57-.26-.86-.76-.86Zm5.24,18.11h.38v1.62l-.38.86c.25.51.38.92.38,1.24l-.76-.48c0,.82-.16,1.24-.48,1.24l.48.76c-.83.89-1.24,1.59-1.24,2.1h-.38c0-.32-.16-.73-.48-1.24.57,0,.86-.29.86-.86h-.38l-2,3.24-.48-.76.86-1.24-.86-.38v.76h-.76v-.38c.25-.51.38-.92.38-1.24h.38l.86.48c0-.83.54-1.49,1.62-2,.06.51.32.76.76.76,0-.32.41-1.81,1.24-4.48Zm-4.86,15.35c.57.06.86.35.86.86l-1.24.76v-.38c.25-.51.38-.92.38-1.24Zm1.24-30.22c1.08.26,1.62.92,1.62,2h-.48c-.45-.25-.95-.38-1.53-.38,0,.26-.16.38-.48.38l-.38-.76c0-.38.41-.79,1.24-1.24Zm-.86-32.22v.38h1.24v-.38h-1.24Zm.48,22.98l-.48,1.62h.86v-1.62h-.38Zm-.48,16.49h.86v1.24h-.86v-1.24Zm1.24,8.87c0,.25.13.38.38.38-.26,1.91-.64,2.86-1.14,2.86h-.48c0-.76.28-1.56.86-2.38-.25,0-.38-.16-.38-.48l.76-.38Zm.38,6.86h.86v.76c-.83,3.49-1.65,5.24-2.48,5.24v-.38c1.08-2.42,1.62-4.29,1.62-5.63Zm-1.62,7.25v-.76m.48-34.32v.38h2c0-.51-.29-.76-.86-.76-.51.26-.89.38-1.14.38Zm1.53-7.25c0,1.08-.38,1.62-1.15,1.62v.76l.76-.38c0,.25.13.38.38.38,0-.89.16-1.56.48-2v-.38h-.48Zm-.76-1.24v1.24h.38v-1.24h-.38Zm0,10.96v.38h.76v-.38h-.76Zm.76,14.11h.86v.38c0,.51-.29.76-.86.76v-1.15Zm.48-28.22v.76h.76c0-.51-.25-.76-.76-.76Zm0,25.74h.76v1.24h-.76v-1.24Zm0,22.21c.51-1.08.76-2.04.76-2.86h.86m-1.24-43.09v.76h.38v-.76h-.38Zm.38,19.74h.86v.38l-.48,2h-.38c0-.26-.13-.64-.38-1.15.25-.57.38-.98.38-1.24Zm1.62-2.38v.76c0,.51-.26.76-.76.76h-.48v-.38c0-.38.41-.76,1.24-1.14Zm-.76,23.36h.76v.76h-.76v-.76Zm.38-47.19v.76h.38v-.76h-.38Zm.76,20.59h.48l-.48,2h-.76v-.38l.38-.86c-.26,0-.38-.13-.38-.38l.76-.38Zm1.24-4.1v.86l-.38,2h-.38c-.57,0-.86-.25-.86-.76l.86-.48-.48-.76v-.38c.32,0,.73-.16,1.24-.48Zm-.76,14.59h.76c0,.44-.26,1.24-.76,2.38.25.51.38.92.38,1.24-.51-.26-.92-.38-1.24-.38.57-2.04.86-3.12.86-3.24Zm-.86,4h.38v.76h-.38v-.76Zm.86,9.25v1.24h-.86v-.38c.06-.57.35-.86.86-.86Zm-.48-39.85v.76h.86v-.76h-.86Zm0,22.12c.57.06.86.35.86.86v.38h-.86v-1.24Zm0,16.59h.48v.76h-.48v-.76Zm2.86-2.48c0,.7-.13,1.78-.38,3.24h-.48c0-1.08-.38-1.62-1.15-1.62v-1.62c.06-.51.32-.76.76-.76.25.51.38.89.38,1.14h.48c0-1.4.54-2.73,1.62-4h.38v.86c-.26.83-.38,1.75-.38,2.77m-2.86-33.08h1.24v3.24h-1.24l.38-2c-.26-.51-.38-.92-.38-1.24Zm.38,17.73h.86c-.26,2.48-.67,3.72-1.24,3.72v-.86l.38-2.86Zm0-26.12h.86v-.86c-.57.07-.86.35-.86.86Zm1.24,17.73v1.62h-.86v-.86c.13-.51.41-.76.86-.76Zm-.86,6.87h.86v.76h-.86v-.76Zm2.1,9.63h.76v.38c-.51,1.91-1.3,2.86-2.38,2.86v-.86c1.08-1.21,1.62-2,1.62-2.38Zm0-22.21c0,.32-.16.73-.48,1.24h.86v-1.24h-.38Zm-.48,14.59h.86c0,.45.25,1.24.76,2.38-.51,1.4-.76,2.48-.76,3.24h-.86c.32-2.42.6-3.91.86-4.48-.57,0-.86-.25-.86-.76v-.38Zm.48-25.45v.86h.38v-.86h-.38Zm.38-3.62v.86h.38v-.86h-.38Zm1.14,3.62c-.51,2.42-.76,4.16-.76,5.24v2l-.38.86h.76c0-.63.28-3.21.86-7.72v-.38h-.48Zm-1.14,8.48v.86h.76c0-.57-.26-.86-.76-.86Zm.76,22.21h.38v.38c-.51.63-.76,1.17-.76,1.62h-.38v-1.24c.06-.51.32-.76.76-.76Zm.38-10.11h.86v.38l-.38,2.86h-.86v-.38l.38-2.86Zm.48-22.6c0,.64-.16,1.18-.48,1.62h.86v-1.62h-.38Zm0-1.24c.06.57.32.86.76.86v-1.62c-.51.07-.76.32-.76.76Zm.38-2.38v.38h.76v-.38h-.76Zm0,22.98h.76v.86h-.76v-.86Zm1.24-2.77v1.15h.76c-.25-.51-.38-.89-.38-1.15h-.38Zm2-6.86c.51.06.76.32.76.76,0,.57-.26.86-.76.86v-1.62Zm1.62,4h.76v2.86h-.76v-1.24c0-.25.13-.38.38-.38l-.38-.86v-.38Z"/><path class="d" d="m435.62,85.54l.76-.09-.09,1.91-.76.19.09-2Zm31.56-35.08h.38l1.24.57c.19-.06.29-.19.29-.38v-.1h.09c.38,0,1.59.45,3.62,1.34l-.09-.38h-.09c-.19,0-.29-.09-.29-.28l.67-.09c.13.51,1.68,1.3,4.67,2.38.57.83.98,1.24,1.24,1.24h.09c.45-.32.8-.48,1.05-.48,3.11,3.18,4.83,5.85,5.15,8.01-.19.06-.28.19-.28.38v.09c.51,0,.79.22.86.67l.19,1.05v.09c0,.19-.09.32-.29.38l.48.67v.67c0,.32-.19.51-.57.57.32.45.51.83.57,1.14-.06,4.9-.45,7.37-1.14,7.44-.06-.19-.19-.29-.38-.29h-.09v.19c0,.45-.16,1.05-.48,1.81l.09.38.38-.09.09-1.53.38-.1.29,1.53v.09c0,.38-.45.92-1.34,1.62,0-.19-.09-.28-.29-.28h-.09c-1.27,3.31-1.91,5.09-1.91,5.34h-.38l-1.24-.57-.38.09.09,2.67-.76.19-.86-.29v.09c0,.38-.32.8-.95,1.24h-.38l.28-.76h-.38c-1.02,1.97-1.62,2.99-1.81,3.05h-.38l-.09-.76-.38.09.09.76c.25.13.54.19.86.19.19,0,.41-.03.67-.09v.29c0,.32-.19.54-.57.67-.06-.25-.22-.38-.48-.38v.1c0,.38-.32.8-.95,1.24l-.76-.28v.09c0,.38-.45.92-1.34,1.62l-.29-1.81h-.38v-.09c0-.44.48-.73,1.43-.86l-.28-1.53c-.38.76-2.04,2.58-4.96,5.44v.19c0,.26-.06.57-.19.95.25,0,.41.13.48.38-.32,0-1.08.89-2.29,2.67h-.38l-.09-.76-1.14.19.48.76-2.58.76-.38.1-.1-.76-1.14.19.09.67h-.28c-.57,0-.89-.32-.95-.95l-.38.09.09.76-.76.09c-.06-.38-.51-.82-1.33-1.34-1.4.38-2.1.86-2.1,1.43v.09c-1.4-.7-2.16-1.36-2.29-2l-.76.09.19.76-.38.09c-3.56-.7-6.9-2.22-10.01-4.58-1.14-.89-1.88-2.19-2.19-3.91l.38-.09c-.57-1.65-1.11-2.73-1.62-3.24l-.09-.67.67-.19-.19-1.53-.76.19-.09-.38c.57-.63.86-1.34.86-2.1v-.38c1.21-2.48,2.19-5.97,2.96-10.49l1.72-1.43-.57-.67c.95-.19,1.62-1.84,2-4.96l.38-.09.09.76c2.99-4.07,5.3-6.48,6.96-7.25.06.51.76.92,2.1,1.24l.09.38c.25-.06.6-.25,1.05-.57h.29c.44,0,1.14.13,2.1.38.38-.32.86-.51,1.43-.57l.38-.09.86.28c0-.51.19-.82.57-.95l.76-.09.09.38-3.15,2.48.38-.09c.44-.32.92-.54,1.43-.67.63.57.99,1.18,1.05,1.81l.76-.48,1.14-.19v.38l-.57,1.24c.57.32,1.05.48,1.43.48h.19l.1.38v.09c0,.19-.1.32-.29.38l.48.67v.38c-4,4.83-6.61,11.16-7.82,18.97l.19.76,3.72-.57.09.76.38-.09v-.38c0-.95.67-1.56,2-1.81v-.19c0-.57.38-1.34,1.14-2.29.38-1.46,1.05-2.99,2-4.58l-.48-.67.95-.95-.48-.76c0-.51.22-.79.67-.86,0,.25.13.38.38.38,1.21-5.34,1.81-9.47,1.81-12.39,0-.82-.07-1.56-.19-2.19l-.86-.19.29-.86-.29-1.53-1.33-1.33c.19,0,.28-.1.28-.29v-.09l-.67.09-.09-.38.28-.86h-.09c-.19,0-.32-.09-.38-.28l-.67.48-.38.09-.09-.76c.38-.06.82-.38,1.34-.95l.09.38.67-.57c.38.13.7.19.95.19h.29l-.57-.67v-.38Zm-25.17,21.74l.09.76.76-.09c-.07-.44-.29-.67-.67-.67h-.19Zm2.1-8.49h.38l.19.76h-.38l-.19-.76Zm.09,3.15l.1.38.76-.19-.09-.38-.76.19Zm12.59,8.39v.38c0,.45-.07.86-.19,1.24l.1.38.38-.09v-.19c0-.38.16-.86.48-1.43v-.38l-.76.09Zm.95-1.24v.38l.38-.09c.51-1.4.76-2.32.76-2.77v-.09c-.51.13-.89.99-1.14,2.58Zm2.19-17.73l.38-.09.09.76-1.05.19c0-.51.19-.79.57-.86Zm-.57,13.16l.09.76c.45-.06.67-.29.67-.67v-.19l-.76.09Zm1.91-9.53l.76-.09v.19c0,.38-.19.61-.57.67l-.19-.76Zm.67,38.52l.09.38.76-.1-.09-.38-.76.09Zm4.1-40.42l.76-.09v.38l-.76.09v-.38Zm2.67,32.03l.19.76.29-.09-.09-.76-.38.09Zm3.91-2.57v.38l.76-.1v-.38l-.76.09Zm3.62,1.34h.38v.28c0,.32-.19.51-.57.57h-.38c0-.51.19-.79.57-.86Zm4.29-7.25l.09.76c.19.45.44.67.76.67h.1l-.1-.76c-.06-.45-.28-.67-.67-.67h-.19Zm.28-.76v.38l.76-.1v-.38l-.76.09Zm1.34-1.34l.09.67h.38l-.09-.76-.38.09Zm1.72,1.24l.09.76v.29c0,.32-.19.51-.57.57l-.19-.76c0-.51.22-.79.67-.86Z"/><path class="d" d="m492.06,92.5h.76l.09,1.53h-.76l-.09-1.53Zm12.2-54.15c.44,1.4,1.3,2.45,2.57,3.15l.09.76h.38l.19-2.29.76-.09.67,3.43.38-.09-.09-1.14h.76l.09,1.53.57,1.81.76-.09.09-3.43h.76l.76,4.48v.76l.76-.09.19,1.53c0,.26-.13.42-.38.48l.48.67-.38.86h.1c.38,0,.76.35,1.14,1.05l-.67.38c-.07-.19-.19-.28-.38-.28h-.09l.09.76h.28c.32,0,.48.1.48.29v.19c0,.26-.09.57-.28.95l.57,1.53c-.38,6.61-1.08,10.49-2.1,11.63,0-.25-.13-.38-.38-.38v.76h.19c.63,0,.99.22,1.05.67v.38l-.76.09.57,1.53c-.95,1.21-2.16,6.52-3.62,15.92-.25.06-.38.22-.38.48l.19,1.91h-.76l-.09-.76-.38.09c-.45,4.26-.67,7.09-.67,8.49v.76h-.76l-.28-3.05-.38.1v.19c0,.95-.51,2.32-1.53,4.1v.38l-.38.1-.09-.76h-.76l-.67.48c-.07-.25-.22-.38-.48-.38l.19,1.53h.76v.38l-1.53.09-.29-3.05.19-2.67h-.28c-.32,0-.48-.09-.48-.28l-.76.38h-.09c-.19,0-.29-.1-.29-.29-.83.06-1.37,1.11-1.62,3.15l-.38.09-.19-1.53h-.76l.09,1.14-.76.09v-.38c-.07-.63-.09-1.33-.09-2.1,0-2.92.41-6.61,1.24-11.06l-.76.09c-.51,3.88-.86,5.82-1.05,5.82.06.26.22.38.48.38-.32,1.65-.48,2.73-.48,3.24v.19l-.38.09c-1.15-1.65-2.07-2.48-2.77-2.48h-.09l-.1-.76h.38c.51.19.89.28,1.15.28v-.76c-.07-.45-.42-.67-1.05-.67h-.19v-.38c0-.51.22-.79.67-.86,0,.25.13.38.38.38l.38-.76-1.72-1.43v-.38l1.53.67c-.7-2.73-1.08-4.48-1.15-5.24l.67-.48c.06.26.22.38.48.38l.28-.86-1.14.1-.09-1.53h.38l.76.29v-.38l-.57-1.81.19-2.38h.76l.09,1.15.38-.09-.19-1.91c-.25-.45-.41-.8-.48-1.05l.86.29-.09-.76h-.29c-.32,0-.48-.09-.48-.28v-.09c0-.7.45-1.08,1.34-1.15l-.09-1.14h-.76c.25-3.05.89-4.64,1.91-4.77l-.09-1.15c0-.19-.09-.28-.28-.28h-.1c2.1-11.69,3.37-17.8,3.81-18.3l-.48-.76v-.76c2.03-2.1,3.05-3.34,3.05-3.72h.76l.19,1.43-.38.86.38-.09.76-.38-.57-1.91v-.38c.06-.51.29-.76.67-.76Zm-11.06,54.05h.76l.09.76h-.76l-.1-.76Zm.1,1.53h.76l.09,1.15h-.76l-.09-1.15Zm.95-6.58l.09.76h.38l-.1-.76h-.38Zm1.05-19.16l.09.76.38-.09-.09-.76-.38.09Zm.76,30.51l.76-.09v.38c-.19.57-.29.99-.29,1.24h-.76v-.38c.19-.51.28-.89.28-1.15Zm.76-18.02l.38.67.09.38-.76.09.1,1.14,1.14-.09-.09-.38.09-3.81c-.38,0-.7.67-.95,2Zm.29,12.58v.38c.13.45.38.67.76.67h.09l-.09-.38c0-.44-.19-.67-.57-.67h-.19Zm.48-16.87c0,.25-.1.63-.29,1.14l.76.38.28-1.62-.76.1Zm-.1,21.83l.76-.09-.19,2.29-.76.09v-.38l.19-1.91Zm2.19-5.53v.19c0,.26-.09.57-.29.95l.76-.09-.09-1.14-.38.09Zm-.09-1.53l.09.76.38-.09-.09-.76-.38.1Zm.76,4.48l.48.76c-.19.38-.28.7-.28.95v.19l-.76.09v-.09c0-.19.09-.32.29-.38l-.38-.67c0-.51.22-.8.67-.86Zm-.09-9.92l.09.76h.38l-.09-.76h-.38Zm.67,7.63l.76.29-.09-1.15c-.45.13-.67.38-.67.76v.09Zm.48-3.91l-.19,2.29h.76l.19-2v-.38l-.76.09Zm.28-1.14v.38l.76-.09v-.38l-.76.1Zm.29-1.24v.38h.76v-.38h-.76Zm.57-5.72l.19,1.53c.45-.06.67-.28.67-.67v-.19l-.09-.76-.76.09Zm.86,14.01h.76l-.09-1.14c-.45.13-.67.38-.67.76v.38Zm.67-6.1l.09,1.14.38-.09-.19-1.15-.29.1Zm.19-2v.38h.76v-.38h-.76Zm.48-3.43v.76h.38v-.76h-.38Zm1.05-5.82v.76l.76-.1c0-.44-.19-.67-.57-.67h-.19Zm.95,12.11l-.09,2.77v.38l.38-.09.19-1.91-.09-1.15h-.38Zm-.09,7.72l.76-.1.09.38c-.19.38-.28.7-.28.95v.19l-.38.09-.19-1.53Zm.48-26.5v.38c.13.51.41.76.86.76l-.09-.38c0-.51-.26-.76-.76-.76Zm.19,16.11l-.19,1.91v.38h.38l.19-2v-.38l-.38.09Zm.19-2.38l.1,1.53h.38l-.09-1.53h-.38Zm.29-1.15l.09.76h.38l-.09-.76h-.38Zm.19-1.91l.76-.09v-.76c-.51.13-.76.41-.76.86Zm.67,7.25l.76-.1-.19,2.67-.76.09.19-2.67Zm0-26.41l.09.76.38-.09-.09-.76-.38.09Zm1.34-7.06v.1c0,.51-.42,1.53-1.24,3.05l.38.76c-.13.32-.19.7-.19,1.14v.76h.38l1.05-5.44v-.38h-.38Zm-1.15,22.31l.09,1.15h.38l.19-2c-.45.13-.67.38-.67.76v.09Zm.09,6.1l.1,1.14h.38l-.09-1.14h-.38Zm.38-8.87l.09.76h.38l-.09-.76h-.38Zm.19,6.58l.09.76.38-.09-.1-.76-.38.09Zm.09-8.1l.09.76h.38l-.09-.76h-.38Zm.57-2.67l-.29,1.53v.38h.38l.29-1.62v-.38l-.38.1Zm0-17.64l.09.76h.38l-.09-.76h-.38Zm1.34,11.34c0,.26-.09.64-.29,1.15l.09.76h.38v-.38c0-.45.06-.83.19-1.15v-.38h-.38Zm2.29-18.59h.38v.76h-.38v-.76Zm12.49-3.34c2.86,1.72,4.7,2.57,5.53,2.57h.1c4.19,2.04,6.7,4.64,7.53,7.82v1.34c0,.7-.03,1.53-.09,2.48.25.95.67,1.43,1.24,1.43h.09v.76h-.38l-.76-.29.09,1.53h.28c.32,0,.51.1.57.29v.48c0,1.02-.16,2.04-.48,3.05l.38-.09c0,.26-.13.42-.38.48.38,1.27.57,2,.57,2.19-2.54,19.51-3.81,29.94-3.81,31.27v.1h-.38l.38.76v.67c0,.82-.19,1.27-.57,1.33.06.19.19.29.38.29h.1l-.29,1.91.09,1.14c.57,6.93,2.77,11.73,6.58,14.4l5.72-.48c.25,0,.38.13.38.38,5.21-1.08,9.47-2.1,12.78-3.05h.76l.09.67c-1.14.13-2.76.67-4.86,1.62v.38l.57,1.81c-.25.06-.63.22-1.14.48,0-.45-.19-.67-.57-.67h-.19v.57c0,1.4-.45,2.13-1.33,2.19l-1.53.19-.76-.38c-.19.83-.92,1.27-2.19,1.34l-.76.09h-.38c-.38,0-.76-.09-1.15-.28-.45.32-.95.51-1.53.57l-3.91-1.24c0,.25-.13.41-.38.48,0-.32-1.05-.76-3.14-1.33v-.38l-.76.09.38.76-2.19.19.67-1.24-.1-.76-1.91.19.86,1.05v.38h-.38c-1.71-.51-2.8-1.18-3.24-2l-.67.48c-.7-.45-2.04-.99-4-1.62l-.19-1.91c-.19.06-.28.19-.28.38v.1h-.09c-1.02,0-1.85-1.08-2.48-3.24h-.38c0,.25-.13.41-.38.48-2.48-2.61-4.01-6.96-4.58-13.06l-.19-3.05c-.07-1.02-.09-2.13-.09-3.34,0-7.5,1.43-19.89,4.29-37.18v-.29c0-.82.22-2.67.67-5.53-.7-1.65-1.4-2.48-2.1-2.48h-.1c-2.54.7-3.91,1.08-4.1,1.14v-.76l1.34-1.71v-.38c-.76.57-1.37.89-1.81.95l-.09-.76.76-.09v-.38l-1.53.19,3.91-3.05-.76.09-.1-.76c.89-.06,1.53-.25,1.91-.57.38.19.7.29.95.29h.19c0-.51,1.11-.99,3.34-1.43Zm-5.63,55.2l.09.76h.38l-.09-.76h-.38Zm3.81-9.06l.09.67h.38l-.09-.76-.38.09Zm.76-9.63c0,.57-.07,1.59-.19,3.05l.09.76.38-.09v-.86c0-1.02.16-2,.48-2.96l-.76.09Zm4.48,39.75v.38l.76-.09v-.38l-.76.09Zm4.77,1.91v.38l.76-.09v-.38l-.76.09Zm1.81-41.09l.19,1.15.38-.1-.19-1.14-.38.09Zm.76-4.67l.1.76.38-.09-.09-.76-.38.09Zm26.69,39.47l1.91-.19.1.76c-.38,0-.86.29-1.43.86h-.38l-.19-1.43Z"/><path class="d" d="m557.93,42.54c1.84.26,2.77.83,2.77,1.72l1.15-.86h.38v.76l.76-.48h.38c.63.57,2.22,1.24,4.77,2,1.27.45,1.97,1.4,2.1,2.86l.67-.38c.32.45.48.8.48,1.05v.38c0,1.65-.76,5.15-2.29,10.49l.48.76v.38l-1.24,3.91.76.29c-.51,3.81-.99,6.42-1.43,7.82.06.26.22.61.48,1.05-.07.95-.09,1.78-.09,2.48v1.05l.57,3.72,1.53-.09,3.72-2.57h.76c.06.63.73.95,2,.95h.67c.76-7.56,1.78-13.51,3.05-17.83l-.48-.67c2.92-10.61,5.21-16.14,6.87-16.59l.86.38c.44-.32.79-.48,1.05-.48l.48.76c-.32,1.02-.67,1.53-1.05,1.53.06.7.54,1.05,1.43,1.05h.19v.38l-.29.76h.38c1.21-2.1,2-3.18,2.38-3.24h.38l.09.76-.76.09v.38h.28c1.15,0,2.51.67,4.1,2l.76.29.76-.48c.89,0,1.97.83,3.24,2.48h.38v.38l-1.05,2,.86.29c-.13,1.53-.48,2.32-1.05,2.38l.48.76h-.76l.1,1.53h.38v-.29c0-.82.22-1.27.67-1.34v.67c0,1.14-.32,1.84-.95,2.1-.07-.44-.29-.67-.67-.67h-.19c0,.25-.09.63-.29,1.14.51.19.89.29,1.15.29l.09.76c-.38.45-.57,1.18-.57,2.19v.86l-.76-.29h-.38v.38c.51,0,.76.13.76.38l-.19,1.91h-.38l-.86-.29.09,1.53.48.67-.76.48c.32.45.48.83.48,1.14l-.29.76.86,1.43c-.51.06-1.18,1.65-2,4.77l.48.76c-.89,2.61-1.43,5.82-1.62,9.63l-.76.48v-.38c-.51.25-.89.38-1.15.38v.76l.76-.38.48.76c-.76,0-1.15.26-1.15.76.32.51.48.89.48,1.15l-.76.09v-.76l-.76.38v-.38c-.45.32-.95.48-1.53.48v.76h.76v.09c0,.19-.1.29-.29.29.25.45.41.95.48,1.53l.38-.09-.09-1.15-.38.1c.19-.51.28-.92.28-1.24h.76l.95,2.57-1.14.1.86,1.81c-.63.07-.95.57-.95,1.53v.48c.25.51.41.89.48,1.14-.25,0-.38.13-.38.38l1.14-.09v.76c-.83.06-1.27.86-1.34,2.38l-.38.09v-.38l-.09-6.1v-1.15h-.38v.48c0,1.72-.57,2.61-1.71,2.67v.38l1.14-.09.09.76-.76.09.09,1.53.76-.1.09,2.29-.38.09-.76-.38v.38l.48.76-.76.38.48.76.09,2.29c0,.32-.83,1.02-2.48,2.1l-.48-.76-.09-1.53c0-.26.13-.38.38-.38l-1.33-2.19v-.38l.76.28-.09-1.53-.76.09-.09-2.29h-.76l.19-1.91.86.38-.09-.38c-.57-.82-.86-1.46-.86-1.91l.76-.38c-.32-.51-.48-.89-.48-1.15.19-.51.29-.89.29-1.14-.26,0-.38-.13-.38-.38.45-.06.67-.38.67-.95v-.19l.76.28v-.48c0-.57.09-1.05.29-1.43h-.76v.76l-.76.09v-1.05c0-1.34.19-2.03.57-2.1l-.38-.67.29-.86-.76.09v.29c0,.83-.22,1.24-.67,1.24,0,.25.13.38.38.38-.13,2.29-.41,3.47-.86,3.53.25.95.51,1.43.76,1.43h.09c-.51.95-.76,2.38-.76,4.29,0,.7.03,1.46.09,2.29l-.76.09-.09-.76c0-.26.13-.41.38-.48l-.48-.67v-.95c0-.57.16-1.94.48-4.1-.26,0-.41-.13-.48-.38h.38l-.38-.76-.09-1.15.38-.76-.86-.29v.57c0,.64-.09.95-.29.95.06.26.22.38.48.38-.19,3.18-.28,5.53-.28,7.06v.95c-.45.06-.67.19-.67.38v.09c-.76,0-1.34-.86-1.71-2.57,1.14-.57,1.75-1.15,1.81-1.72l-.09-.76c0-.19-.09-.28-.28-.28h-.1l.29-.86-.09-1.43h-.38l.09,1.14h-.76l-.19-2.29-.76.09.28,3.43h-.76l-.1-1.91-.38.09c-.26,1.53-.38,3.12-.38,4.77v1.72l.09,1.14-1.91.09-.57-2.19h.38l.86.28c.32-1.53.48-2.76.48-3.72,0-.32-.03-.6-.09-.86h-.76v.28c0,.32-.1.48-.29.48l.48.76-.38.76c.32.51.48.89.48,1.14l-.76.48c-.26-.51-.42-.89-.48-1.14l.19-3.43c-.06-.44-.61-.92-1.62-1.43l-.76.38h-.09c-1.4,0-5.31-1.62-11.73-4.86-.19.51-.28.89-.28,1.14-.64-.44-1.15-.67-1.53-.67l-.09-.38.76-1.14h-.76v.76h-.19c-1.15,0-1.78-.73-1.91-2.19l-.76.09.09.76h-.38l-2.1-2.1v-.38c.25-.06.38-.22.38-.48-.64,0-1.62-1.21-2.96-3.62-.76,0-1.46-2.6-2.1-7.82l-.09-1.91c0-.25.13-.38.38-.38l-.48-.76v-.38c0-.25.13-.38.38-.38l-.48-.76c.19-.38.28-.7.28-.95v-.19c-.25-.51-.38-.89-.38-1.14h.38l-.48-.76c1.27-9.98,2.61-16.43,4.01-19.35.44-1.59.89-2.38,1.34-2.38l.09.38-.29,2.29c1.15-2.16,1.97-3.24,2.48-3.24Zm-5.62,12.58v.38h.76v-.38h-.76Zm1.05,3.81l.09,1.14.38-.09-.09-1.14-.38.09Zm1.81-12.78v.76h.38v-.76h-.38Zm.28,20.97v.76h.38v-.76h-.38Zm.09,1.53v.76h.38v-.76h-.38Zm2.58,3.72v.76l.38-.09v-.76l-.38.09Zm.67-28.79l-.28,1.62.76-.09.29-1.53h-.76Zm15.73,34.89l1.15-.09.09.38-1.15.09-.09-.38Zm.67,3.34v.76h.38v-.76h-.38Zm2.38,12.49v.38h.76v-.38h-.76Zm0,6.1l.09.38,1.14-.09-.09-.38-1.14.09Zm.95,1.91l.76-.09v.38l-.76.09v-.38Zm2.86,3.24l.76-.09.09.76-.76.09-.09-.76Zm.19-30.6v.38l.76-.09v-.38l-.76.1Zm.09,23.26l.48,1.91h.38l-.09-1.91h-.76Zm.09-20.59v.76l.38-.09v-.76l-.38.09Zm.1-10.01v.76h.38v-.76h-.38Zm.19,3.43c.32.45.48.95.48,1.53h.38c0-.57.09-1.11.28-1.62l-1.14.09Zm.19,2.29l.1,1.15h.38l-.09-1.15h-.38Zm.86,28.98l.57,3.43-.76.09-.09-1.14-.48-1.91.76-.48Zm-.09-34.7v.76l.38-.09v-.76l-.38.09Zm.76-4.67v.19c0,.63-.22.95-.67.95.32.51.48.89.48,1.14-.19.51-.28.89-.28,1.15.51,0,.82-1.02.95-3.05l-.1-.38h-.38Zm.38,38.61l.76-.09.09,1.53-.19,2.67-.76.09v-.38l.09-3.81Zm0,5.34l.76-.1.09,1.15-.76.09-.1-1.14Zm1.05-51.29l-.19,1.91v1.14h-.76c.13.51.41.76.86.76l.48-3.53v-.38l-.38.09Zm-.86,4.2l.09.76h.38l-.09-.76h-.38Zm.28,9.15v.76h.38v-.76h-.38Zm.57,2.67l.09,1.53h.38l-.1-1.53h-.38Zm.28-1.53v.76h.38v-.76h-.38Zm0,33.27l.76-.09v.76l-.76.09v-.76Zm.38-50.15l-.29,1.53v.38h.38l.29-1.53v-.38h-.38Zm-.19,14.97l.09.38.76-.09-.09-.38-.76.09Zm.57-2.76l-.29,1.53.09.38h.38l.29-1.53-.09-.38h-.38Zm.57,30.13c.32.51.48.89.48,1.14h.38l.19-2.29h-.38c-.45,0-.67.32-.67.95v.19Zm.09,1.53v.38h.76v-.38h-.76Zm.09-48.53l.1.76h.38l-.09-.76h-.38Zm0,44.71l.1.76h.38l-.09-.76h-.38Zm.1-9.92v.38l.76-.09v-.38l-.76.09Zm0,5.72l.09,1.15h.38l-.1-1.15h-.38Zm.09-15.64l.09,1.15.76-.09-.1-1.15-.76.09Zm.09,1.53v.38l.76-.09v-.38l-.76.1Zm.09.76v.38l.76-.09v-.38l-.76.09Zm.29-17.26l.09.76h.38l-.09-.76h-.38Zm.38,44.33l.09.76.38-.1-.1-.76-.38.09Zm2.19-56.73l.38-.09.09.38c0,.38-.35.8-1.05,1.24l-.38.09-.09-.38c0-.38.35-.8,1.05-1.24Zm-.76,49.38v.38l.76-.09v-.38l-.76.1Zm1.43-1.34v.38h.76v-.38h-.76Zm1.24-4.67v.76h.38v-.76h-.38Zm.09-3.43l.1.76h.38l-.09-.76h-.38Zm.29-1.15l.09.76h.38l-.09-.76h-.38Zm.48-10.77h.76l-.1-.76c-.45.13-.67.35-.67.67v.09Zm1.24,8.01l.09.38.76-.09-.09-.38-.76.1Zm.19,2.29l.09.76c.45-.06.67-.29.67-.67v-.19l-.76.09Zm.09-4.19c.51-.06.76-.35.76-.86l-.09-.38c-.45.13-.67.38-.67.76v.48Zm0,5.34l.09,1.53.38-.09v-.38c0-.38.09-.76.29-1.14l-.76.09Zm.76-16.49l.09.76h.09c.19,0,.29.09.29.28-.26.07-.38.22-.38.48l.38-.09c.51,0,.76-.25.76-.76l-.09-.38-.67.38-.09-.76-.38.09Zm.57-3.14v.38h.76v-.38h-.76Zm.09,1.14v.76h.38v-.76h-.38Zm2.29-5.53v.38h.76v-.38h-.76Zm.09,1.53v.76h.38v-.76h-.38Zm1.72-8.87v.76h.38v-.76h-.38Z"/><path class="d" d="m631.25,11.56h.38v.38l-.86,1.14-.09.38,1.14.1c.32-1.21.73-1.81,1.24-1.81h.09v.38l-.57,1.81.76.1c.06-.57.25-1.05.57-1.43.44.25.79.41,1.05.48-.07.45-.29.67-.67.67h-.19c.32,1.08.67,1.62,1.05,1.62.25-.95.54-1.43.86-1.43.51.32.89.48,1.14.48l-.09.76-.86,1.05-.09,1.14,1.62-.95.67.48.09-.76,1.15.1.76.48c0-.25.13-.38.38-.38l-.19,2.29h.38c.06-.7.32-1.05.76-1.05h.09l.29.76c-.57,0-1.02.6-1.34,1.81h.09c.45,0,.73-.48.86-1.43h.38l.67.48c-.89,1.34-1.37,2.32-1.43,2.96.45.13.67.38.67.76v.09c-1.02.26-1.56.57-1.62.95l.29.76c-1.65,4.45-2.64,6.67-2.96,6.67v.38c1.4.45,2.38.92,2.96,1.43.13-.44.35-.67.67-.67h.09l1.15.86c.06-.63,1.36-1.02,3.91-1.14,0-.25.13-.38.38-.38,0,.26.13.38.38.38,0-.19.09-.29.28-.29h.09c0,.25.13.38.38.38.13-.44.38-.67.76-.67h.09l1.53.19-.09.76h.38l1.24-.67v.09c0,.19.1.32.29.38.13-1.34,1.11-2,2.96-2,.32,0,.67.03,1.05.1.06-.19.35-.29.86-.29h.38c.76.06,2.57,1.02,5.43,2.86,1.02.06,2.8,1.49,5.34,4.29l.76.09-.09.38-.57,1.91c1.01.06,1.53.35,1.53.86-.38.13-.8.19-1.24.19h-.38l-.1,1.53.76.1c-.06.38-.64.73-1.72,1.05l.1-.76-.38-.09-2.48,1.72-.38-.1.48-.67.09-.38c-1.34.83-2.13,1.24-2.38,1.24h-.09l.09-.76.48-.67-.38-.09c-.26,0-1.21.57-2.86,1.72-.45-.06-.67-.41-.67-1.05v-.19l-1.91.19v-.38l-.76.29h-.38l-1.81-1.33c-.32.13-.7.19-1.15.19h-.38c-.06-1.02-.41-1.56-1.05-1.62l.48-.67v-.1c0-.38-.35-.79-1.05-1.24v.38l.29.86h-.1c-.38,0-.89.32-1.53.95-.19,0-.28-.09-.28-.29v-.09c-3.69.64-5.82,1.3-6.39,2v-.19c0-.38-.22-.57-.67-.57-.07.45-.19.67-.38.67h-.09c-.45-.32-.8-.48-1.05-.48-.45.89-1.08,1.33-1.91,1.33h-.19l.29.76c-2.04.32-3.12,1.11-3.24,2.38-.26,0-.41.38-.48,1.14l-.38-.09v-.76h-.38c-.51,0-.76.22-.76.67h.38c-.7,1.46-1.27,2.19-1.72,2.19h-.09v-.09c0-.19-.09-.32-.29-.38l-1.24,4.86,1.43.57c-.57.95-.89,1.69-.95,2.19l.19,1.91c-.32,1.46-.64,2.19-.95,2.19v.09c0,.19.09.32.29.38-.13,1.72-.54,2.57-1.24,2.57h-.09l-.09.29c.7.13,1.05.41,1.05.86v.09h-.09c-.19,0-.29.09-.29.29l1.14.09-.19,1.53h-.76l.19-1.14-.38-.1c-.13.76-.35,1.65-.67,2.67h.38l-.48.76-.09.76,1.15.09v.38l-1.91.19-.1.76c.25,0,.38-.13.38-.38.95.51,1.43.92,1.43,1.24v.09l-.38-.09-.76-.48-.09,1.53.38.09.76-.28v.38l-1.34,1.33-.19,2.29.38.09c.13-1.21.41-1.81.86-1.81h.1l-.1.67-.48.76c.25,0,.38.13.38.38-.26,0-.41.13-.48.38.25,0,.38.13.38.38-.51.06-.8.32-.86.76v.38h.38l.09-.76c.45.13.67.38.67.76v.1h-.1c-.32,0-.73.57-1.24,1.71l.19,6.2c-.51,0-.8.22-.86.67.25,0,.38.13.38.38h-.09c-.7,0-1.14.73-1.34,2.19l.76.09-.09,1.15-.76-.48v.38c0,.51.22.8.67.86l-.48.67v.76c.57.07,1.15.64,1.72,1.72l-.48.76c0,.32.41,1.24,1.24,2.77v.38l-1.53.29c0-.26-.13-.41-.38-.48l-.86,1.05-.76-.38c-.38.13-.7.19-.95.19h-.19l-.29-.76.48-.67-.76-.48v.38c.19,0,.28.09.28.29v.09l-1.62,1.05c-.57-.57-1.05-.89-1.43-.95l.09-1.14.76.09v-.09c0-.57-.86-2.03-2.58-4.39h.19c.38,0,.57-.22.57-.67l.09-.38h-.09c-.45,0-.7.35-.76,1.05-.38-.06-.83-.89-1.34-2.48l.1-1.05.76.38c-.76-4.13-1.14-7.56-1.14-10.3,0-.89.03-1.68.09-2.38l-.76-.09v4.2l-.76-.09-.09.38c1.14,1.84,1.71,3.72,1.71,5.62,0,.32-.03.67-.09,1.05v.38h-.38v-.09c0-.63-.92-1.59-2.77-2.86l.48-.76-1.14-.1v-.38c.13,0,.63-.06,1.53-.19l.09-.38v-.19c0-.38-.22-.6-.67-.67,0-.25.13-.38.38-.38-.07-.38-.09-.89-.09-1.53s.03-1.4.09-2.29h.09c.19,0,.44-.35.76-1.05l-1.15-.1.29-2.29c0-.51-.26-.8-.76-.86.38-1.08,1.4-2.13,3.05-3.15h.38l-.09.76.38.09.19-2.29-2.38,1.34-.67-1.24.76-.28c0,.26.13.38.38.38.06-.38.38-.86.95-1.43l-.38-.1-.86.38c-.38-.89-.57-1.56-.57-2l.57-1.91h-.38c.82-2.22,1.34-3.34,1.53-3.34l-.19-2.29c.13-1.08.48-2.19,1.05-3.34-.19,0-.29-.09-.29-.28v-.1h.76c.44.32.79.51,1.05.57l-.28-.86.86-.29-.38-.76.09-.38.48-.76-.76-.48-.48.76.19,1.91-1.53-.09.1-.38c.06-.76.41-1.75,1.05-2.96-.26-.06-.38-.22-.38-.48l2-.57v-.38c-.7-.06-1.05-.41-1.05-1.05v-.19c-1.53.13-2.32.45-2.38.95v.38l.29.76-.76.29h-.38l.09-1.14-1.24.67c.19.38.28.7.28.95v.19l.38.1.09-.76c.38.26.99.41,1.81.48v.76h-.38l-.76-.48-.09,1.14.76.09-.09.38c-.06,1.27-.64,1.97-1.72,2.1v-.09c0-.19-.09-.28-.28-.28l.38-.76.19-1.14h-.76l-.19,1.53-1.14-.19c0-.19.09-.28.28-.28h.09l-.28-.86.19-1.43.86-1.14h-.76l.86-1.15.09-1.14-.28-.76c-.45.19-1.97.29-4.58.29l-.38-.76-1.91.19-.76-.1-5.15-1.62c-.06.19-.19.29-.38.29h-.09l.09-.38.86-1.05c-1.02-.06-1.53-.22-1.53-.48l-.76.29h-.38c.38-1.08.61-1.97.67-2.67l-1.34-2.38c.38-.19.7-.29.95-.29h.19l-.28-.86c1.91-.7,3.37-1.05,4.39-1.05h.29v.38l2.38-.86c.57.06,1.08.22,1.53.48,1.27-.19,1.94-.63,2-1.34l.76.48,1.53.19c1.01-.63,1.87-.95,2.57-.95h.19c.38.32.86.51,1.43.57,1.91-.83,2.86-1.37,2.86-1.62.06-.89.25-1.53.57-1.91-.26,0-.38-.13-.38-.38h.19c.38,0,.6-.22.67-.67l-1.15-.19c.13-.44.41-.67.86-.67l.67.48.19-1.14-.86.29h-.38l.19-1.53h.38c.76,0,1.17-.32,1.24-.95-.26-.06-.38-.22-.38-.48.51,0,2.23-4.29,5.15-12.87.57-.95.99-1.43,1.24-1.43l.38.09v.67l.38.09v-.76c-.19,0-.28-.09-.28-.29v-.09h.76l-.28-.76c0-.25.67-.82,2-1.72Zm-29.65,33.08v.38l.76.09v-.38l-.76-.09Zm2.1,1.72c.07.57.29.86.67.86l.09-.76-.76-.09Zm7.34-8.01l-.1.76h.38l.09-.76h-.38Zm.86,41.47h.76l.29,1.62-.86.29-.29-.76.09-1.14Zm.95-5.72l1.43,1.71-.19,1.91-1.14-.19.57-1.81-.86.29-.57-1.24c.13-.44.38-.67.76-.67Zm-.57,9.53c.63.06,1.05,1.27,1.24,3.62l-.76-.09c-.32-1.97-.48-3.14-.48-3.53Zm3.62-24.88v.28c0,.76.19,1.43.57,2l-1.24.67v.19c0,.64.35.99,1.05,1.05l-.1.38-.67-.09-.19,1.53c0,.26.13.42.38.48-.89,3.43-1.59,5.15-2.1,5.15l-.29-.86c.32-.38.51-.86.57-1.43l-1.15-.09v-.38l.76.09.09-.76-1.14-.19c1.65-1.01,2.48-1.81,2.48-2.38l-1.91-.19c.06-.44.41-.67,1.05-.67h.19l.1-.38c-.7-.06-1.05-.41-1.05-1.05v-.19c.32-.44.48-.79.48-1.05h.38l-.19,1.91.76.09v-.38l-.19-2,.86-.28-.38-.76c.19-.44.44-.67.76-.67h.09Zm-3.43,23.74l.76.1-.09.76c-.45-.06-.67-.28-.67-.67v-.19Zm2.29-.09l-.09.76c-.32.45-.48.8-.48,1.05-.45-.06-.67-.29-.67-.67v-.19l.09-.76h.19c.25,0,.57-.06.95-.19Zm-.76-15.44l-.09.76h.38l.1-.76h-.38Zm0-8.01h.76v.38h-.76v-.38Zm.09,14.11l.76.09v.38l-.76-.1v-.38Zm.48,14.68l1.14.1c.51,2.23.76,3.72.76,4.48v.19l-.09.76c-.57-.06-1.18-1.91-1.81-5.53Zm1.05-2.57v.38h.76v-.38h-.76Zm.38-27.17h.76c0,.32.09.73.28,1.24l-.38-.1c-.45,0-.67-.19-.67-.57v-.57Zm.29-3.05l-.1,1.14h.38l.09-1.14h-.38Zm.48,30.32l-.1,1.15h.38l.09-1.15h-.38Zm0,4.2c.38.06,1.08,1.78,2.1,5.15-.19,0-.32.13-.38.38.25,0,.38.13.38.38h-.76l.1-1.14-.76-.09-.09.76-.67-.48c.32-.7.6-1.05.86-1.05-.51-1.65-.76-2.86-.76-3.62v-.29Zm.67-14.87l-.19,1.91h.38l.57-1.81-.76-.09Zm.09-8.39c0,.51.22.76.67.76l.09-.76h-.76Zm.19-2.29v.38h.76v-.38h-.76Zm.48-4.58l.67,1.24c-.57,0-.86.22-.86.67l-.09.38h.48c.44,0,.7-.35.76-1.05-.13-.38-.19-.7-.19-.95v-.19l-.76-.09Zm.19,9.25c0,.26-.16.61-.48,1.05v.38l.38.09c0-.32.16-.7.48-1.14v-.38h-.38Zm-.38,4.48l-.09.76.38.09.09-.76-.38-.09Zm.38-24.03v.76h.38v-.76h-.38Zm.19,26.03l-.09.76h.38l.09-.76h-.38Zm.57-10.3l-.48.76-.1,1.14h.38c.06-.7.41-1.05,1.05-1.05h.19l.09-.38c-.32,0-.7-.16-1.14-.48Zm-.29-.76v.38l.76.1v-.38l-.76-.09Zm.09,18.4l-.09.76h.38l.09-.76h-.38Zm-.09,1.53c.19.57.51,2.51.95,5.82l.76.09v-.38c-.51-.7-.76-1.72-.76-3.05,0-.51.03-1.05.09-1.62v-.38c.06-.44.41-.67,1.05-.67h.19l.09-.76c-.89.64-1.62.95-2.19.95h-.19Zm0,6.87v.76l.38.1v-.76l-.38-.09Zm.29-33.27l-.19,1.14h.38l.19-1.14h-.38Zm-.19,24.5l.76.1c.13-1.27.32-1.91.57-1.91l-.29-.76c.32-.44.48-.82.48-1.14-.57,0-1.08,1.24-1.53,3.72Zm1.05-21.74l-.67,2.57-.09.76.38.09c.06-.7.54-1.43,1.43-2.19-.45-.06-.67-.41-.67-1.05v-.19h-.38Zm-.57,13.35l-.09,1.53,1.05.09c-.13-.32-.19-.7-.19-1.14v-.38l-.76-.09Zm.19-1.53l-.1.76.76.09.09-.76-.76-.09Zm0,3.81l-.1.76.76.09v-.19c0-.38-.22-.6-.67-.67Zm.38-23.74v.38l.76.09v-.38l-.76-.09Zm.29,5.05l-.19,2.29h.38c.06-1.14.25-1.87.57-2.19l-.76-.1Zm-.09,13.06l-.09.67.38.09.1-.76h-.38Zm.09-1.15l-.09.76h.38l.09-.76h-.38Zm-.09,16.02v.38l.76.09v-.38l-.76-.09Zm.19-17.54l-.09,1.15h.38l.09-1.15h-.38Zm.76-19.54l-.48,1.53.76.1c.06-.57.22-1.08.48-1.53l-.76-.09Zm.86,11.63l.28.76c-.51.07-.8.29-.86.67v.38l.76-.28.76.09c-.07.38-.48.73-1.24,1.05,0-.25-.13-.41-.38-.48-.19,2.04-.41,3.05-.67,3.05.19.51.28.89.28,1.14l.38.09c0-.44.29-.95.86-1.53l.09-.38-.28-.76.76-.29c0,.26.13.38.38.38,0-.19.09-.29.29-.29h.09c0,.26.13.38.38.38v-.76l-1.43-.48c.57-.57.86-1.08.86-1.53-.19-.51-.28-.89-.28-1.14l-1.05-.09Zm-1.05,30.13l-.19,1.14.38.09.09-1.14-.29-.09Zm0-35.56l-.09,1.05.76.1c-.19-.51-.29-.89-.29-1.15h-.38Zm-.09,24.5v.38c0,.51.22.76.67.76v-.57c0-.38-.22-.57-.67-.57Zm.19,13.44h.76l.09-.76c-.51.07-.8.32-.86.76Zm.09-39.85v.38h.76v-.38h-.76Zm.19,6.1l-.09.76h.38l.09-.67-.38-.09Zm.19-2.67v.76l.38.09v-.76l-.38-.1Zm.19,37.94l-.09.76.38.09.09-.76-.38-.09Zm1.72-61.11c-.07.7-.42,1.05-1.05,1.05h-.19v.76l1.81.57v-.38c-.13-.32-.19-.76-.19-1.34v-.67h-.38Zm-1.15,62.73l-.09.76c.06.51.29.8.67.86h.38l.09-.38c0-.38-.35-.79-1.05-1.24Zm.09-59.01l-.09.76,1.15.1v-.38c-.26,0-.61-.16-1.05-.48Zm.1,41.38l-.1.76.38.09.09-.76-.38-.1Zm0,15.73l-.1.38.76.09.09-.38-.76-.1Zm.48-36.32c0,.26-.16.61-.48,1.05.7.07,1.05.42,1.05,1.05v.19l.38.09c0-.19.19-.95.57-2.29-.26,0-.38.13-.38.38l-.76-.48h-.38Zm-.29,6.87v.38l.76.1v-.38l-.76-.09Zm.29,36.04l.76.09c.45.25.82.41,1.15.48l-.1,1.15c-.76-.83-1.37-1.27-1.81-1.34v-.38Zm.38-31.37v.76h.38l.57-1.81h-.09c-.45,0-.73.35-.86,1.05Zm.1-16.49v.38l.76-.29c0,.26.13.38.38.38l.09-1.15h-.38c-.51,0-.8.22-.86.67Zm.19,2.29l-.19,1.53.38.09.19-1.53-.38-.09Zm2.38-31.94l.29.76c-.19,1.91-.67,2.89-1.43,2.96l.28.86v.29l-1.14-.1v.1c0,.45.44.99,1.34,1.62.32-2.67.92-4,1.81-4h.1l.09-.38c-.51-.06-.76-.22-.76-.48.32-.44.48-.82.48-1.14l-.67-.38-.38-.1Zm-1.81,7.15l-.09.38c.06.51.29.76.67.76l.38.09.09-.38c0-.51-.25-.79-.76-.86h-.29Zm-.09,35.18v.38l.76.09v-.38l-.76-.1Zm.09-1.14v.76l.38.09v-.76l-.38-.09Zm.57,14.68l-.09.76c.51,0,.76-.25.76-.76h-.67Zm.1,2.67l-.1.38.76.09.09-.38-.76-.1Zm.19-5.72l-.09.76h.38l.09-.76h-.38Zm.09-16.87l-.09,1.14c.51-.19.89-.28,1.14-.28l.1-.38c-.32,0-.7-.16-1.15-.48Zm-.09,4.58v.38l.76.1v-.38l-.76-.09Zm.19-29.08v.38l.76.09.09-1.14c-.51,0-.8.22-.86.67Zm.67-17.92h.76l-.19,1.14h-.76l.19-1.14Zm-.09,55.49l-.1.76.38.09.09-.76-.38-.1Zm.09-24.5l-.09.76.38.09.1-.76-.38-.09Zm.28,8.1l.76.09.09-.76c-.51,0-.8.22-.86.67Zm.1,30.7l-.1.76h.38l.09-.76h-.38Zm1.33-71.98l-.09.38c-.26.51-.41.89-.48,1.14l-.76-.09.09-.38c0-.38.41-.73,1.24-1.05Zm-.86,31.75l-.1.76h.38l.09-.76h-.38Zm.28,5.43c0,.51.22.76.67.76l.09-.76h-.76Zm.38,22.6v.76l.38.1v-.76l-.38-.09Zm.29-45.57v.38l.76.09v-.38l-.76-.1Zm0,70.17v.76h.28l.09-.76h-.38Zm.28-49l-.09.67.38.09.09-.76h-.38Zm.67,12.3h.57c.38,0,.6-.22.67-.67h-.38c-.51,0-.8.22-.86.67Zm.67-2.67l.76.09v-.76c-.51.07-.76.29-.76.67Zm1.14-4.1l-.09.76.38.09.09-.76-.38-.09Zm.29,8.49l.76.09v.38c-.32.45-.48.8-.48,1.05h-.38l.09-1.53Zm.09-31.75l-.09.76h.38l.09-.76h-.38Zm1.24,18.88l.76.09-.76,3.72-.76-.09.19-1.91.57-1.81Zm-.48,8.39c.44.13.67.35.67.67v.09h-.76l.09-.76Zm.28-30.6l-.09,1.43.38.09c.06-.44.38-1.17.95-2.19l-.38-.09c-.51.06-.8.32-.86.76Zm.19,29.84l.38.09-.1.76-.38-.09.09-.76Zm1.14-27.46c-.63,1.59-.99,2.45-1.05,2.57v.76h.38c.06-1.08.41-2.07,1.05-2.96v-.38h-.38Zm-.76-3.53l.76.09.09-1.14.57-1.91h-.1c-.57,0-1.02.99-1.33,2.96Zm.57,17.64l-.09.76.38.1v-.76l-.28-.09Zm.76-15.64l-.09.38.38.09.57-1.53c-.51,0-.8.35-.86,1.05Zm.86,14.68l1.81.57.48-.76-.76-.38c0,.45-.19.67-.57.67h-.19v-.76c-.51,0-.76.22-.76.67Zm1.53-23.64c-.63,1.08-.95,1.72-.95,1.91v.38h.38c0-.44.32-1.05.95-1.81v-.38l-.38-.09Zm-.28-5.34v.76h.38v-.76h-.38Zm1.24,3.15c0,.45-.32,1.08-.95,1.91h.76l.57-1.43v-.38l-.38-.09Zm-.76,4.58l.76.09v-.76c-.51,0-.76.22-.76.67Zm1.24,10.49l-.09.38h.76l.09-.38h-.76Zm.1,2.29h.38c2.35-.25,3.66-.38,3.91-.38v-.38c-1.21-.13-1.81-.32-1.81-.57-1.59.38-2.42.83-2.48,1.33Zm.57-16.78c-.07.26-.22.61-.48,1.05l.76.1.1-1.14h-.38Zm.19,21.45l-.09.76h.38l.09-.76h-.38Zm.67-22.98v.76l.38.09v-.76l-.38-.09Zm0,19.54v.38l.76.1v-.38l-.76-.09Zm3.34-2.29l-.1.38h.76l.09-.38h-.76Zm.09,6.86l-.09.38.76.1.09-.38-.76-.09Zm.86-4.86l-.1.38h.76l.09-.29-.76-.1Zm1.43-2.57l-.1.76h.38v-.76h-.28Zm.57,1.62v.38h.28c.57-.19.99-.29,1.24-.29v-.38h-.38c-.51.19-.89.29-1.14.29Zm1.24-1.43c.06.51.32.8.76.86h.38c0-.51-.26-.79-.76-.86h-.38Zm0,4.2v.38l.76.09v-.38l-.76-.09Zm.19,1.91v.38l.76.09v-.38l-.76-.09Zm1.24-4.48l-.09.38c.63.06,1.24.38,1.81.95l.09-.38c-.19-.44-.28-.95-.28-1.53-.57.38-1.02.57-1.34.57h-.19Zm.57-1.81l-.1.76h.38l.09-.76h-.38Zm2.57-2.86l.38.09-.09,1.14-.38-.1.09-1.14Z"/></g></svg>