<?xml version="1.0" encoding="UTF-8"?><svg id="b" xmlns="http://www.w3.org/2000/svg" viewBox="0 0 108.99 101.38"><defs><style>.d{fill:#fff;}.e{fill:#505050;}</style></defs><g id="c"><path class="e" d="M80.36,12.91c9.4-2.22,20.29,3.39,22.97,12.83.71,2.51,1.53,7.15,1.76,9.76.17,1.92-.7,5.77-.51,6.48.3,1.11,1.97,3.07,2.52,4.99.74,2.59,1.63,7.62,1.83,10.32.75,9.88-7.57,18.67-17.14,19.96.47,16.08-16.59,24.34-29.95,16-9.07,12.64-28.42,10.17-33.23-4.77-9.4,2.22-20.29-3.4-22.97-12.83-.74-2.6-1.64-7.63-1.83-10.32-.15-1.99.75-4.41.65-5.55-.07-.73-2.21-4.05-2.71-5.91-.68-2.53-1.51-7.17-1.71-9.77-.74-9.77,7.55-18.8,17.14-19.96-.49-16.14,16.57-24.31,29.95-16,9.09-12.62,28.43-10.24,33.23,4.77ZM44.51,18.1l.36-4.41-1.8-.63-.23,5.36,1.67-.33ZM24.9,17.48c-1.3-1.07-2.62,5.61-1.84,6.24,2.1.13,2.36-5.81,1.84-6.24ZM59.24,11.5c-.44-.15-2.01-.05-2.15.55.96.34,3.49,5.36,4.78,3.59.41-.57-2.26-4.01-2.63-4.14ZM74.77,11.57l-1.72.31c-.28.39,1.61,6.92,3.88,5.23l-2.17-5.54ZM70.05,18.33c-.48-1.77-.01-5.32-2.63-4.86l.92,5.17,1.72-.31ZM38.24,19.25c-1.68-.21-2.19,5.48-1.95,5.67,2.45-.67,2.54-3.7,1.95-5.67ZM31.56,21.62c-1.03-.84-3.57,6-2.89,7.02,1.13.88,4.06-5.74,2.89-7.02ZM20.57,33.04l-3.49-4.69c-2.06,1.78,2.81,5.73,3.49,4.69ZM47.44,27.67c-.38-1.2-3.03-2.64-4.08-3.14-.89-.43-1.34-.89-2.47-.42-.86,1.15,5.1,4.89,6.55,3.57ZM55.78,27.97c1.3,1.05,2.03-3.82,2.08-4.33s.9-1.86-.53-1.86c-1.5,0-1.96,5.15-1.55,6.19ZM88.09,19.86c-.37.47,3.69,4.06,3.97,4.02,2.19-.34-1.99-5.44-3.97-4.02ZM76.33,23.73l-1.38,1.1,2.04,5.88,1.49-1.24-2.14-5.74ZM13.31,35.52l-1.66.69c.7.93-2.02,4.32-.1,4.35,1.54.02,2.44-3.83,1.76-5.04ZM67.31,36.65c-6.07,1.69-10.92,0-16.08-3.09-3.12,4.99-7.76,7.77-13.61,8.37l-.52,4.16c6.37-.39,11.32-3.9,14.75-9.09,5.44,3.33,10.95,5.35,17.39,3.37l-1.92-3.72ZM88.26,27.53c-1.39-.01-1.17.84-1.43,1.76-1.38,4.89,1.51,6,1.77,1.74.08-1.23,0-2.32-.34-3.5ZM10.19,47.93c-.17-.16-4.3-1.79-4.42-1.59-.7,1.89,2.95,3.66,3.87,3.44.36-.09.94-1.47.55-1.85ZM16.67,44.4c-.84,1.2,4.21,5.03,5.14,2.34-1.63-.91-3.02-3.01-5.14-2.34ZM95.87,31.05c-.52-.21-1.09.09-1.63.15-.5.69,2.8,4.42,4.25,3.97.31-1.07-2-3.87-2.62-4.12ZM52.36,39.87c-3.47,5.04-8.58,6.63-13.91,8.92-.73,3.76-.38,6.34,1.96,9.47,5.64-.47,11.01.17,15.81,3.33,3.97-4.35,8.3-7.22,14.1-8.64,1.12-3.78.61-6.66-1.75-9.82-5.93.66-10.99-.54-16.21-3.25ZM28.63,51.74c1.8,1.19,4.52-6.25,2.24-5.71-.48.12-2.84,5.31-2.24,5.71ZM77.34,41.71c1.03.63,2.14.74,2.67-.58-1.21-.29-3.29-3.46-4.37-3.07-1.58.57,1.28,3.39,1.71,3.65ZM85.87,37.42l-1.72.31.92,5.17,1.45-1.24-.65-4.23ZM90.87,37.13l1.58,5.62c2.2-1.22.39-6.27-1.58-5.62ZM15.59,51.69c-1.91-1.23-3.4,6.17-2.99,6.45,1.93,1.3,3.46-6.14,2.99-6.45ZM26,56.94c.56-.77-3.78-4.92-5.4-3.77-.35.45,4.42,5.1,5.4,3.77ZM35.02,57.71c.69-1.13-3.68-4.06-3.97-4.02-2.75.38,3.34,5.05,3.97,4.02ZM78.55,52.93c-.57-1.87,1.53-4.6-.72-5.78-.92.21-1.17,4.8-1.05,5.79h1.77ZM100.17,47.9c.22-1.32-1.88-4.65-3.39-4.13-1.42.5-.08,1.33.26,1.77.27.36,2.47,3.47,3.13,2.36ZM21.51,58.34c-1.99-1.34-2.61,5.32-2.42,6.34,1.96.03,3.02-5.94,2.42-6.34ZM30.16,60.35c-1.77-.88-.92,5.1-1.27,6.14,2.67-.81,2.51-4.3,1.27-6.14ZM90.82,51.94l-1.72.3c-1.06,8.41,2.4,6.56,1.72-.3ZM100.01,53.9c-1.11.95-4.79-2.9-4.81-.67-.01,1.29,3.89,3.04,5.14,2.33l-.34-1.66ZM16.05,67.6c-1.4-.89-4.04,4.74-3.2,5.3,1.62,1.08,3.77-4.93,3.2-5.3ZM64.14,64.96c1.05.77,4.07-5.11,1.65-5.61l-1.65,5.61ZM86.41,60.41l-5.4-3.77c.08,2.61,2.87,4.6,5.4,3.77ZM25.04,74.87c.03-2.01-2.38-2.84-3.97-3.31-1.07-.31-1.13-.92-1.85.51l3.35,2.38,2.47.42ZM44.42,67.29c.38,2.36-1.19,4.1-1.9,5.97-.3.79-.51,1.36.54,1.37,1.66.02,2.85-4.97,3.24-6.3l-1.88-1.04ZM92.82,59.86c-3.67.63.97,4.82,2.25,4.33,2.13-.8-2.89-2.91-2.25-4.33ZM32.6,72.35c-1.01.38-.58.84-.04,1.47,3.68,4.31,6.25,2.28,1.96-.64-.55-.38-1.17-1.11-1.92-.83ZM65.72,70.6c-.25-1.96-1.95-4.14-4.15-3.4-.51,1.49,3.67,4.16,4.15,3.4ZM79.36,64.04l-1.44,1.75-1.35,5.84c2.93-1.22,3.55-4.85,2.79-7.59ZM27.52,82.14c-4.96,1.4-9.69.79-14.18-1.64l-4.45-3.34c2.77,7.88,12.18,11.28,19.92,8.88l-1.29-3.91ZM104.08,67.72c.92-1.39,2.12-4.47,2.4-6.12.1-.58.43-2-.61-1.68-1.94,6.36-8.72,10.53-15.22,10.99l.14,4.11c5.16-.37,10.41-2.95,13.29-7.3ZM70.11,68.64c-1.85-.34-1.95,1.99-2.34,3.65-.19.81-.6,1.95.68,1.97,1.48.02,2.22-4.49,1.65-5.62ZM33.16,80.55c-.95.73-4.92-3.63-4.94-1.2-.01,1.2,5.83,4.85,4.94,1.2ZM87.24,75.07c-.27-1.79,1.38-4.66-.72-5.78l-1.1,5.16,1.82.62ZM36.21,87.69c1.3.99,4.04-6.08,1.45-6.76-1.24-.33-.66,1.3-.81,1.93-.18.77-1.1,4.49-.64,4.84ZM81.67,73.69l-1.72.3c1.1,1.55-1.83,6.56.37,7.04,1.13.25.84-1.12.98-1.8.2-.92.95-5.15.36-5.54ZM53.96,80.99l1.2,5.1c1.66-1.47,1.51-5.48-1.2-5.1ZM69.67,80.1c-.54-.2-1.1.1-1.63.16.15,2.29,2.69,3.09,4.54,3.91,1.79-2.08-.54-1.88-1.68-2.65-.56-.38-1.09-1.36-1.23-1.42ZM47.83,90.27c.45-1.88,1.77-5.8-1.49-5.56l-.13,5.94,1.62-.38ZM89.77,79.35c-5.6,11.15-18.71,14.63-29.13,7.65-4.54,7.6-14.12,10.12-22.27,7.3l-7.08-4.26c4.5,9.24,15.81,12.04,24.41,6.48,2.74-1.77,3.76-4.19,6.05-6.23,10.41,8.95,27.04,3.01,28.03-10.95Z"/><path class="d" d="M89.77,79.35c-.99,13.95-17.61,19.9-28.03,10.95-2.28,2.04-3.31,4.45-6.05,6.23-8.6,5.56-19.91,2.76-24.41-6.48l7.08,4.26c8.15,2.81,17.74.3,22.27-7.3,10.42,6.98,23.53,3.5,29.13-7.65Z"/><path class="d" d="M67.31,36.65l1.92,3.72c-6.44,1.98-11.95-.04-17.39-3.37-3.42,5.19-8.38,8.7-14.75,9.09l.52-4.16c5.85-.6,10.49-3.39,13.61-8.37,5.16,3.1,10.02,4.79,16.08,3.09Z"/><path class="d" d="M27.52,82.14l1.29,3.91c-7.74,2.4-17.16-1-19.92-8.88l4.45,3.34c4.49,2.44,9.22,3.04,14.18,1.64Z"/><path class="d" d="M104.08,67.72c-2.88,4.36-8.13,6.94-13.29,7.3l-.14-4.11c6.5-.46,13.27-4.64,15.22-10.99,1.04-.32.71,1.1.61,1.68-.28,1.65-1.48,4.73-2.4,6.12Z"/><path class="d" d="M44.42,67.29l1.88,1.04c-.4,1.33-1.58,6.32-3.24,6.3-1.05-.01-.84-.58-.54-1.37.71-1.88,2.28-3.61,1.9-5.97Z"/><path class="d" d="M79.36,64.04c.76,2.74.14,6.37-2.79,7.59l1.35-5.84,1.44-1.75Z"/><path class="d" d="M81.67,73.69c.59.39-.17,4.62-.36,5.54-.14.67.14,2.04-.98,1.8-2.2-.48.73-5.49-.37-7.04l1.72-.3Z"/><path class="d" d="M31.56,21.62c1.17,1.28-1.76,7.9-2.89,7.02-.68-1.02,1.86-7.86,2.89-7.02Z"/><path class="d" d="M47.44,27.67c-1.45,1.33-7.41-2.41-6.55-3.57,1.12-.46,1.58,0,2.47.42,1.05.51,3.7,1.95,4.08,3.14Z"/><path class="d" d="M36.21,87.69c-.46-.35.46-4.07.64-4.84.15-.62-.44-2.25.81-1.93,2.59.68-.15,7.76-1.45,6.76Z"/><path class="d" d="M15.59,51.69c.47.3-1.06,7.75-2.99,6.45-.4-.27,1.08-7.68,2.99-6.45Z"/><polygon class="d" points="76.33 23.73 78.48 29.47 76.99 30.71 74.95 24.83 76.33 23.73"/><path class="d" d="M25.04,74.87l-2.47-.42-3.35-2.38c.72-1.43.77-.82,1.85-.51,1.6.47,4,1.3,3.97,3.31Z"/><path class="d" d="M74.77,11.57l2.17,5.54c-2.27,1.69-4.16-4.84-3.88-5.23l1.72-.31Z"/><path class="d" d="M21.51,58.34c.6.4-.46,6.37-2.42,6.34-.2-1.02.43-7.69,2.42-6.34Z"/><path class="d" d="M47.83,90.27l-1.62.38.13-5.94c3.26-.24,1.94,3.68,1.49,5.56Z"/><path class="d" d="M86.41,60.41c-2.53.83-5.32-1.16-5.4-3.77l5.4,3.77Z"/><path class="d" d="M55.78,27.97c-.41-1.04.05-6.19,1.55-6.19s.58,1.34.53,1.86-.78,5.38-2.08,4.33Z"/><path class="d" d="M88.26,27.53c.33,1.18.41,2.28.34,3.5-.26,4.25-3.15,3.15-1.77-1.74.26-.91.05-1.77,1.43-1.76Z"/><path class="d" d="M90.87,37.13c1.97-.64,3.79,4.4,1.58,5.62l-1.58-5.62Z"/><path class="d" d="M70.11,68.64c.57,1.12-.17,5.63-1.65,5.62-1.29-.02-.87-1.16-.68-1.97.39-1.66.49-3.98,2.34-3.65Z"/><path class="d" d="M24.9,17.48c.52.43.25,6.37-1.84,6.24-.78-.63.55-7.31,1.84-6.24Z"/><path class="d" d="M16.67,44.4c2.12-.67,3.5,1.43,5.14,2.34-.93,2.69-5.98-1.13-5.14-2.34Z"/><path class="d" d="M30.16,60.35c1.24,1.84,1.4,5.33-1.27,6.14.34-1.04-.5-7.02,1.27-6.14Z"/><path class="d" d="M90.82,51.94c.69,6.86-2.77,8.71-1.72.3l1.72-.3Z"/><path class="d" d="M26,56.94c-.98,1.33-5.75-3.32-5.4-3.77,1.62-1.15,5.96,3,5.4,3.77Z"/><path class="d" d="M69.67,80.1c.15.06.67,1.03,1.23,1.42,1.14.77,3.47.57,1.68,2.65-1.85-.82-4.39-1.62-4.54-3.91.53-.05,1.09-.36,1.63-.16Z"/><path class="d" d="M78.55,52.93h-1.77c-.12-.98.13-5.57,1.05-5.78,2.24,1.17.15,3.9.72,5.78Z"/><path class="d" d="M28.63,51.74c-.6-.4,1.76-5.6,2.24-5.71,2.28-.54-.44,6.9-2.24,5.71Z"/><path class="d" d="M59.24,11.5c.37.12,3.04,3.57,2.63,4.14-1.28,1.77-3.81-3.25-4.78-3.59.14-.6,1.7-.69,2.15-.55Z"/><path class="d" d="M16.05,67.6c.57.37-1.58,6.38-3.2,5.3-.84-.56,1.8-6.19,3.2-5.3Z"/><path class="d" d="M87.24,75.07l-1.82-.62,1.1-5.16c2.1,1.12.46,3.99.72,5.78Z"/><path class="d" d="M77.34,41.71c-.42-.26-3.29-3.08-1.71-3.65,1.08-.39,3.16,2.78,4.37,3.07-.53,1.32-1.64,1.21-2.67.58Z"/><path class="d" d="M32.6,72.35c.75-.28,1.37.45,1.92.83,4.29,2.92,1.72,4.95-1.96.64-.54-.63-.97-1.09.04-1.47Z"/><path class="d" d="M88.09,19.86c1.98-1.42,6.16,3.68,3.97,4.02-.28.04-4.34-3.54-3.97-4.02Z"/><polygon class="d" points="85.87 37.42 86.53 41.64 85.08 42.89 84.16 37.72 85.87 37.42"/><path class="d" d="M38.24,19.25c.59,1.97.5,5-1.95,5.67-.24-.19.27-5.88,1.95-5.67Z"/><path class="d" d="M33.16,80.55c.89,3.65-4.95,0-4.94-1.2.02-2.43,3.99,1.92,4.94,1.2Z"/><path class="d" d="M13.31,35.52c.69,1.21-.22,5.06-1.76,5.04-1.93-.03.8-3.42.1-4.35l1.66-.69Z"/><path class="d" d="M100.01,53.9l.34,1.66c-1.26.71-5.16-1.04-5.14-2.33.02-2.23,3.7,1.62,4.81.67Z"/><path class="d" d="M64.14,64.96l1.65-5.61c2.41.51-.61,6.39-1.65,5.61Z"/><polygon class="d" points="44.51 18.1 42.84 18.43 43.07 13.06 44.87 13.69 44.51 18.1"/><path class="d" d="M70.05,18.33l-1.72.31-.92-5.17c2.62-.46,2.15,3.09,2.63,4.86Z"/><path class="d" d="M20.57,33.04c-.69,1.03-5.55-2.91-3.49-4.69l3.49,4.69Z"/><path class="d" d="M95.87,31.05c.63.25,2.94,3.06,2.62,4.12-1.45.44-4.75-3.29-4.25-3.97.53-.06,1.11-.35,1.63-.15Z"/><path class="d" d="M53.96,80.99c2.71-.38,2.86,3.63,1.2,5.1l-1.2-5.1Z"/><path class="d" d="M65.72,70.6c-.48.75-4.66-1.91-4.15-3.4,2.2-.74,3.9,1.44,4.15,3.4Z"/><path class="d" d="M35.02,57.71c-.63,1.04-6.72-3.64-3.97-4.02.29-.04,4.66,2.88,3.97,4.02Z"/><path class="d" d="M92.82,59.86c-.65,1.43,4.37,3.53,2.25,4.33-1.28.48-5.92-3.71-2.25-4.33Z"/><path class="d" d="M100.17,47.9c-.66,1.11-2.86-2-3.13-2.36-.33-.44-1.68-1.28-.26-1.77,1.51-.53,3.6,2.8,3.39,4.13Z"/><path class="d" d="M10.19,47.93c.39.38-.19,1.76-.55,1.85-.92.22-4.57-1.55-3.87-3.44.12-.2,4.25,1.43,4.42,1.59Z"/></g></svg>