<svg xmlns="http://www.w3.org/2000/svg" id="Layer_2" viewBox="0 0 303.15 316.84">
  <defs>
    <style>
      .cls-1{stroke-width:5px;fill:none;stroke:#231f20;stroke-miterlimit:10}.cls-3{fill:#231f20}
    </style>
  </defs>
  <g id="Layer_14">
    <path d="M259.46 143.07c-17.37 1.24-33.92-12.11-36.1-29.8-2.06-13.95 5.57-28.67 18.31-34.99 8.57-4.37 19.02-5.08 28.03-1.62 13.39 4.8 22.69 18.57 22.23 32.67-.15 17.83-15.07 32.99-32.47 33.74Zm0 0c17.03-.85 30.07-16.63 27.41-33.45-2.09-14.99-16.1-26.07-30.78-25.06-14.7.66-27.39 13.28-27.73 28.42-.7 17.02 14.08 31.19 31.09 30.09Z" class="cls-3"/>
    <path d="M270.67 208.21c-17.37 1.24-33.92-12.11-36.1-29.8-2.06-13.95 5.57-28.67 18.31-34.99 8.57-4.37 19.02-5.08 28.03-1.62 13.39 4.8 22.69 18.57 22.23 32.67-.15 17.83-15.07 32.99-32.47 33.74Zm0 0c17.03-.85 30.07-16.63 27.41-33.45-2.09-14.99-16.1-26.07-30.78-25.06-14.7.66-27.39 13.28-27.73 28.42-.7 17.02 14.08 31.19 31.09 30.09Z" class="cls-3"/>
    <path d="M238.84 265.75c-17.37 1.24-33.92-12.11-36.1-29.8-2.06-13.95 5.57-28.67 18.31-34.99 8.58-4.37 19.02-5.08 28.03-1.62 13.39 4.8 22.69 18.57 22.23 32.67-.15 17.83-15.07 32.99-32.47 33.74Zm0 0c17.03-.85 30.07-16.63 27.41-33.45-2.09-14.99-16.1-26.07-30.78-25.06-14.7.66-27.39 13.28-27.73 28.42-.7 17.02 14.08 31.19 31.09 30.09ZM88.83 56.11c.3-1.87-.08-3.9-1.54-5.14-.13-.1-.18-.17-.15 0l-.33-.72c-11.06-24.2-45.54-22.02-54.08 2.9-1.89 5.69-1.47 12.26.73 17.99.81 2 1.73 4.03 3.39 5.52-3.35-1.19-5.69-4.29-7.49-7.23C18.79 51.94 31.57 29.79 50.29 25c12.28-3.51 26.52.73 34.43 10.81 3.12 3.9 5.21 8.54 6.02 13.27l-.32-.64c1.29 2.54.64 5.93-1.59 7.68ZM254.14 77.97c1.44-1.23 2.46-3.02 2.16-4.91-.04-.16-.03-.24-.11-.1l.22-.76c7.27-25.6-20.39-46.3-43.05-32.85-5.12 3.11-9.07 8.38-11.1 14.17-.68 2.05-1.3 4.19-1 6.4-1.77-3.08-1.55-6.96-1.01-10.36 3.3-20.17 27.39-28.75 44.75-20.25 11.62 5.28 19.72 17.76 19.21 30.55-.16 4.99-1.57 9.88-4.02 14.01l.17-.7c-.67 2.77-3.36 4.92-6.19 4.81Z" class="cls-3"/>
    <path d="M195.95 52.14c1.44-1.23 2.46-3.02 2.16-4.91-.04-.16-.03-.24-.11-.1l.22-.76c7.27-25.6-20.39-46.3-43.05-32.86-5.12 3.11-9.07 8.38-11.1 14.17-.69 2.05-1.3 4.19-1 6.4-1.77-3.08-1.55-6.96-1.01-10.36 3.29-20.17 27.39-28.75 44.75-20.25 11.62 5.28 19.72 17.76 19.21 30.55-.16 4.99-1.57 9.88-4.02 14.01l.17-.7c-.67 2.77-3.36 4.92-6.19 4.81Z" class="cls-3"/>
    <path d="M140.81 39.15c.72-1.75.81-3.81-.32-5.36-.11-.13-.14-.2-.15-.04l-.16-.78c-5.23-26.09-39.29-31.86-53.31-9.55-3.14 5.11-4.24 11.6-3.41 17.68.33 2.14.76 4.32 2.03 6.15-2.98-1.93-4.56-5.48-5.63-8.75C73.59 19.05 91.1.41 110.42.04c12.75-.61 25.65 6.79 31.05 18.4 2.14 4.51 3.11 9.5 2.82 14.3l-.17-.7c.67 2.77-.74 5.91-3.31 7.11ZM42.98 77.01c-1.76-.89-4.11-1.18-5.71-.04.25.01-.73.09-.69.09-16.22 1.31-29.35 15.84-26.6 32.23 2.16 14.23 15.01 24.82 29.66 24.1 2.18-.11 4.42-.29 6.41-1.35-1.46 1.86-3.76 2.93-5.95 3.74-17.8 6.32-36.35-6.82-39.52-24.87-3.1-15.59 6.41-31.97 21.55-36.78 4.77-1.58 9.84-1.98 14.6-1.21l-.69.09c2.86-.35 5.88 1.32 6.93 4Z" class="cls-3"/>
    <path d="M46.2 137.88c-1.76-.89-4.11-1.18-5.71-.04.23.01-.73.09-.69.09-17.51 1.47-30.74 17.79-25.99 35.13 3.03 12.09 15.28 22.22 28.4 20.86 4.68-.41 9.36-1.55 13.86-3.03-4.05 2.65-8.48 4.79-13.31 6.14-16.38 4.83-33-5.16-37.97-21.32-5.36-16.26 3.51-34.68 19.64-40.39 5.02-1.88 10.46-2.33 15.53-1.53l-.69.09c2.86-.35 5.88 1.32 6.93 4Z" class="cls-3"/>
    <path d="M53.99 192.88c-9.27 5.66-14.9 14.96-16.77 25.1-.6 3.74-.71 7.39.46 10.88 2.01 6.04 4.69 10.96 7.26 17.2-3.23-.29-6.14-1.63-8.71-3.51-19.19-14.45-4.39-48.63 17.76-49.67ZM214.73 156.74c5.03 21.06 3.61 46.74-9.79 64.52-8.81 11.83-22.77 18.24-36.35 22.98-18.29 5.67-38.08 6.53-56.68 2.14l-2.32-.5-2.28-.67-4.56-1.34-4.45-1.67c-2.93-1.06-5.89-2.5-8.67-3.88-.61-.37-4.61-2.58-5.18-2.92-21.13-12.69-30.62-35.89-32.03-59.75-.97-12.62 2.08-25.24 3.08-37.72l4.72.58-2.33 15.17-2.96-2.86c50.71-9.24 110.65-10.75 159.84 5.93Zm-.37.34c-38.82-9.58-79.33-9.78-118.98-6.33-14.4 1.27-28.89 3.01-43.08 5.62.4-2.47 2.74-15.91 3.19-18.63l4.72.58c-.67 6.39-1.6 12.58-2.64 18.82-3.88 24.54.09 53.23 19.27 70.71 7.55 6.69 16.85 11.3 26.41 14.36 1.54.43 5.28 1.37 6.77 1.77 1.41.25 5.41.97 6.88 1.21 1.58.17 5.44.54 6.95.7 1.53.06 5.38.17 6.97.23 16.94-.1 33.89-4.06 49.19-11.3 5.45-2.64 10.91-5.5 15.46-9.55 4.01-3.42 7.41-7.56 10.13-12.07 9.82-16.75 11.05-37.23 8.75-56.12ZM180.12 127.74c10.57 3.31 24.72 8.38 34.5 2.26 7.61-4.91 9.94-14.51 9.93-23.16-.06-2.99-.1-6.1-.93-8.99-.03-.07-.1-.22-.17-.12 0-.06.08-.08.13-.04.54.54.79 1.3 1.12 1.98 1.55 3.75 2.36 7.78 2.55 11.84.8 10.25-4.4 21.54-14.67 25-11.32 3.46-23.69-1.72-32.47-8.76Z" class="cls-3"/>
    <path d="M222.96 97.75c-3.54-17.81-14.9-33.75-30.79-42.38-9.39-5.19-19.97-8.14-30.46-10.02-29.39-4.96-58.99.42-83.92 17.08-16.8 3.25-35.74 12.89-39.26 31.08-2.02 11.85.24 25.9 9.95 33.76 2.93 2.38 6.36 4.25 10.01 5.21 2.29.75 4.95.96 8.09.8 2.43-.05 6.26-.6 8.71-.96 6.2-.91 21.76-3.19 27.74-3.99 6.6-.95 16.38-2.05 22.92-3.21 16.47-2.91 32.51-8.21 46.85-16.93 4.75-2.79 11.42-7.16 16.56-9.21 2.97-1.26 6.19-2.02 9.36-2.24l.15.99c-2.99.76-5.77 1.99-8.36 3.57-7.92 5.02-14.57 11.58-22.67 16.66-12.11 7.89-25.93 13.12-39.97 16.4-7.01 1.69-16.14 3.08-23.28 4.34-8.99 1.43-18.84 3.04-27.84 4.2-3.2.45-6.63.85-9.92.84-3.38.02-7.09-.12-11.02-1.47l.55.15-.37-.09c-2.55-.72-5.04-1.79-7.33-3.09-11.8-6.41-18.64-19.41-18.9-32.52-1.6-28.76 21.43-43.11 46.99-47.15 9.74-6.37 26.91-15.11 40.43-19.43 22.73-7.71 46.44-6.44 68.42 3.21 21.78 8.7 38.5 30.98 38.36 54.37l-1 .05ZM85.64 179.88c2.54-12.68 13.79-16.2 23.19-7.38.19.21.75.52.42.87-6.53 2.85-13.46 4.92-20.34 6.78-.99.23-1.97.49-2.97.69a.364.364 0 0 1-.42-.42l.11-.53ZM150.96 171.8c9.26-8.83 20-5.19 22.14 7.38.03.28.28.87-.18.95-6.68-1.46-13.21-3.77-19.59-6.23-.9-.39-1.8-.74-2.69-1.16-.51-.32.05-.7.32-.95ZM138.65 201.24c-.06 1.95-.08 3.97-1.07 5.83-2.72 4.67-8.35 3.26-11.11-.56-1.86-2.23-3.52-5.46-2.73-8.59.9-3.45 4.35-6.13 8-6.01 5.33.14 7.18 4.7 6.9 9.32Zm-.5 0c-.09-4.2-6.65-4.89-9.44-3.03-2.19 1.54-3.63 5.16-1.1 7.17 1.7 1.4 4.01.45 5.83-.04 2.07-.37 4.81-1.49 4.71-4.1Z" class="cls-3"/>
    <path d="m215.56 132.33-1.01 24.58" style="stroke-width:6px;fill:none;stroke:#231f20;stroke-miterlimit:10"/>
    <path d="M66.23 216.37c-10.53 16.55-21.36 32.55-29.95 49.99-2.34 5.09-4.85 10.52-4.5 16.18.55 5.64 4.48 10.6 9.25 13.46 6.42 3.96 14.61 3.75 21.05.07 6.57-3.72 11.45-9.79 16.42-15.4 5.01-5.86 9.97-11.83 14.83-17.92 4.88-6.08 9.7-12.23 14.68-18.34l.43.26c-3.32 7.18-7.28 14.01-11.59 20.63-6.49 9.93-13.91 19.41-22.84 27.35-3.01 2.7-6.34 5.42-10.14 7.05-9.56 4.53-21.44 1.56-28.37-6.18-4.21-4.47-6.67-10.76-5.66-16.91 2.26-15.95 11.55-29.77 20.75-42.53 4.72-6.32 9.72-12.41 15.26-18.04l.39.31ZM127.39 246.09c-5.8 11.24-11.59 22.23-15.89 34.02-4.78 12.77-7.85 24.01 6.37 31.77 7.27 3.77 16.09 2.37 22.44-2.43 6.53-4.98 11.19-11.91 16.16-18.4 14.89-20.42 29.03-41.31 44.05-61.74l.43.26c-5.72 11.36-12.11 22.33-18.76 33.15-8.98 14.42-18.43 28.59-29.73 41.37-9.14 11.13-21.99 16.85-35.43 9.34-5.63-3.3-10.47-8.68-11.57-15.3-1.96-13.14 3.45-25.93 10.05-36.96 3.36-5.46 7.06-10.71 11.47-15.38l.41.3Z" class="cls-3"/>
    <path d="M40.67 255.01s9.81 25.25 37.05 32.1M93.8 265.81s.21 9.16 16.19 7.57c0 0 12.74 23.9 40.59 27.49" class="cls-1"/>
    <path d="M214.55 255.01c-5.33 15.81-25.95 25.26-40.65 16.05 17.09.75 28.07-4.99 40.65-16.05Z" class="cls-3"/>
  </g>
</svg>
