<svg xmlns="http://www.w3.org/2000/svg" xml:space="preserve" style="enable-background:new 0 0 1024 1024" viewBox="0 0 1024 1024">
  <path d="M921.5 943.5h-816c-3.3 0-6.5 0-9.7-.9-11.3-3.2-17.9-13.5-17.9-24.9-.1-11.2 0-22.5 0-33.7V534.5c0-32.6-.4-65.3 0-97.9.2-13.8 10.8-24.9 24.7-25.1H908.7c6.7 0 14.5-.8 20.9 1.3 10.8 3.7 16.6 13.7 16.7 24.7v480.9c-.3 13.8-10.8 24.8-24.8 25.1-12.9.3-12.9 20.3 0 20 24.7-.5 44.3-20 44.7-44.7V437.3c-.1-15.3-6.9-29.3-19.6-38.2-11-7.7-23-7.8-35.6-7.8H106.3c-2.1 0-4.3 0-6.4.1-23.6 1.7-41.5 21.1-41.9 44.7-.2 9.1 0 18.3 0 27.4v349.4c0 34.9-.2 69.8 0 104.7.1 26.1 20.6 45.7 46.5 45.8h817.3c12.5.1 12.6-19.9-.3-19.9z"/>
  <path d="M860.7 394.4c-9.8-8.2-19.6-16.4-29.4-24.7-23.4-19.6-46.8-39.3-70.2-58.9-28.4-23.9-56.9-47.7-85.3-71.6-24.5-20.5-49-41.1-73.4-61.6-12-10-23.8-20.2-35.9-30.1-.2-.1-.3-.3-.5-.4-4.1-3.5-10.1-4.1-14.1 0-3.6 3.6-4.2 10.7 0 14.1 9.8 8.2 19.6 16.4 29.4 24.7 23.4 19.6 46.8 39.3 70.2 58.9 28.4 23.9 56.9 47.7 85.3 71.6 24.5 20.5 49 41.1 73.4 61.6 12 10 23.8 20.2 35.9 30.1.2.1.3.3.5.4 4.1 3.5 10.1 4.1 14.1 0 3.6-3.5 4.1-10.6 0-14.1zM458.5 146.4c-9.8 8.2-19.6 16.4-29.4 24.7-23.5 19.7-47 39.5-70.6 59.2-28.5 23.9-56.9 47.8-85.4 71.6-24.6 20.6-49.2 41.3-73.8 61.9-11.9 10-24.7 19.4-35.9 30.1-.2.2-.3.3-.5.4-4.1 3.5-3.6 10.6 0 14.1 4.1 4.1 10 3.5 14.1 0 9.8-8.2 19.6-16.4 29.4-24.7 23.5-19.7 47-39.5 70.6-59.2 28.5-23.9 56.9-47.8 85.4-71.6 24.6-20.6 49.2-41.3 73.8-61.9 11.9-10 24.7-19.4 35.9-30.1.2-.2.3-.3.5-.4 4.1-3.5 3.6-10.6 0-14.1-4.1-4.1-10-3.5-14.1 0z"/>
  <path d="M557.1 125.2c-.3 21.1-14.7 39.1-35.4 43.8-18.7 4.2-38.4-4.8-48-21.2-9.5-16.2-7.8-37.7 4.8-51.8 11.8-13.3 30.1-18.6 47.2-13.4 18.8 5.6 31.2 23.3 31.4 42.6.2 12.9 20.2 12.9 20 0-.3-24.8-14.6-48.4-37.5-58.7-23.6-10.6-51.2-6.6-70.6 10.7-19.8 17.6-26.7 47.2-16.7 71.7 10.4 25.7 36.7 43.1 64.8 40.8 33.8-2.8 59.6-30.7 60.1-64.5.1-12.9-19.9-12.9-20.1 0z"/>
</svg>
