<?xml version="1.0" encoding="UTF-8"?><svg id="Layer_2" xmlns="http://www.w3.org/2000/svg" viewBox="0 0 1025.15 1019"><defs><style>.cls-1{letter-spacing:-.02em;}.cls-2{letter-spacing:0em;}.cls-3{font-family:AvenirLTStd-Book, 'Avenir LT Std';font-size:72px;}.cls-4{letter-spacing:-.09em;}</style></defs><g id="Layer_1-2"><path d="M974.7,996.42H53.71c-3.72,0-7.34,0-10.95-1.02-12.75-3.61-20.2-15.24-20.2-28.1-.11-12.64,0-25.39,0-38.04v-394.47c0-36.79-.45-73.7,0-110.5,.23-15.58,12.19-28.1,27.88-28.33H960.25c7.56,0,16.37-.9,23.59,1.47,12.19,4.18,18.74,15.46,18.85,27.88V968.09c-.34,15.58-12.19,27.99-27.99,28.33-14.56,.34-14.56,22.91,0,22.57,27.88-.56,50-22.57,50.45-50.45V425.09c-.11-17.27-7.79-33.07-22.12-43.11-12.42-8.69-25.96-8.8-40.18-8.8H54.61c-2.37,0-4.85,0-7.22,.11C20.75,375.21,.55,397.1,.1,423.74c-.23,10.27,0,20.65,0,30.93v394.35c0,39.39-.23,78.78,0,118.17,.11,29.46,23.25,51.58,52.48,51.69H975.04c14.11,.11,14.22-22.46-.34-22.46Z"/><path d="M906.08,376.67c-11.06-9.26-22.12-18.51-33.18-27.88-26.41-22.12-52.82-44.36-79.23-66.48-32.05-26.98-64.22-53.84-96.27-80.81-27.65-23.14-55.3-46.39-82.84-69.53-13.54-11.29-26.86-22.8-40.52-33.97-.23-.11-.34-.34-.56-.45-4.63-3.95-11.4-4.63-15.91,0-4.06,4.06-4.74,12.08,0,15.91,11.06,9.26,22.12,18.51,33.18,27.88,26.41,22.12,52.82,44.36,79.23,66.48,32.05,26.98,64.22,53.84,96.27,80.81,27.65,23.14,55.3,46.39,82.84,69.53,13.54,11.29,26.86,22.8,40.52,33.97,.23,.11,.34,.34,.56,.45,4.63,3.95,11.4,4.63,15.91,0,4.06-3.95,4.63-11.96,0-15.91ZM452.13,96.77c-11.06,9.26-22.12,18.51-33.18,27.88-26.52,22.23-53.05,44.58-79.68,66.82-32.17,26.98-64.22,53.95-96.39,80.81-27.77,23.25-55.53,46.61-83.3,69.86-13.43,11.29-27.88,21.9-40.52,33.97-.23,.23-.34,.34-.56,.45-4.63,3.95-4.06,11.96,0,15.91,4.63,4.63,11.29,3.95,15.91,0,11.06-9.26,22.12-18.51,33.18-27.88,26.52-22.23,53.05-44.58,79.68-66.82,32.17-26.98,64.22-53.95,96.39-80.81,27.77-23.25,55.53-46.61,83.3-69.86,13.43-11.29,27.88-21.9,40.52-33.97,.23-.23,.34-.34,.56-.45,4.63-3.95,4.06-11.96,0-15.91-4.63-4.63-11.29-3.95-15.91,0h0Z"/><path d="M563.42,72.84c-.34,23.81-16.59,44.13-39.95,49.44-21.11,4.74-43.34-5.42-54.18-23.93-10.72-18.28-8.8-42.55,5.42-58.46,13.32-15.01,33.97-20.99,53.27-15.12,21.22,6.32,35.21,26.3,35.44,48.08,.23,14.56,22.8,14.56,22.57,0-.34-27.99-16.48-54.63-42.32-66.25-26.64-11.96-57.79-7.45-79.68,12.08-22.35,19.86-30.14,53.27-18.85,80.93,11.74,29.01,41.42,48.65,73.14,46.05,38.15-3.16,67.27-34.65,67.83-72.8,.11-14.56-22.46-14.56-22.69,0Z"/><text class="cls-3" transform="translate(148.16 596.68)"><tspan x="0" y="0">Mon &amp; </tspan><tspan class="cls-4" x="237.53" y="0">T</tspan><tspan x="272.23" y="0">ues - CLOSED</tspan><tspan class="cls-1" x="-77.29" y="86.4">W</tspan><tspan class="cls-2" x="-10.62" y="86.4">ed &amp; Thurs - 11AM - 7PM</tspan><tspan x="-5.22" y="172.8">Fri &amp; Sat - 11AM - 8PM</tspan><tspan x="71.35" y="259.2">Sun - 11AM - 6PM</tspan></text></g></svg>